#N canvas 473 336 1611 888 12;
#X obj 405 328 *~;
#X obj 58 347 *~;
#X obj 50 86 inlet;
#X obj 127 82 inlet;
#X obj 222 85 inlet;
#X obj 299 81 inlet;
#X obj 398 81 inlet;
#X obj 475 77 inlet;
#X obj 53 169 clone sampler-2ch 8, f 52;
#X msg 638 107 0.5;
#X msg 729 105 0.9;
#X msg 691 234 0.5;
#X msg 774 226 0.5;
#X msg 729 169 damping \$1;
#X msg 632 139 roomsize \$1;
#X msg 689 263 wet \$1;
#X msg 770 258 dry \$1;
#X obj 815 107 loadbang;
#X obj 243 311 freeverb~;
#X obj 487 164 line~;
#X obj 97 400 outlet~;
#X obj 466 449 outlet~;
#X connect 0 0 21 0;
#X connect 1 0 20 0;
#X connect 2 0 8 0;
#X connect 3 0 8 1;
#X connect 4 0 8 2;
#X connect 5 0 8 3;
#X connect 6 0 8 4;
#X connect 7 0 19 0;
#X connect 8 0 18 0;
#X connect 8 1 18 1;
#X connect 9 0 14 0;
#X connect 10 0 13 0;
#X connect 11 0 15 0;
#X connect 12 0 16 0;
#X connect 13 0 18 0;
#X connect 14 0 18 0;
#X connect 15 0 18 0;
#X connect 16 0 18 0;
#X connect 17 0 9 0;
#X connect 17 0 10 0;
#X connect 17 0 11 0;
#X connect 17 0 12 0;
#X connect 18 0 1 0;
#X connect 18 1 0 0;
#X connect 19 0 1 1;
#X connect 19 0 0 1;
