#N canvas 684 250 1611 888 12;
#X obj 53 317 dac~ 1 2 3 4, f 53;
#X obj 175 271 *~;
#X obj 288 272 *~;
#X obj 398 274 *~;
#X obj 53 269 *~;
#X obj 53 169 clone sampler 8, f 52;
#X obj 52 220 ../4channel/4chan-rev, f 53;
#X obj 49 81 inlet;
#X obj 127 82 inlet;
#X obj 222 85 inlet;
#X obj 299 81 inlet;
#X obj 398 81 inlet;
#X obj 475 77 inlet;
#X obj 476 162 line~;
#X obj 520 310 bng 15 250 50 0 empty empty empty 17 7 0 10 -262144
-1 -1;
#X connect 1 0 0 1;
#X connect 2 0 0 2;
#X connect 3 0 0 3;
#X connect 4 0 0 0;
#X connect 5 0 6 0;
#X connect 5 1 6 1;
#X connect 5 2 6 2;
#X connect 5 3 6 3;
#X connect 6 0 4 0;
#X connect 6 1 1 0;
#X connect 6 2 2 0;
#X connect 6 3 3 0;
#X connect 7 0 5 0;
#X connect 8 0 5 1;
#X connect 9 0 5 2;
#X connect 10 0 5 3;
#X connect 11 0 5 4;
#X connect 12 0 13 0;
#X connect 13 0 4 1;
#X connect 13 0 1 1;
#X connect 13 0 2 1;
#X connect 13 0 3 1;
