#N canvas 257 23 1487 1311 12;
#X declare -path ../javascripts;
#X declare -path ../;
#X declare -path ../abstractions;
#X obj 299 89 inlet;
#X obj 361 89 inlet, f 6;
#X obj 233 87 inlet;
#X obj 356 781 4channel/4ch-pan;
#X obj 424 91 inlet;
#X obj 488 757 r \$0-pan;
#X obj 429 132 s \$0-pan;
#X obj 358 835 outlet~;
#X obj 423 836 outlet~;
#X obj 485 837 outlet~;
#X obj 557 838 outlet~;
#X msg 560 699 50;
#X obj 591 77 inlet;
#X text 244 41 length \, pitch \, decay \, pan \, sound \, pitch mod
;
#X obj 51 1088 declare -path ../javascripts;
#X obj 47 1133 declare -path ../;
#X obj 37 1167 declare -path ../abstractions;
#X obj 548 508 table-handler array2;
#X obj 188 505 table-handler array1;
#N canvas 158 257 1915 1026 switch 0;
#X obj 262 456 outlet;
#X obj 378 455 outlet;
#X obj 240 122 inlet;
#X obj 249 191 t b f;
#X obj 256 261 f;
#X obj 339 262 f;
#X obj 461 136 random 100;
#X obj 467 172 > 25;
#X obj 480 203 sel 0 1;
#X connect 2 0 3 0;
#X connect 3 0 6 0;
#X connect 3 1 4 1;
#X connect 3 1 5 1;
#X connect 4 0 0 0;
#X connect 5 0 1 0;
#X connect 6 0 7 0;
#X connect 7 0 8 0;
#X connect 8 0 5 0;
#X connect 8 1 4 0;
#X restore 334 378 pd switch;
#X floatatom 336 453 5 0 0 0 - - -;
#X obj 453 590 bng 15 250 50 0 empty empty empty 17 7 0 10 -262144
-1 -1;
#X obj 315 592 bng 15 250 50 0 empty empty empty 17 7 0 10 -262144
-1 -1;
#X floatatom 545 595 5 0 0 0 - - -;
#X connect 0 0 18 1;
#X connect 0 0 17 1;
#X connect 1 0 18 2;
#X connect 1 0 17 2;
#X connect 2 0 19 0;
#X connect 3 0 7 0;
#X connect 3 1 8 0;
#X connect 3 2 9 0;
#X connect 3 3 10 0;
#X connect 4 0 6 0;
#X connect 5 0 3 1;
#X connect 11 0 3 1;
#X connect 12 0 18 3;
#X connect 12 0 17 3;
#X connect 17 0 3 0;
#X connect 18 0 3 0;
#X connect 19 0 18 0;
#X connect 19 0 20 0;
#X connect 19 0 22 0;
#X connect 19 1 17 0;
#X connect 19 1 21 0;
#X connect 19 1 23 0;
