#N canvas 538 27 1487 1311 12;
#X declare -path ../javascripts;
#X declare -path ../;
#X declare -path ../abstractions;
#X obj 299 89 inlet;
#X obj 361 89 inlet, f 6;
#X obj 233 87 inlet;
#X obj 424 91 inlet;
#X obj 654 631 r \$0-pan;
#X obj 429 132 s \$0-pan;
#X obj 261 826 outlet~;
#X obj 422 817 outlet~;
#X obj 591 77 inlet;
#X text 244 41 length \, pitch \, decay \, pan \, sound \, pitch mod
;
#X obj 51 1088 declare -path ../javascripts;
#X obj 47 1133 declare -path ../;
#X obj 37 1167 declare -path ../abstractions;
#X obj 548 508 table-handler array2;
#X obj 188 505 table-handler array1;
#N canvas 158 257 1915 1026 switch 0;
#X obj 262 456 outlet;
#X obj 378 455 outlet;
#X obj 240 122 inlet;
#X obj 249 191 t b f;
#X obj 256 261 f;
#X obj 339 262 f;
#X obj 461 136 random 100;
#X obj 467 172 > 25;
#X obj 480 203 sel 0 1;
#X connect 2 0 3 0;
#X connect 3 0 6 0;
#X connect 3 1 4 1;
#X connect 3 1 5 1;
#X connect 4 0 0 0;
#X connect 5 0 1 0;
#X connect 6 0 7 0;
#X connect 7 0 8 0;
#X connect 8 0 5 0;
#X connect 8 1 4 0;
#X restore 334 378 pd switch;
#X floatatom 336 453 5 0 0 0 - - -;
#X obj 453 590 bng 15 250 50 0 empty empty empty 17 7 0 10 -262144
-1 -1;
#X obj 315 592 bng 15 250 50 0 empty empty empty 17 7 0 10 -262144
-1 -1;
#X floatatom 545 595 5 0 0 0 - - -;
#X obj 273 717 equal_power_pan~;
#X obj 626 673 / 100;
#X msg 560 699 0.5;
#X obj 1140 499 table-handler array2;
#X obj 30 503 table-handler array1;
#N canvas 1859 720 450 300 alternate 1;
#X obj 56 40 inlet;
#X obj 68 227 outlet;
#X obj 248 227 outlet;
#X obj 127 116 tgl 15 0 empty empty empty 17 7 0 10 -262144 -1 -1 1
1;
#X obj 219 120 tgl 15 0 empty empty empty 17 7 0 10 -262144 -1 -1 0
1;
#X msg 183 39 0;
#X msg 237 42 1;
#X obj 321 46 loadbang;
#X obj 73 78 t f b;
#X obj 63 168 spigot;
#X obj 233 175 spigot;
#X connect 0 0 8 0;
#X connect 3 0 9 1;
#X connect 4 0 10 1;
#X connect 5 0 3 0;
#X connect 6 0 4 0;
#X connect 7 0 6 0;
#X connect 7 0 5 0;
#X connect 8 0 10 0;
#X connect 8 0 9 0;
#X connect 8 1 3 0;
#X connect 8 1 4 0;
#X connect 9 0 1 0;
#X connect 10 0 2 0;
#X restore 128 421 pd alternate;
#X connect 0 0 14 1;
#X connect 0 0 13 1;
#X connect 0 0 24 1;
#X connect 1 0 14 2;
#X connect 1 0 13 2;
#X connect 1 0 24 2;
#X connect 2 0 15 0;
#X connect 3 0 5 0;
#X connect 4 0 21 0;
#X connect 8 0 14 3;
#X connect 8 0 13 3;
#X connect 8 0 24 3;
#X connect 13 0 20 0;
#X connect 14 0 20 0;
#X connect 15 0 16 0;
#X connect 15 0 18 0;
#X connect 15 0 25 0;
#X connect 15 1 13 0;
#X connect 15 1 17 0;
#X connect 15 1 19 0;
#X connect 20 0 6 0;
#X connect 20 1 7 0;
#X connect 21 0 20 1;
#X connect 22 0 20 1;
#X connect 24 0 20 0;
#X connect 25 0 24 0;
#X connect 25 1 14 0;
