#N canvas 1050 57 1487 1315 12;
#X declare -lib timbreID/timbreIDLib;
#X declare -path /abstractions;
#X declare -path /tests;
#X declare -path /javascripts;
#X msg 1270 513 read -resize \$1 array1;
#X obj 1270 543 soundfiler;
#X obj 1268 487 openpanel;
#X obj 1267 462 bng 15 250 50 0 empty empty empty 17 7 0 10 -262144
-1 -1;
#X obj 1268 588 s sampleLen;
#X floatatom 763 564 5 0 0 0 - - -;
#X text 658 587 doubled transp;
#X obj 767 595 s trans;
#X floatatom 446 590 5 0 0 0 - - -;
#X text 449 557 central rate;
#X obj 441 617 s rate;
#N canvas 394 138 972 560 melodies 0;
#X obj 53 38 loadbang;
#X obj 220 17 inlet;
#X obj 219 48 sel 0 1 2 3;
#X msg 35 87 \; melody 0 60 67 65 60 63 70;
#X msg 260 178 \; melody 0 60 67 24 24 24 24;
#X msg 251 89 \; melody 0 60 67 24 24 63 70;
#X msg 31 179 \; melody 0 60 67 24 60 63 70;
#X connect 0 0 3 0;
#X connect 1 0 2 0;
#X connect 2 0 4 0;
#X connect 2 1 5 0;
#X connect 2 2 6 0;
#X connect 2 3 3 0;
#X restore 556 595 pd melodies;
#X obj 562 562 hradio 15 1 0 4 empty empty empty 0 -8 0 10 -262144
-1 -1 1;
#X obj 227 578 s position;
#X obj 252 557 hsl 128 15 -20 120 0 0 empty empty empty -2 -8 0 10
-262144 -1 -1 12700 1;
#X obj 184 207 adc~;
#X floatatom 210 362 5 0 0 0 - - -;
#N canvas 1058 430 1502 908 feature-extraction 0;
#N canvas 359 124 1520 957 onsets 0;
#X obj 56 53 inlet~;
#X obj 206 323 outlet;
#X obj 3 4 cnv 10 400 10 empty empty empty 20 12 0 14 -233017 -66577
0;
#X obj 3 4 cnv 10 10 400 empty empty empty 20 12 0 14 -233017 -66577
0;
#X obj 178 173 bng 15 250 50 0 empty empty empty 17 7 0 10 -262144
-1 -1;
#X obj 171 96 r bark-settings;
#X text 308 53 timbreID comes with its own onset detection object:
bark~. See its helpfile for more details. In comparison with bonk~
(the usual onset detection object in Pd) \, bark~ performs very similarly
but has several extra conveniences. Most importantly \, there is a
non-real-time version of the object \, enabling easy parsing of pre-recorded
audio.;
#X obj 146 135 bark~ 1024 256 0.5;
#X obj 336 292 loadbang;
#X msg 336 314 \; bark-settings minvel 15 \; bark-settings debounce
350 \; bark-settings thresh 5 12 \; bark-settings filter_range 20 49
\;;
#X obj 45 361 outlet~;
#X text 308 163 Doing the attack detection in a subpatch with the input
signal connected in series before [bfcc~] guarantees the DSP order.
We first analyze the signal with [bark~] here to look for attacks \,
and if we find one \, spit out a bang to get the most recent BFCC analysis
possible back in the parent patch.;
#X text 558 321 These were good onset detection settings for the audio
files used in this help file., f 22;
#X obj 285 319 outlet;
#X connect 0 0 7 0;
#X connect 0 0 10 0;
#X connect 5 0 7 0;
#X connect 7 0 4 0;
#X connect 7 0 1 0;
#X connect 7 1 13 0;
#X connect 8 0 9 0;
#X restore 73 113 pd onsets;
#X obj 75 27 declare -lib timbreID/timbreIDLib;
#X obj 67 77 inlet~;
#X obj 64 339 outlet;
#X obj 119 338 outlet;
#X obj 372 75 tgl 15 0 empty empty empty 17 7 0 10 -262144 -1 -1 1
1;
#X obj 372 95 metro 100;
#X obj 376 116 t b b;
#X obj 270 206 specHarmonicity~ 4096;
#N canvas 505 281 757 408 get-spectrum-and-pitch 0;
#X obj 355 248 mtof;
#X obj 297 199 moses 0;
#X obj 267 324 outlet;
#X obj 65 21 inlet~;
#X obj 65 324 outlet~;
#X obj 195 21 inlet;
#X text 290 53 If you choose to use the "input_fund" feature to specify
the fundamental frequency via [cepstrumPitch~] or [sigmund~] \, do
pitch analysis BEFORE harmonicity measure by putting [sigmund~] in
a series-patched subpatch connected to [specHarmonicity~].;
#X obj 267 280 f;
#X obj 297 177 sigmund~ pitch -npts 4096 -hop 512 -maxfreq 3000;
#X floatatom 277 304 10 0 0 1 Hz - -;
#X connect 0 0 7 1;
#X connect 1 1 0 0;
#X connect 3 0 4 0;
#X connect 3 0 8 0;
#X connect 5 0 7 0;
#X connect 7 0 2 0;
#X connect 7 0 9 0;
#X connect 8 0 1 0;
#X restore 273 153 pd get-spectrum-and-pitch;
#X obj 279 337 outlet;
#X obj 371 341 outlet;
#X obj 154 151 unpack f f;
#X obj 178 100 bonk~;
#X obj 6 339 outlet;
#X obj 427 26 loadbang;
#X obj 271 272 sel -1;
#X obj 370 271 sel -1;
#X obj 365 313 * 2;
#X obj 57 245 specBrightness~ 1020 4800;
#X obj 67 294 expr 4 + ln($f1);
#X connect 0 0 19 0;
#X connect 0 1 14 0;
#X connect 0 1 19 0;
#X connect 2 0 0 0;
#X connect 2 0 13 0;
#X connect 2 0 9 0;
#X connect 5 0 6 0;
#X connect 6 0 7 0;
#X connect 7 0 8 0;
#X connect 7 1 9 1;
#X connect 8 0 16 0;
#X connect 8 1 17 0;
#X connect 9 0 8 0;
#X connect 9 1 8 1;
#X connect 12 1 4 0;
#X connect 13 1 12 0;
#X connect 15 0 5 0;
#X connect 16 1 10 0;
#X connect 17 1 18 0;
#X connect 18 0 11 0;
#X connect 19 0 20 0;
#X connect 20 0 3 0;
#X restore 162 294 pd feature-extraction;
#X floatatom 258 362 5 0 0 0 - - -;
#X floatatom 306 363 5 0 0 0 - - -;
#X obj 520 91 vsl 15 128 0 1 0 0 empty empty empty 0 -9 0 10 -257985
-1 -1 12700 1;
#X obj 87 88 bng 60 250 50 0 empty empty empty 17 7 0 10 -262144 -1
-1;
#X obj 577 89 vsl 15 128 0 50 0 0 empty empty empty 0 -9 0 10 -258113
-1 -1 5091 1;
#X obj 628 92 vsl 15 128 0 1 0 0 empty empty empty 0 -9 0 10 -4032
-1 -1 7879 1;
#X obj 673 93 vsl 15 128 0 1 0 0 empty empty empty 0 -9 0 10 -4034
-1 -1 5666 1;
#X obj 255 410 tgl 15 0 empty empty empty 17 7 0 10 -262144 -1 -1 0
1;
#X floatatom 159 363 5 0 0 0 - - -;
#X floatatom 1376 584 5 0 0 0 - - -;
#X text 29 95 ONSET;
#X obj 261 177 tgl 60 0 empty empty empty 17 7 0 10 -262144 -1 -1 0
1;
#X obj 270 248 s onoff;
#N canvas 823 262 1051 863 playhead-influence 0;
#X obj 140 568 hsl 128 15 -20 120 0 0 empty empty empty -2 -8 0 10
-262144 -1 -1 12700 1;
#X obj 81 471 t b f;
#X msg 201 511 set \$1;
#X obj 165 443 +;
#X obj 205 484 min 120;
#X obj 205 456 max -20;
#X obj 140 612 outlet;
#X obj 36 113 inlet;
#X obj 34 186 * -0.125;
#X obj 511 341 bng 15 250 50 0 empty empty empty 17 7 0 10 -262144
-1 -1;
#X obj 591 411 + 1;
#X obj 529 404 f 0;
#X floatatom 625 489 5 0 0 0 - - -;
#X obj 558 497 % 40;
#X obj 627 518 select 0;
#X obj 612 321 > 117;
#X obj 627 351 sel 1;
#X obj 129 144 expr $f1 * -0.125 - 0.062;
#X obj 129 108 r playhead-sens;
#X obj 345 105 r playhead-bias;
#X obj 69 333 + 0;
#X obj 338 171 expr $f1 * -3 + 1.5;
#X obj 261 381 r invert;
#X obj 74 388 * 1;
#X obj 180 371 sel 1 0;
#X msg 129 400 1;
#X msg 659 636 1;
#X msg 599 642 0;
#X obj 642 694 s invert;
#X obj 730 570 tgl 15 0 empty empty empty 17 7 0 10 -262144 -1 -1 0
1;
#X obj 721 647 spigot;
#X obj 760 446 + 1;
#X obj 717 446 f 0;
#X floatatom 813 531 5 0 0 0 - - -;
#X obj 744 469 % 40;
#X obj 815 560 select 0;
#X obj 679 317 < -10;
#X msg 114 371 -1.5;
#X text 462 295 increased chance of ignoring the improviser;
#X connect 0 0 3 0;
#X connect 0 0 6 0;
#X connect 0 0 15 0;
#X connect 0 0 36 0;
#X connect 1 0 0 0;
#X connect 1 0 30 0;
#X connect 1 1 3 1;
#X connect 2 0 0 0;
#X connect 3 0 5 0;
#X connect 4 0 2 0;
#X connect 5 0 4 0;
#X connect 7 0 8 0;
#X connect 8 0 20 0;
#X connect 9 0 11 0;
#X connect 10 0 11 1;
#X connect 11 0 10 0;
#X connect 11 0 13 0;
#X connect 12 0 14 0;
#X connect 13 0 12 0;
#X connect 14 0 26 0;
#X connect 15 0 16 0;
#X connect 16 0 9 0;
#X connect 17 0 8 1;
#X connect 18 0 17 0;
#X connect 19 0 21 0;
#X connect 20 0 23 0;
#X connect 21 0 20 1;
#X connect 22 0 24 0;
#X connect 23 0 1 0;
#X connect 24 0 37 0;
#X connect 24 1 25 0;
#X connect 25 0 23 1;
#X connect 26 0 28 0;
#X connect 26 0 29 0;
#X connect 27 0 29 0;
#X connect 27 0 28 0;
#X connect 29 0 30 1;
#X connect 30 0 32 0;
#X connect 31 0 32 1;
#X connect 32 0 31 0;
#X connect 32 0 34 0;
#X connect 33 0 35 0;
#X connect 34 0 33 0;
#X connect 35 0 27 0;
#X connect 36 0 16 0;
#X connect 37 0 23 1;
#X restore 223 520 pd playhead-influence;
#N canvas 1714 142 483 583 rate-influence 0;
#X obj 151 151 max 0;
#X obj 151 179 min 100;
#X obj 98 226 hsl 128 15 -20 120 0 0 empty empty empty -2 -8 0 10 -262144
-1 -1 10886 1;
#X msg 151 203 set \$1;
#X obj 30 78 t b f;
#X obj 154 114 +;
#X obj 51 265 outlet;
#X obj 20 9 inlet;
#X obj 111 21 inlet;
#X msg 34 40 2;
#X obj 68 45 * -0.08;
#X connect 0 0 1 0;
#X connect 1 0 3 0;
#X connect 2 0 5 0;
#X connect 2 0 6 0;
#X connect 3 0 2 0;
#X connect 4 0 2 0;
#X connect 4 1 5 1;
#X connect 5 0 0 0;
#X connect 7 0 9 0;
#X connect 8 0 10 0;
#X connect 9 0 4 0;
#X connect 10 0 4 0;
#X restore 408 529 pd rate-influence;
#N canvas 1581 116 979 847 melody-influence 0;
#X obj 110 331 hsl 128 15 0 3.99 0 0 empty empty empty -2 -8 0 10 -262144
-1 -1 5407 1;
#X msg 163 308 set \$1;
#X obj 56 223 t b f;
#X obj 166 219 +;
#X obj 63 370 outlet;
#X obj 20 9 inlet;
#X obj 104 28 inlet;
#X obj 51 332 int;
#X obj 163 257 max 0;
#X obj 163 284 min 3.99;
#X obj 33 83 -;
#X floatatom 33 107 5 0 0 0 - - -;
#X obj 40 158 f;
#X obj 112 98 abs;
#X obj 116 141 > 0.2;
#X obj 40 132 t f f;
#X obj 113 162 sel 1;
#X connect 0 0 7 0;
#X connect 0 0 3 0;
#X connect 1 0 0 0;
#X connect 2 0 0 0;
#X connect 2 1 3 1;
#X connect 3 0 8 0;
#X connect 5 0 10 0;
#X connect 6 0 10 1;
#X connect 7 0 4 0;
#X connect 8 0 9 0;
#X connect 9 0 1 0;
#X connect 10 0 11 0;
#X connect 11 0 15 0;
#X connect 12 0 2 0;
#X connect 13 0 14 0;
#X connect 14 0 16 0;
#X connect 15 0 13 0;
#X connect 15 1 12 1;
#X connect 16 0 12 0;
#X restore 556 529 pd melody-influence;
#N canvas 1665 290 980 932 trans-influence 0;
#X obj 94 388 hsl 128 15 -24 24 0 0 empty empty empty -2 -8 0 10 -262144
-1 -1 7875 1;
#X msg 147 365 set \$1;
#X obj 25 205 t b f;
#X obj 150 276 +;
#X obj 47 427 outlet;
#X obj 154 26 inlet;
#X floatatom 228 290 5 0 0 0 - - -;
#X obj 147 314 max -24;
#X obj 147 341 min 24;
#X floatatom 271 33 5 0 0 0 - - -;
#X text 229 124 difference between last two values;
#X obj 143 101 -;
#X obj 151 50 t f f;
#X obj 30 54 random 2;
#X obj 28 89 sel 1;
#X obj 38 159 *;
#X msg 28 126 1;
#X msg 66 129 -1;
#X obj 126 157 t f b;
#X obj 152 127 * 30;
#X obj 302 211 random 24;
#X obj 320 283 random 24;
#X obj 320 315 * -1;
#X obj 304 242 * 1;
#X obj 270 169 bng 15 250 50 0 empty empty empty 17 7 0 10 -262144
-1 -1;
#X obj 285 60 abs;
#X obj 286 87 > 1;
#X obj 250 104 sel 1;
#X connect 0 0 3 0;
#X connect 0 0 4 0;
#X connect 1 0 0 0;
#X connect 2 0 0 0;
#X connect 2 1 3 1;
#X connect 3 0 6 0;
#X connect 3 0 7 0;
#X connect 5 0 12 0;
#X connect 7 0 8 0;
#X connect 8 0 1 0;
#X connect 9 0 25 0;
#X connect 11 0 9 0;
#X connect 11 0 19 0;
#X connect 12 0 11 1;
#X connect 12 1 11 0;
#X connect 13 0 14 0;
#X connect 14 0 16 0;
#X connect 14 1 17 0;
#X connect 15 0 2 0;
#X connect 16 0 15 1;
#X connect 17 0 15 1;
#X connect 18 0 15 0;
#X connect 18 1 13 0;
#X connect 19 0 18 0;
#X connect 20 0 23 0;
#X connect 21 0 22 0;
#X connect 22 0 7 1;
#X connect 23 0 8 1;
#X connect 24 0 20 0;
#X connect 24 0 21 0;
#X connect 25 0 26 0;
#X connect 26 0 27 0;
#X connect 27 0 24 0;
#X restore 750 527 pd trans-influence;
#X floatatom 358 363 5 0 0 0 - - -;
#X obj 47 329 env~ 16384 8192;
#X floatatom 47 416 5 0 0 0 - - -;
#X text 354 390 env \, brightness \, power \, harmonicity \, inharmonicity
\, spectral flatness;
#X obj 47 392 expr $f1 - 55;
#X obj 79 666 env~ 16384 8192;
#X obj 77 643 hip~ 1000;
#X obj 77 687 expr $f1 - 50;
#X obj 315 1139 4channel/4chan-rev, f 53;
#X obj 317 1181 dac~ 1 2 3 4, f 53;
#X msg 641 987 all set array1;
#X msg 463 969 all 30;
#X obj 938 886 hsl 128 15 0 100 0 0 empty empty spread -2 -8 0 10 -262144
-1 -1 12700 1;
#X obj 993 934 hsl 128 15 0 100 0 0 empty empty center -2 -8 0 10 -262144
-1 -1 0 1;
#X obj 112 863 metro 100;
#N canvas 951 493 610 533 pan-control 0;
#X obj 102 153 t b b b b b b b b b;
#X obj 164 219 f;
#X obj 222 221 + 1;
#X obj 177 313 expr ($f1 - 3.5) * $f2 / 8 + $f3;
#X obj 325 195 f;
#X obj 376 146 t b b f;
#X obj 251 115 t b f;
#X msg 79 221 0;
#X obj 177 359 mod 100;
#X obj 138 292 t f f;
#X obj 152 411 pack f f;
#X obj 278 41 inlet;
#X obj 495 49 inlet;
#X obj 227 456 outlet;
#X msg 131 76 100;
#X obj 117 48 loadbang;
#X obj 492 97 loadbang;
#X msg 506 125 0;
#X connect 0 0 7 0;
#X connect 0 1 1 0;
#X connect 0 2 1 0;
#X connect 0 3 1 0;
#X connect 0 4 1 0;
#X connect 0 5 1 0;
#X connect 0 6 1 0;
#X connect 0 7 1 0;
#X connect 0 8 1 0;
#X connect 1 0 2 0;
#X connect 1 0 9 0;
#X connect 2 0 1 1;
#X connect 3 0 8 0;
#X connect 4 0 3 1;
#X connect 5 0 0 0;
#X connect 5 1 4 0;
#X connect 5 2 3 2;
#X connect 6 0 0 0;
#X connect 6 1 4 0;
#X connect 7 0 1 1;
#X connect 8 0 10 1;
#X connect 9 0 10 0;
#X connect 9 1 3 0;
#X connect 10 0 13 0;
#X connect 11 0 6 0;
#X connect 11 0 4 0;
#X connect 12 0 5 0;
#X connect 14 0 6 0;
#X connect 15 0 14 0;
#X connect 16 0 17 0;
#X connect 17 0 5 0;
#X restore 872 1042 pd pan-control;
#X msg 333 1014 all \$1;
#X obj 36 1013 loadbang;
#X msg 46 1041 400;
#N canvas 89 120 637 307 density 0;
#X obj 131 64 t b b;
#X msg 73 125 next \$1;
#X msg 154 124 next \$1;
#X obj 68 91 f;
#X obj 155 94 f;
#X obj 62 39 inlet;
#X obj 199 40 inlet;
#X obj 115 190 outlet;
#X connect 0 0 3 0;
#X connect 0 1 4 0;
#X connect 1 0 7 0;
#X connect 2 0 7 0;
#X connect 3 0 1 0;
#X connect 4 0 2 0;
#X connect 5 0 0 0;
#X connect 6 0 4 1;
#X connect 6 0 3 1;
#X restore 180 1052 pd density;
#X obj 85 1118 vsl 15 128 40 500 0 0 empty empty duration 0 -9 0 10
-262144 -1 -1 11000 1;
#X msg 798 978 all 0;
#N canvas 385 647 450 300 trans 0;
#X obj 216 70 r trans;
#X msg 102 170 1 \$1;
#X msg 143 71 12;
#X obj 177 143 * 2;
#X obj 292 137 * 2;
#X obj 187 219 outlet;
#X msg 169 170 3 \$1;
#X msg 227 171 5 \$1;
#X msg 300 171 7 \$1;
#X connect 0 0 4 0;
#X connect 0 0 3 0;
#X connect 1 0 5 0;
#X connect 2 0 1 0;
#X connect 2 0 7 0;
#X connect 2 0 3 0;
#X connect 2 0 4 0;
#X connect 3 0 6 0;
#X connect 4 0 8 0;
#X connect 6 0 5 0;
#X connect 7 0 5 0;
#X connect 8 0 5 0;
#X restore 802 921 pd trans;
#N canvas 215 258 945 542 melody 0;
#X obj 103 66 inlet;
#X obj 111 166 outlet;
#X obj 278 116 tabread melody;
#X obj 347 148 - 7;
#X floatatom 344 182 5 0 0 0 - - -;
#X obj 221 80 f 0;
#X obj 258 80 + 1;
#X obj 236 118 % 6;
#X connect 0 0 5 0;
#X connect 2 0 3 0;
#X connect 3 0 4 0;
#X connect 4 0 1 0;
#X connect 5 0 6 0;
#X connect 5 0 7 0;
#X connect 6 0 5 1;
#X connect 7 0 2 0;
#X restore 305 952 pd melody;
#N canvas 780 337 637 413 rate 0;
#X obj 278 153 js javascripts/random.js 0 100;
#X obj 240 120 f;
#X obj 265 84 r rate;
#X obj 275 181 * 3;
#X obj 125 62 inlet;
#X obj 149 259 outlet;
#X connect 0 0 3 0;
#X connect 1 0 0 0;
#X connect 2 0 1 1;
#X connect 3 0 5 0;
#X connect 4 0 1 0;
#X restore 189 862 pd rate;
#X obj 87 813 r onoff;
#X obj 500 913 loadbang;
#X obj 820 1129 noise~;
#X obj 829 1180 *~ 0.05;
#X obj 318 431 metro 150;
#X obj 1025 498 bng 15 250 50 0 empty empty empty 17 7 0 10 -262144
-1 -1;
#X obj 1010 451 r rand-samp;
#X obj 438 87 vsl 15 128 -20 30 0 0 empty empty amplitude 0 -9 0 10
-204800 -1 -1 0 1;
#X obj 168 408 r onoff;
#X obj 756 69 vsl 15 128 0 1 0 0 empty empty playhead 0 -9 0 10 -262144
-1 -1 127 1;
#X obj 1217 97 vsl 15 128 0 127 0 0 empty empty rate 0 -9 0 10 -262144
-1 -1 0 1;
#X obj 1386 102 vsl 15 128 0 127 0 0 empty empty trans 0 -9 0 10 -262144
-1 -1 0 1;
#X obj 753 236 s playhead-sens;
#X obj 897 73 vsl 15 128 0 1 0 0 empty empty playhead 0 -9 0 10 -262144
-1 -1 10160 1;
#X obj 883 227 s playhead-bias;
#X obj 1004 282 tgl 60 0 empty empty INVERT 17 7 0 10 -262144 -1 -1
0 1;
#X obj 1004 257 r invert;
#N canvas 2032 510 450 300 randomize-settings 0;
#X obj 84 137 random 100;
#X obj 75 175 / 100;
#X obj 182 135 random 100;
#X obj 183 174 / 100;
#X obj 70 48 inlet;
#X obj 56 228 s playhead-sens-rand;
#X obj 228 228 s playhead-bias-rand;
#X connect 0 0 1 0;
#X connect 1 0 5 0;
#X connect 2 0 3 0;
#X connect 3 0 6 0;
#X connect 4 0 0 0;
#X connect 4 0 2 0;
#X restore 954 546 pd randomize-settings;
#X obj 750 24 r playhead-sens-rand;
#X obj 921 24 r playhead-bias-rand;
#X obj 316 1088 clone abstractions/sampler 8, f 52;
#N canvas 0 23 450 300 path 0;
#X obj 34 35 declare -path /abstractions;
#X obj 38 71 declare -path /tests;
#X obj 47 108 declare -path /javascripts;
#X restore 658 48 pd path;
#N canvas 0 23 383 331 tables 0;
#X obj 51 94 table array1 441000;
#X obj 63 34 table hanning 22050;
#X obj 206 37 table melody;
#X obj 56 137 table array2 441000;
#X obj 48 185 table array3 441000;
#X obj 58 228 table array4 441000;
#X restore 1051 765 pd tables;
#N canvas 1545 299 1566 585 samples-old 1;
#X msg 820 447 symbol samples/guitar.wav;
#X obj 975 403 loadbang;
#X msg 424 442 symbol samples/chain.wav;
#X msg 626 445 symbol samples/weights.wav;
#X msg 130 446 symbol samples/dua-bowing-1.wav;
#X obj 358 516 outlet;
#X obj 425 188 random 4;
#X obj 445 283 f;
#X obj 483 314 ==;
#X obj 425 211 t b b f f;
#X obj 375 271 f;
#X obj 429 340 sel 0;
#X obj 527 346 sel 1;
#X floatatom 297 383 5 0 0 0 - - -;
#X obj 373 392 select 0 1 2 3;
#X obj 418 104 inlet;
#X connect 0 0 5 0;
#X connect 1 0 0 0;
#X connect 2 0 5 0;
#X connect 3 0 5 0;
#X connect 4 0 5 0;
#X connect 6 0 9 0;
#X connect 7 0 8 0;
#X connect 8 0 11 0;
#X connect 8 0 12 0;
#X connect 9 1 7 0;
#X connect 9 2 8 1;
#X connect 9 3 10 1;
#X connect 10 0 7 1;
#X connect 10 0 13 0;
#X connect 11 0 10 0;
#X connect 12 0 6 0;
#X connect 13 0 14 0;
#X connect 14 0 4 0;
#X connect 14 1 2 0;
#X connect 14 2 3 0;
#X connect 14 3 0 0;
#X connect 15 0 6 0;
#X restore 1361 365 pd samples-old;
#N canvas 0 23 1337 849 samples 1;
#X msg 739 262 symbol samples/guitar.wav;
#X msg 343 257 symbol samples/chain.wav;
#X msg 545 260 symbol samples/weights.wav;
#X msg 88 294 symbol samples/dua-bowing-1.wav;
#X obj 124 512 soundfiler;
#X obj 122 456 openpanel;
#X obj 121 431 bng 15 250 50 0 empty empty empty 17 7 0 10 -262144
-1 -1;
#X floatatom 230 553 5 0 0 0 - - -;
#X obj 395 509 soundfiler;
#X obj 393 453 openpanel;
#X obj 392 428 bng 15 250 50 0 empty empty empty 17 7 0 10 -262144
-1 -1;
#X floatatom 501 550 5 0 0 0 - - -;
#X obj 651 509 soundfiler;
#X obj 649 453 openpanel;
#X obj 648 428 bng 15 250 50 0 empty empty empty 17 7 0 10 -262144
-1 -1;
#X floatatom 757 550 5 0 0 0 - - -;
#X obj 908 524 soundfiler;
#X obj 906 468 openpanel;
#X obj 905 443 bng 15 250 50 0 empty empty empty 17 7 0 10 -262144
-1 -1;
#X floatatom 1014 565 5 0 0 0 - - -;
#X obj 360 91 loadbang;
#X msg 124 482 read -resize \$1 array0;
#X msg 395 479 read -resize \$1 array1;
#X msg 651 479 read -resize \$1 array2;
#X msg 908 494 read -resize \$1 array3;
#X obj 122 557 s sampleLen0;
#X obj 393 554 s sampleLen1;
#X obj 649 554 s sampleLen2;
#X obj 906 569 s sampleLen3;
#X connect 0 0 24 0;
#X connect 1 0 22 0;
#X connect 2 0 23 0;
#X connect 3 0 21 0;
#X connect 4 0 7 0;
#X connect 4 0 25 0;
#X connect 5 0 21 0;
#X connect 6 0 5 0;
#X connect 8 0 11 0;
#X connect 8 0 26 0;
#X connect 9 0 22 0;
#X connect 10 0 9 0;
#X connect 12 0 15 0;
#X connect 12 0 27 0;
#X connect 13 0 23 0;
#X connect 14 0 13 0;
#X connect 16 0 19 0;
#X connect 16 0 28 0;
#X connect 17 0 24 0;
#X connect 18 0 17 0;
#X connect 20 0 3 0;
#X connect 20 0 1 0;
#X connect 20 0 2 0;
#X connect 20 0 0 0;
#X connect 21 0 4 0;
#X connect 22 0 8 0;
#X connect 23 0 12 0;
#X connect 24 0 16 0;
#X restore 1249 683 pd samples;
#X connect 0 0 1 0;
#X connect 1 0 4 0;
#X connect 1 0 27 0;
#X connect 2 0 0 0;
#X connect 3 0 2 0;
#X connect 5 0 7 0;
#X connect 8 0 10 0;
#X connect 12 0 11 0;
#X connect 14 0 13 0;
#X connect 15 0 17 0;
#X connect 15 0 36 0;
#X connect 15 0 41 0;
#X connect 16 0 22 0;
#X connect 17 0 21 0;
#X connect 17 1 26 0;
#X connect 17 2 16 0;
#X connect 17 3 18 0;
#X connect 17 4 19 0;
#X connect 18 0 23 0;
#X connect 19 0 24 0;
#X connect 20 0 34 0;
#X connect 22 0 32 1;
#X connect 23 0 33 0;
#X connect 24 0 33 1;
#X connect 25 0 64 0;
#X connect 26 0 20 0;
#X connect 29 0 30 0;
#X connect 31 0 14 0;
#X connect 32 0 8 0;
#X connect 33 0 12 0;
#X connect 34 0 5 0;
#X connect 36 0 39 0;
#X connect 39 0 37 0;
#X connect 40 0 42 0;
#X connect 41 0 40 0;
#X connect 42 0 67 0;
#X connect 43 0 44 0;
#X connect 43 1 44 1;
#X connect 43 2 44 2;
#X connect 43 3 44 3;
#X connect 45 0 80 4;
#X connect 46 0 80 2;
#X connect 47 0 50 0;
#X connect 48 0 50 1;
#X connect 49 0 54 0;
#X connect 49 0 58 0;
#X connect 49 0 59 0;
#X connect 50 0 80 3;
#X connect 51 0 80 1;
#X connect 52 0 53 0;
#X connect 53 0 55 0;
#X connect 54 0 80 0;
#X connect 55 0 54 1;
#X connect 56 0 80 5;
#X connect 57 0 80 5;
#X connect 58 0 51 0;
#X connect 59 0 49 1;
#X connect 60 0 49 0;
#X connect 61 0 46 0;
#X connect 61 0 45 0;
#X connect 62 0 63 0;
#X connect 64 0 32 0;
#X connect 65 0 77 0;
#X connect 66 0 65 0;
#X connect 67 0 31 0;
#X connect 68 0 25 0;
#X connect 69 0 72 0;
#X connect 73 0 74 0;
#X connect 76 0 75 0;
#X connect 78 0 69 0;
#X connect 79 0 73 0;
#X connect 80 0 43 0;
#X connect 80 1 43 1;
#X connect 80 2 43 2;
#X connect 80 3 43 3;
#X connect 83 0 0 0;
