#N canvas 217 23 1793 1315 12;
#X declare -lib timbreID/timbreIDLib;
#X declare -path /abstractions;
#X declare -path /tests;
#X declare -path /javascripts;
#X floatatom 823 664 5 0 0 0 - - -;
#X text 718 687 doubled transp;
#X obj 827 695 s trans;
#X floatatom 506 690 5 0 0 0 - - -;
#X text 509 657 central rate;
#X obj 501 717 s rate;
#N canvas 394 138 972 560 melodies 0;
#X obj 53 38 loadbang;
#X obj 220 17 inlet;
#X obj 219 48 sel 0 1 2 3;
#X msg 35 87 \; melody 0 60 67 65 60 63 70;
#X msg 260 178 \; melody 0 60 67 24 24 24 24;
#X msg 251 89 \; melody 0 60 67 24 24 63 70;
#X msg 31 179 \; melody 0 60 67 24 60 63 70;
#X connect 0 0 3 0;
#X connect 1 0 2 0;
#X connect 2 0 4 0;
#X connect 2 1 5 0;
#X connect 2 2 6 0;
#X connect 2 3 3 0;
#X restore 616 695 pd melodies;
#X obj 622 662 hradio 15 1 0 4 empty empty empty 0 -8 0 10 -262144
-1 -1 0;
#X obj 287 678 s position;
#X obj 312 657 hsl 128 15 -20 120 0 0 empty empty empty -2 -8 0 10
-262144 -1 -1 0 1;
#X obj 161 339 adc~;
#X floatatom 270 462 5 0 0 0 - - -;
#N canvas 1058 430 1502 908 feature-extraction 0;
#N canvas 359 124 1520 957 onsets 0;
#X obj 56 53 inlet~;
#X obj 206 323 outlet;
#X obj 3 4 cnv 10 400 10 empty empty empty 20 12 0 14 -233017 -66577
0;
#X obj 3 4 cnv 10 10 400 empty empty empty 20 12 0 14 -233017 -66577
0;
#X obj 178 173 bng 15 250 50 0 empty empty empty 17 7 0 10 -262144
-1 -1;
#X obj 171 96 r bark-settings;
#X text 308 53 timbreID comes with its own onset detection object:
bark~. See its helpfile for more details. In comparison with bonk~
(the usual onset detection object in Pd) \, bark~ performs very similarly
but has several extra conveniences. Most importantly \, there is a
non-real-time version of the object \, enabling easy parsing of pre-recorded
audio.;
#X obj 146 135 bark~ 1024 256 0.5;
#X obj 336 292 loadbang;
#X msg 336 314 \; bark-settings minvel 15 \; bark-settings debounce
350 \; bark-settings thresh 5 12 \; bark-settings filter_range 20 49
\;;
#X obj 45 361 outlet~;
#X text 308 163 Doing the attack detection in a subpatch with the input
signal connected in series before [bfcc~] guarantees the DSP order.
We first analyze the signal with [bark~] here to look for attacks \,
and if we find one \, spit out a bang to get the most recent BFCC analysis
possible back in the parent patch.;
#X text 558 321 These were good onset detection settings for the audio
files used in this help file., f 22;
#X obj 285 319 outlet;
#X connect 0 0 7 0;
#X connect 0 0 10 0;
#X connect 5 0 7 0;
#X connect 7 0 4 0;
#X connect 7 0 1 0;
#X connect 7 1 13 0;
#X connect 8 0 9 0;
#X restore 73 113 pd onsets;
#X obj 75 27 declare -lib timbreID/timbreIDLib;
#X obj 67 77 inlet~;
#X obj 64 339 outlet;
#X obj 119 338 outlet;
#X obj 372 75 tgl 15 0 empty empty empty 17 7 0 10 -262144 -1 -1 1
1;
#X obj 372 95 metro 100;
#X obj 376 116 t b b;
#X obj 270 206 specHarmonicity~ 4096;
#N canvas 505 281 757 408 get-spectrum-and-pitch 0;
#X obj 355 248 mtof;
#X obj 297 199 moses 0;
#X obj 267 324 outlet;
#X obj 65 21 inlet~;
#X obj 65 324 outlet~;
#X obj 195 21 inlet;
#X text 290 53 If you choose to use the "input_fund" feature to specify
the fundamental frequency via [cepstrumPitch~] or [sigmund~] \, do
pitch analysis BEFORE harmonicity measure by putting [sigmund~] in
a series-patched subpatch connected to [specHarmonicity~].;
#X obj 267 280 f;
#X obj 297 177 sigmund~ pitch -npts 4096 -hop 512 -maxfreq 3000;
#X floatatom 277 304 10 0 0 1 Hz - -;
#X connect 0 0 7 1;
#X connect 1 1 0 0;
#X connect 3 0 4 0;
#X connect 3 0 8 0;
#X connect 5 0 7 0;
#X connect 7 0 2 0;
#X connect 7 0 9 0;
#X connect 8 0 1 0;
#X restore 273 153 pd get-spectrum-and-pitch;
#X obj 279 337 outlet;
#X obj 371 341 outlet;
#X obj 154 151 unpack f f;
#X obj 178 100 bonk~;
#X obj 6 339 outlet;
#X obj 427 26 loadbang;
#X obj 271 272 sel -1;
#X obj 370 271 sel -1;
#X obj 365 313 * 2;
#X obj 57 245 specBrightness~ 1020 4800;
#X obj 67 294 expr 4 + ln($f1);
#X connect 0 0 19 0;
#X connect 0 1 14 0;
#X connect 0 1 19 0;
#X connect 2 0 0 0;
#X connect 2 0 13 0;
#X connect 2 0 9 0;
#X connect 5 0 6 0;
#X connect 6 0 7 0;
#X connect 7 0 8 0;
#X connect 7 1 9 1;
#X connect 8 0 16 0;
#X connect 8 1 17 0;
#X connect 9 0 8 0;
#X connect 9 1 8 1;
#X connect 12 1 4 0;
#X connect 13 1 12 0;
#X connect 15 0 5 0;
#X connect 16 1 10 0;
#X connect 17 1 18 0;
#X connect 18 0 11 0;
#X connect 19 0 20 0;
#X connect 20 0 3 0;
#X restore 222 394 pd feature-extraction;
#X floatatom 318 462 5 0 0 0 - - -;
#X floatatom 366 463 5 0 0 0 - - -;
#X obj 520 91 vsl 15 128 0 1 0 0 empty empty empty 0 -9 0 10 -257985
-1 -1 12700 1;
#X obj 252 100 bng 60 250 50 0 empty empty ONSET 17 7 0 10 -262144
-1 -1;
#X obj 577 89 vsl 15 128 0 50 0 0 empty empty empty 0 -9 0 10 -258113
-1 -1 12700 1;
#X obj 628 92 vsl 15 128 0 1 0 0 empty empty empty 0 -9 0 10 -4032
-1 -1 6652 1;
#X obj 673 93 vsl 15 128 0 1 0 0 empty empty empty 0 -9 0 10 -4034
-1 -1 12700 1;
#X obj 315 510 tgl 15 0 empty empty empty 17 7 0 10 -262144 -1 -1 1
1;
#X floatatom 219 463 5 0 0 0 - - -;
#X obj 75 46 tgl 60 0 empty empty empty 17 7 0 10 -262144 -1 -1 1 1
;
#X obj 84 117 s onoff;
#N canvas 257 379 1051 863 playhead-influence 0;
#X obj 242 587 hsl 128 15 -20 120 0 0 empty empty empty -2 -8 0 10
-262144 -1 -1 0 1;
#X obj 81 471 t b f;
#X msg 201 511 set \$1;
#X obj 165 443 +;
#X obj 140 612 outlet;
#X obj 36 113 inlet;
#X obj 34 186 * -0.125;
#X obj 569 113 bng 15 250 50 0 empty empty empty 17 7 0 10 -262144
-1 -1;
#X obj 649 183 + 1;
#X obj 587 176 f 0;
#X floatatom 683 261 5 0 0 0 - - -;
#X obj 616 269 % 40;
#X obj 685 290 select 0;
#X obj 670 93 > 117;
#X obj 683 128 sel 1;
#X obj 129 144 expr $f1 * -0.125 - 0.062;
#X obj 129 108 r playhead-sens;
#X obj 345 105 r playhead-bias;
#X obj 69 333 + 0;
#X obj 338 171 expr $f1 * -3 + 1.5;
#X obj 261 381 r invert;
#X obj 74 388 * 1;
#X obj 180 371 sel 1 0;
#X msg 129 400 1;
#X msg 717 408 1;
#X msg 657 414 0;
#X obj 700 466 s invert;
#X obj 788 342 tgl 15 0 empty empty empty 17 7 0 10 -262144 -1 -1 0
1;
#X obj 779 419 spigot;
#X obj 818 218 + 1;
#X obj 775 218 f 0;
#X floatatom 871 303 5 0 0 0 - - -;
#X obj 802 241 % 40;
#X obj 873 332 select 0;
#X obj 737 89 < -10;
#X msg 114 371 -1.5;
#X obj 587 568 f 0;
#X obj 646 568 + 1;
#X obj 593 621 % 3;
#X obj 749 650 + 2;
#X obj 733 611 random 3;
#X obj 597 677 sel 0;
#X floatatom 526 663 5 0 0 0 - - -;
#X obj 593 733 s new-area;
#X text 389 536 chance of entering new area;
#X obj 431 402 js javascripts/variance.js;
#X msg 452 360 compile;
#X floatatom 435 467 5 0 0 0 - - -;
#X obj 424 375 f;
#X obj 758 129 sel 0;
#X obj 496 492 sel 1;
#X text 520 67 increased chance of ignoring the improviser if sitting
at boundaries;
#X text 410 331 alternatively if variance is too low;
#X obj 489 452 < 10;
#X obj 790 473 s randomize-settings;
#X obj 205 484 min 120;
#X obj 205 456 max -20;
#X obj 904 579 s flip-ring;
#X obj 856 148 sel 1;
#X obj 865 178 s trigger-bitcrush;
#X connect 0 0 3 0;
#X connect 0 0 4 0;
#X connect 0 0 13 0;
#X connect 0 0 34 0;
#X connect 0 0 48 1;
#X connect 1 0 0 0;
#X connect 1 0 28 0;
#X connect 1 1 3 1;
#X connect 2 0 0 0;
#X connect 3 0 56 0;
#X connect 5 0 6 0;
#X connect 6 0 18 0;
#X connect 7 0 9 0;
#X connect 8 0 9 1;
#X connect 9 0 8 0;
#X connect 9 0 11 0;
#X connect 10 0 12 0;
#X connect 11 0 10 0;
#X connect 12 0 24 0;
#X connect 12 0 36 0;
#X connect 12 0 54 0;
#X connect 13 0 14 0;
#X connect 14 0 7 0;
#X connect 15 0 6 1;
#X connect 16 0 15 0;
#X connect 17 0 19 0;
#X connect 18 0 21 0;
#X connect 19 0 18 1;
#X connect 20 0 22 0;
#X connect 21 0 1 0;
#X connect 22 0 35 0;
#X connect 22 1 23 0;
#X connect 23 0 21 1;
#X connect 24 0 26 0;
#X connect 24 0 27 0;
#X connect 25 0 27 0;
#X connect 25 0 26 0;
#X connect 27 0 28 1;
#X connect 28 0 30 0;
#X connect 29 0 30 1;
#X connect 30 0 29 0;
#X connect 30 0 32 0;
#X connect 31 0 33 0;
#X connect 32 0 31 0;
#X connect 33 0 25 0;
#X connect 33 0 57 0;
#X connect 34 0 14 0;
#X connect 34 0 49 0;
#X connect 34 0 58 0;
#X connect 35 0 21 1;
#X connect 36 0 37 0;
#X connect 36 0 38 0;
#X connect 37 0 36 1;
#X connect 38 0 41 0;
#X connect 38 0 42 0;
#X connect 39 0 38 1;
#X connect 40 0 39 0;
#X connect 41 0 40 0;
#X connect 41 0 43 0;
#X connect 45 0 47 0;
#X connect 46 0 45 0;
#X connect 47 0 53 0;
#X connect 48 0 45 0;
#X connect 49 0 48 0;
#X connect 50 0 7 0;
#X connect 53 0 50 0;
#X connect 55 0 2 0;
#X connect 56 0 55 0;
#X connect 58 0 59 0;
#X restore 283 620 pd playhead-influence;
#N canvas 1714 142 483 583 rate-influence 0;
#X obj 151 151 max 0;
#X obj 151 179 min 100;
#X obj 98 226 hsl 128 15 -20 120 0 0 empty empty empty -2 -8 0 10 -262144
-1 -1 1814 1;
#X msg 151 203 set \$1;
#X obj 30 78 t b f;
#X obj 154 114 +;
#X obj 51 265 outlet;
#X obj 20 9 inlet;
#X obj 111 21 inlet;
#X msg 34 40 2;
#X obj 68 45 * -0.08;
#X connect 0 0 1 0;
#X connect 1 0 3 0;
#X connect 2 0 5 0;
#X connect 2 0 6 0;
#X connect 3 0 2 0;
#X connect 4 0 2 0;
#X connect 4 1 5 1;
#X connect 5 0 0 0;
#X connect 7 0 9 0;
#X connect 8 0 10 0;
#X connect 9 0 4 0;
#X connect 10 0 4 0;
#X restore 468 629 pd rate-influence;
#N canvas 1581 116 979 847 melody-influence 0;
#X obj 110 331 hsl 128 15 0 3.99 0 0 empty empty empty -2 -8 0 10 -262144
-1 -1 0 1;
#X msg 163 308 set \$1;
#X obj 56 223 t b f;
#X obj 166 219 +;
#X obj 63 370 outlet;
#X obj 20 9 inlet;
#X obj 104 28 inlet;
#X obj 51 332 int;
#X obj 163 257 max 0;
#X obj 163 284 min 3.99;
#X obj 33 83 -;
#X floatatom 33 107 5 0 0 0 - - -;
#X obj 40 158 f;
#X obj 112 98 abs;
#X obj 116 141 > 0.2;
#X obj 40 132 t f f;
#X obj 113 162 sel 1;
#X connect 0 0 7 0;
#X connect 0 0 3 0;
#X connect 1 0 0 0;
#X connect 2 0 0 0;
#X connect 2 1 3 1;
#X connect 3 0 8 0;
#X connect 5 0 10 0;
#X connect 6 0 10 1;
#X connect 7 0 4 0;
#X connect 8 0 9 0;
#X connect 9 0 1 0;
#X connect 10 0 11 0;
#X connect 11 0 15 0;
#X connect 12 0 2 0;
#X connect 13 0 14 0;
#X connect 14 0 16 0;
#X connect 15 0 13 0;
#X connect 15 1 12 1;
#X connect 16 0 12 0;
#X restore 616 629 pd melody-influence;
#N canvas 1580 290 980 932 trans-influence 0;
#X obj 94 388 hsl 128 15 -24 24 0 0 empty empty empty -2 -8 0 10 -262144
-1 -1 2381 1;
#X msg 147 365 set \$1;
#X obj 25 205 t b f;
#X obj 150 276 +;
#X obj 47 427 outlet;
#X obj 154 26 inlet;
#X floatatom 228 290 5 0 0 0 - - -;
#X obj 147 314 max -24;
#X obj 147 341 min 24;
#X floatatom 271 33 5 0 0 0 - - -;
#X text 229 124 difference between last two values;
#X obj 143 101 -;
#X obj 151 50 t f f;
#X obj 30 54 random 2;
#X obj 28 89 sel 1;
#X obj 38 159 *;
#X msg 28 126 1;
#X msg 66 129 -1;
#X obj 126 157 t f b;
#X obj 152 127 * 30;
#X obj 302 211 random 24;
#X obj 320 283 random 24;
#X obj 320 315 * -1;
#X obj 304 242 * 1;
#X obj 270 169 bng 15 250 50 0 empty empty empty 17 7 0 10 -262144
-1 -1;
#X obj 285 60 abs;
#X obj 286 87 > 1;
#X obj 250 104 sel 1;
#X connect 0 0 3 0;
#X connect 0 0 4 0;
#X connect 1 0 0 0;
#X connect 2 0 0 0;
#X connect 2 1 3 1;
#X connect 3 0 6 0;
#X connect 3 0 7 0;
#X connect 5 0 12 0;
#X connect 7 0 8 0;
#X connect 8 0 1 0;
#X connect 9 0 25 0;
#X connect 11 0 9 0;
#X connect 11 0 19 0;
#X connect 12 0 11 1;
#X connect 12 1 11 0;
#X connect 13 0 14 0;
#X connect 14 0 16 0;
#X connect 14 1 17 0;
#X connect 15 0 2 0;
#X connect 16 0 15 1;
#X connect 17 0 15 1;
#X connect 18 0 15 0;
#X connect 18 1 13 0;
#X connect 19 0 18 0;
#X connect 20 0 23 0;
#X connect 21 0 22 0;
#X connect 22 0 7 1;
#X connect 23 0 8 1;
#X connect 24 0 20 0;
#X connect 24 0 21 0;
#X connect 25 0 26 0;
#X connect 26 0 27 0;
#X connect 27 0 24 0;
#X restore 810 627 pd trans-influence;
#X floatatom 418 463 5 0 0 0 - - -;
#X obj 107 429 env~ 16384 8192;
#X floatatom 107 516 5 0 0 0 - - -;
#X text 414 490 env \, brightness \, power \, harmonicity \, inharmonicity
\, spectral flatness;
#X obj 107 492 expr $f1 - 55;
#X obj 139 766 env~ 16384 8192;
#X obj 137 743 hip~ 1000;
#X obj 137 787 expr $f1 - 50;
#X obj 663 786 hsl 128 15 0 100 0 0 empty empty spread -2 -8 0 10 -262144
-1 -1 12700 1;
#X obj 718 834 hsl 128 15 0 100 0 0 empty empty center -2 -8 0 10 -262144
-1 -1 0 1;
#X obj 112 863 metro 100;
#N canvas 951 493 610 533 pan-control 0;
#X obj 102 153 t b b b b b b b b b;
#X obj 164 219 f;
#X obj 222 221 + 1;
#X obj 177 313 expr ($f1 - 3.5) * $f2 / 8 + $f3;
#X obj 325 195 f;
#X obj 376 146 t b b f;
#X obj 251 115 t b f;
#X msg 79 221 0;
#X obj 177 359 mod 100;
#X obj 138 292 t f f;
#X obj 152 411 pack f f;
#X obj 278 41 inlet;
#X obj 495 49 inlet;
#X obj 227 456 outlet;
#X msg 131 76 100;
#X obj 117 48 loadbang;
#X obj 492 97 loadbang;
#X msg 506 125 0;
#X connect 0 0 7 0;
#X connect 0 1 1 0;
#X connect 0 2 1 0;
#X connect 0 3 1 0;
#X connect 0 4 1 0;
#X connect 0 5 1 0;
#X connect 0 6 1 0;
#X connect 0 7 1 0;
#X connect 0 8 1 0;
#X connect 1 0 2 0;
#X connect 1 0 9 0;
#X connect 2 0 1 1;
#X connect 3 0 8 0;
#X connect 4 0 3 1;
#X connect 5 0 0 0;
#X connect 5 1 4 0;
#X connect 5 2 3 2;
#X connect 6 0 0 0;
#X connect 6 1 4 0;
#X connect 7 0 1 1;
#X connect 8 0 10 1;
#X connect 9 0 10 0;
#X connect 9 1 3 0;
#X connect 10 0 13 0;
#X connect 11 0 6 0;
#X connect 11 0 4 0;
#X connect 12 0 5 0;
#X connect 14 0 6 0;
#X connect 15 0 14 0;
#X connect 16 0 17 0;
#X connect 17 0 5 0;
#X restore 593 871 pd pan-control;
#X msg 333 1014 all \$1;
#X obj 36 1013 loadbang;
#N canvas 89 120 637 307 density 0;
#X obj 131 64 t b b;
#X msg 73 125 next \$1;
#X msg 154 124 next \$1;
#X obj 68 91 f;
#X obj 155 94 f;
#X obj 62 39 inlet;
#X obj 199 40 inlet;
#X obj 115 190 outlet;
#X connect 0 0 3 0;
#X connect 0 1 4 0;
#X connect 1 0 7 0;
#X connect 2 0 7 0;
#X connect 3 0 1 0;
#X connect 4 0 2 0;
#X connect 5 0 0 0;
#X connect 6 0 4 1;
#X connect 6 0 3 1;
#X restore 180 1052 pd density;
#X obj 85 1118 vsl 15 128 40 500 0 0 empty empty duration 0 -9 0 10
-262144 -1 -1 11320 1;
#X msg 651 935 all 0;
#N canvas 385 647 450 262 trans 0;
#X obj 216 70 r trans;
#X msg 102 170 1 \$1;
#X msg 143 71 12;
#X obj 177 143 * 2;
#X obj 292 137 * 2;
#X obj 187 219 outlet;
#X msg 169 170 3 \$1;
#X msg 227 171 5 \$1;
#X msg 300 171 7 \$1;
#X connect 0 0 4 0;
#X connect 0 0 3 0;
#X connect 1 0 5 0;
#X connect 2 0 1 0;
#X connect 2 0 7 0;
#X connect 2 0 3 0;
#X connect 2 0 4 0;
#X connect 3 0 6 0;
#X connect 4 0 8 0;
#X connect 6 0 5 0;
#X connect 7 0 5 0;
#X connect 8 0 5 0;
#X restore 684 1038 pd trans;
#N canvas 215 258 945 542 melody 0;
#X obj 103 66 inlet;
#X obj 111 166 outlet;
#X obj 278 116 tabread melody;
#X obj 347 148 - 7;
#X floatatom 344 182 5 0 0 0 - - -;
#X obj 221 80 f 0;
#X obj 258 80 + 1;
#X obj 236 118 % 6;
#X connect 0 0 5 0;
#X connect 2 0 3 0;
#X connect 3 0 4 0;
#X connect 4 0 1 0;
#X connect 5 0 6 0;
#X connect 5 0 7 0;
#X connect 6 0 5 1;
#X connect 7 0 2 0;
#X restore 305 952 pd melody;
#N canvas 780 337 637 413 rate 0;
#X obj 278 153 js javascripts/random.js 0 100;
#X obj 240 120 f;
#X obj 265 84 r rate;
#X obj 275 181 * 3;
#X obj 125 62 inlet;
#X obj 149 259 outlet;
#X connect 0 0 3 0;
#X connect 1 0 0 0;
#X connect 2 0 1 1;
#X connect 3 0 5 0;
#X connect 4 0 1 0;
#X restore 189 862 pd rate;
#X obj 27 691 r onoff;
#X obj 444 902 loadbang;
#X obj 378 531 metro 150;
#X obj 1192 390 bng 15 250 50 0 empty empty empty 17 7 0 10 -262144
-1 -1;
#X obj 438 87 vsl 15 128 -20 30 0 0 empty empty amplitude 0 -9 0 10
-204800 -1 -1 10665 1;
#X obj 228 508 r onoff;
#X obj 756 69 vsl 15 128 0 1 0 0 empty empty playhead 0 -9 0 10 -262144
-1 -1 762 1;
#X obj 1217 97 vsl 15 128 0 127 0 0 empty empty rate 0 -9 0 10 -262144
-1 -1 5800 1;
#X obj 1386 102 vsl 15 128 0 127 0 0 empty empty trans 0 -9 0 10 -262144
-1 -1 6600 1;
#X obj 753 236 s playhead-sens;
#X obj 897 73 vsl 15 128 0 1 0 0 empty empty playhead 0 -9 0 10 -262144
-1 -1 6604 1;
#X obj 883 227 s playhead-bias;
#X obj 328 135 tgl 60 0 empty empty INVERT 17 7 0 10 -262144 -1 -1
0 1;
#X obj 329 93 r invert;
#N canvas 2032 510 450 300 randomize-settings 0;
#X obj 84 137 random 100;
#X obj 75 175 / 100;
#X obj 182 135 random 100;
#X obj 183 174 / 100;
#X obj 70 48 inlet;
#X obj 56 228 s playhead-sens-rand;
#X obj 228 228 s playhead-bias-rand;
#X connect 0 0 1 0;
#X connect 1 0 5 0;
#X connect 2 0 3 0;
#X connect 3 0 6 0;
#X connect 4 0 0 0;
#X connect 4 0 2 0;
#X restore 1024 452 pd randomize-settings;
#X obj 761 21 r playhead-sens-rand;
#X obj 921 24 r playhead-bias-rand;
#N canvas 0 23 450 300 path 0;
#X obj 34 35 declare -path /abstractions;
#X obj 38 71 declare -path /tests;
#X obj 47 108 declare -path /javascripts;
#X restore 658 48 pd path;
#N canvas 0 23 383 217 tables 0;
#X obj 51 94 table array1 441000;
#X obj 63 34 table hanning 22050;
#X obj 206 37 table melody;
#X obj 56 137 table array2 441000;
#X obj 48 185 table array3 441000;
#X obj 58 228 table array4 441000;
#X restore 1488 493 pd tables;
#N canvas 171 321 1938 849 samples 0;
#X obj 514 698 soundfiler;
#X floatatom 620 739 5 0 0 0 - - -;
#X obj 711 713 soundfiler;
#X floatatom 817 754 5 0 0 0 - - -;
#X obj 360 91 loadbang;
#X msg 514 672 read -resize \$1 array1;
#X msg 711 683 read -resize \$1 array2;
#X obj 482 749 s arrayLen-array1;
#X obj 709 758 s arrayLen-array2;
#X msg 19 407 symbol samples/dua-bowing-1-norm.wav;
#X msg 308 411 symbol samples/chain-norm.wav;
#X msg 560 412 symbol samples/weights-norm.wav;
#X msg 800 415 symbol samples/guitar-norm.wav;
#X obj 511 248 f;
#X obj 494 125 t b f b f, f 26;
#X obj 572 186 ==;
#X obj 572 157 f;
#X obj 488 191 f;
#X obj 487 215 sel 0;
#X obj 568 217 sel 1;
#X obj 518 57 t b b;
#X obj 460 555 spigot;
#X obj 562 559 spigot;
#X obj 490 510 tgl 15 0 empty empty empty 17 7 0 10 -262144 -1 -1 0
1;
#X obj 608 503 tgl 15 0 empty empty empty 17 7 0 10 -262144 -1 -1 1
1;
#X obj 650 504 loadbang;
#X obj 436 477 t s b;
#X msg 1032 416 symbol samples/whistle-1-norm.wav;
#X obj 220 33 inlet;
#X obj 638 269 sel 0 1 2 3 4 5 6 7 8, f 119;
#X obj 513 92 random 9;
#X msg 978 355 symbol samples/pump.wav;
#X msg 1230 356 symbol samples/nylon.wav;
#X msg 1470 359 symbol samples/bike.wav;
#X msg 1702 360 symbol samples/cart.wav;
#X connect 0 0 1 0;
#X connect 0 0 7 0;
#X connect 2 0 3 0;
#X connect 2 0 8 0;
#X connect 4 0 20 0;
#X connect 5 0 0 0;
#X connect 6 0 2 0;
#X connect 9 0 26 0;
#X connect 10 0 26 0;
#X connect 11 0 26 0;
#X connect 12 0 26 0;
#X connect 13 0 29 0;
#X connect 14 0 17 0;
#X connect 14 1 16 1;
#X connect 14 2 16 0;
#X connect 14 3 13 1;
#X connect 14 3 15 1;
#X connect 15 0 17 1;
#X connect 16 0 15 0;
#X connect 17 0 18 0;
#X connect 17 0 19 0;
#X connect 18 0 13 0;
#X connect 19 0 30 0;
#X connect 20 0 30 0;
#X connect 20 1 30 0;
#X connect 21 0 5 0;
#X connect 22 0 6 0;
#X connect 23 0 21 1;
#X connect 24 0 22 1;
#X connect 25 0 24 0;
#X connect 26 0 21 0;
#X connect 26 0 22 0;
#X connect 26 1 24 0;
#X connect 26 1 23 0;
#X connect 27 0 26 0;
#X connect 28 0 20 0;
#X connect 29 0 9 0;
#X connect 29 1 10 0;
#X connect 29 2 11 0;
#X connect 29 3 12 0;
#X connect 29 4 27 0;
#X connect 29 5 31 0;
#X connect 29 6 32 0;
#X connect 29 7 33 0;
#X connect 29 8 34 0;
#X connect 30 0 14 0;
#X connect 31 0 26 0;
#X connect 32 0 26 0;
#X connect 33 0 26 0;
#X connect 34 0 26 0;
#X restore 1293 436 pd samples;
#X floatatom 298 757 5 0 0 0 - - -;
#X obj 573 760 loadbang;
#X msg 578 783 100;
#X obj 1152 25 r rate-sens-rand;
#X obj 1173 277 s rate-sens-rand;
#X obj 1416 37 r trans-sens-rand;
#X obj 1435 250 s trans-sens-rand;
#X obj 1177 343 r new-area;
#X obj 974 340 r randomize-settings;
#X obj 1012 412 bng 15 250 50 0 empty empty empty 17 7 0 10 -262144
-1 -1;
#X text 1018 511 this should be triggered by low variance;
#X msg 843 1047 \$1 50;
#X obj 156 158 vsl 30 128 0 1 0 0 empty empty master-vol 0 -9 0 10
-262144 -1 -1 4010 1;
#X obj 58 153 loadbang;
#X obj 97 298 s vol;
#X obj 848 1010 r vol;
#X obj 74 640 s duration;
#X obj 90 1070 r duration;
#X msg 66 221 0.3;
#X msg 412 953 all 100;
#X msg 46 1041 450;
#X obj 895 353 loadbang;
#X obj 46 815 &&;
#X msg 63 759 0;
#X obj 41 863 tgl 15 0 empty empty empty 17 7 0 10 -262144 -1 -1 1
1;
#X msg 97 761 1;
#X msg 15 760 1;
#X obj 37 726 sel 1 0;
#X obj 92 792 t b f;
#X obj 109 686 r onset;
#X obj 222 425 s onset;
#X obj 250 54 r onset;
#X obj 414 1170 abstractions/2ch-instrument;
#X text 980 145 add a master vol control;
#X obj 423 1289 dac~ 1 2, f 26;
#X obj 427 1200 *~;
#X obj 568 1202 *~;
#N canvas 949 176 978 765 ringmod 1;
#X obj 101 37 inlet;
#X obj 213 681 outlet~;
#X obj 213 549 osc~ 20;
#X obj 249 462 vline~;
#X obj 228 504 mtof~;
#X obj 271 204 delay 1000;
#X obj 263 240 f;
#X obj 192 199 t f b f;
#X msg 288 273 \$1 20;
#X obj 192 103 random 40;
#X obj 192 126 + 20;
#X obj 230 306 - 20;
#X obj 179 339 pack f f;
#X msg 167 433 \$1 0 \, \$2 1000;
#X obj 153 250 t f b;
#X obj 191 282 random 40;
#X obj 326 546 sig~ 1;
#X obj 214 638 +~;
#X obj 211 618 *~;
#X obj 332 582 *~;
#X obj 280 574 tgl 15 0 empty empty empty 17 7 0 10 -262144 -1 -1 1
1;
#X obj 402 574 tgl 15 0 empty empty empty 17 7 0 10 -262144 -1 -1 0
1;
#X msg 451 540 1;
#X msg 286 526 0;
#X obj 442 477 loadbang;
#X obj 416 235 r flip-ring;
#X obj 416 301 f 0;
#X obj 460 300 + 1;
#X floatatom 537 345 5 0 0 0 - - -;
#X obj 194 572 *~ 1.5;
#X msg 335 442 1;
#X msg 385 462 0;
#X obj 419 328 % 3;
#X floatatom 482 361 5 0 0 0 - - -;
#X obj 538 252 bng 15 250 50 0 empty empty empty 17 7 0 10 -262144
-1 -1;
#X obj 456 427 bng 15 250 50 0 empty empty empty 17 7 0 10 -262144
-1 -1;
#X obj 386 364 sel 0;
#X obj 411 393 t b;
#X connect 0 0 9 0;
#X connect 2 0 29 0;
#X connect 3 0 4 0;
#X connect 4 0 2 0;
#X connect 5 0 6 0;
#X connect 6 0 14 0;
#X connect 7 0 8 0;
#X connect 7 1 5 0;
#X connect 7 2 6 1;
#X connect 8 0 3 0;
#X connect 9 0 10 0;
#X connect 10 0 7 0;
#X connect 11 0 12 1;
#X connect 12 0 13 0;
#X connect 13 0 3 0;
#X connect 14 0 12 0;
#X connect 14 1 15 0;
#X connect 15 0 11 0;
#X connect 16 0 19 0;
#X connect 17 0 1 0;
#X connect 18 0 17 0;
#X connect 19 0 17 1;
#X connect 20 0 18 1;
#X connect 21 0 19 1;
#X connect 22 0 21 0;
#X connect 23 0 20 0;
#X connect 24 0 23 0;
#X connect 24 0 22 0;
#X connect 25 0 26 0;
#X connect 26 0 27 0;
#X connect 26 0 28 0;
#X connect 26 0 32 0;
#X connect 27 0 26 1;
#X connect 29 0 18 0;
#X connect 30 0 20 0;
#X connect 31 0 21 0;
#X connect 32 0 36 0;
#X connect 34 0 26 0;
#X connect 36 0 30 0;
#X connect 36 0 31 0;
#X connect 36 1 37 0;
#X connect 37 0 22 0;
#X connect 37 0 23 0;
#X restore 900 1152 pd ringmod;
#X obj 907 1114 r onset;
#X obj 1039 1086 bng 15 250 50 0 empty empty empty 17 7 0 10 -262144
-1 -1;
#N canvas 1156 580 853 626 bitcrush 0;
#X obj 64 351 inlet~;
#X obj 230 338 inlet~;
#X obj 61 574 outlet~;
#X obj 194 579 outlet~;
#X obj 34 420 abstractions/bitcrusher~;
#X obj 213 488 abstractions/bitcrusher~;
#X obj 443 502 *~;
#X obj 594 511 *~;
#X obj 352 306 line;
#X obj 340 336 int;
#X msg 333 250 32 0;
#X msg 399 241 8 2000;
#X msg 526 280 2 2000;
#X obj 337 51 bng 15 250 50 0 empty empty empty 17 7 0 10 -262144 -1
-1;
#X obj 394 194 t b b b;
#X obj 499 214 delay 2000;
#X msg 492 466 1;
#X obj 74 513 *~;
#X obj 225 522 *~;
#X msg 101 467 1;
#X msg 558 460 0;
#X msg 165 470 0;
#X obj 306 22 r trigger-bitcrush;
#X obj 468 49 f 0;
#X obj 529 48 + 1;
#X obj 442 140 sel 0;
#X floatatom 565 89 5 0 0 0 - - -;
#X obj 392 66 spigot;
#X obj 144 96 loadbang;
#X obj 350 92 tgl 15 0 empty empty empty 17 7 0 10 -262144 -1 -1 0
1;
#X msg 255 82 1;
#X msg 242 121 0;
#X obj 281 168 delay 3000;
#X obj 479 79 % 16;
#X obj 632 273 delay 4500;
#X connect 0 0 4 0;
#X connect 0 0 6 0;
#X connect 1 0 5 0;
#X connect 1 0 7 0;
#X connect 4 0 17 0;
#X connect 5 0 18 0;
#X connect 6 0 2 0;
#X connect 7 0 3 0;
#X connect 8 0 9 0;
#X connect 9 0 4 1;
#X connect 9 0 5 1;
#X connect 10 0 8 0;
#X connect 11 0 8 0;
#X connect 12 0 8 0;
#X connect 13 0 27 0;
#X connect 14 0 15 0;
#X connect 14 0 34 0;
#X connect 14 1 11 0;
#X connect 14 2 10 0;
#X connect 14 2 20 0;
#X connect 14 2 19 0;
#X connect 15 0 12 0;
#X connect 16 0 6 1;
#X connect 16 0 7 1;
#X connect 17 0 2 0;
#X connect 18 0 3 0;
#X connect 19 0 17 1;
#X connect 19 0 18 1;
#X connect 20 0 6 1;
#X connect 20 0 7 1;
#X connect 21 0 17 1;
#X connect 21 0 18 1;
#X connect 22 0 13 0;
#X connect 23 0 24 0;
#X connect 23 0 33 0;
#X connect 24 0 23 1;
#X connect 25 0 14 0;
#X connect 25 0 31 0;
#X connect 25 0 32 0;
#X connect 27 0 23 0;
#X connect 28 0 16 0;
#X connect 28 0 21 0;
#X connect 28 0 30 0;
#X connect 29 0 27 1;
#X connect 30 0 29 0;
#X connect 31 0 29 0;
#X connect 32 0 30 0;
#X connect 33 0 25 0;
#X connect 33 0 26 0;
#X connect 34 0 16 0;
#X connect 34 0 21 0;
#X restore 469 1241 pd bitcrush;
#X text 729 1228 MAKE BITCRUSH CROSSFADE IN;
#X connect 0 0 2 0;
#X connect 3 0 5 0;
#X connect 7 0 6 0;
#X connect 9 0 8 0;
#X connect 10 0 12 0;
#X connect 10 0 29 0;
#X connect 10 0 34 0;
#X connect 11 0 17 0;
#X connect 12 0 98 0;
#X connect 12 1 21 0;
#X connect 12 2 11 0;
#X connect 12 3 13 0;
#X connect 12 4 14 0;
#X connect 13 0 18 0;
#X connect 14 0 19 0;
#X connect 15 0 27 0;
#X connect 17 0 25 1;
#X connect 18 0 26 0;
#X connect 19 0 26 1;
#X connect 20 0 50 0;
#X connect 21 0 15 0;
#X connect 22 0 23 0;
#X connect 24 0 9 0;
#X connect 25 0 3 0;
#X connect 26 0 7 0;
#X connect 27 0 0 0;
#X connect 29 0 32 0;
#X connect 32 0 30 0;
#X connect 33 0 35 0;
#X connect 34 0 33 0;
#X connect 35 0 52 0;
#X connect 35 0 68 0;
#X connect 36 0 39 0;
#X connect 37 0 39 1;
#X connect 38 0 42 0;
#X connect 38 0 46 0;
#X connect 38 0 47 0;
#X connect 39 0 100 3;
#X connect 40 0 100 1;
#X connect 41 0 88 0;
#X connect 42 0 100 0;
#X connect 43 0 42 1;
#X connect 44 0 100 4;
#X connect 45 0 100 4;
#X connect 46 0 40 0;
#X connect 47 0 38 1;
#X connect 48 0 95 0;
#X connect 49 0 87 0;
#X connect 49 0 44 0;
#X connect 50 0 25 0;
#X connect 51 0 67 0;
#X connect 52 0 24 0;
#X connect 53 0 20 0;
#X connect 54 0 57 0;
#X connect 55 0 72 0;
#X connect 56 0 74 0;
#X connect 58 0 59 0;
#X connect 61 0 60 0;
#X connect 63 0 54 0;
#X connect 64 0 58 0;
#X connect 69 0 70 0;
#X connect 70 0 36 0;
#X connect 71 0 55 0;
#X connect 73 0 56 0;
#X connect 75 0 51 0;
#X connect 76 0 77 0;
#X connect 77 0 62 0;
#X connect 79 0 100 5;
#X connect 80 0 82 0;
#X connect 81 0 86 0;
#X connect 83 0 79 0;
#X connect 85 0 43 0;
#X connect 86 0 80 0;
#X connect 87 0 100 2;
#X connect 88 0 43 0;
#X connect 89 0 77 0;
#X connect 89 0 51 0;
#X connect 90 0 92 0;
#X connect 91 0 90 1;
#X connect 91 0 90 0;
#X connect 92 0 38 0;
#X connect 93 0 96 0;
#X connect 94 0 90 0;
#X connect 95 0 94 0;
#X connect 95 1 91 0;
#X connect 95 2 93 0;
#X connect 96 0 94 0;
#X connect 96 1 90 1;
#X connect 97 0 93 0;
#X connect 99 0 16 0;
#X connect 100 0 103 0;
#X connect 100 1 104 0;
#X connect 103 0 108 0;
#X connect 104 0 108 1;
#X connect 105 0 103 1;
#X connect 105 0 104 1;
#X connect 106 0 105 0;
#X connect 107 0 105 0;
#X connect 108 0 102 0;
#X connect 108 1 102 1;
