#N canvas 915 130 1487 1315 12;
#X declare -lib timbreID/timbreIDLib;
#X msg 705 100 read -resize \$1 array1;
#X obj 705 130 soundfiler;
#X obj 703 74 openpanel;
#X obj 702 49 bng 15 250 50 0 empty empty empty 17 7 0 10 #fcfcfc #000000
#000000;
#X obj 926 29 table array1 441000;
#X obj 883 90 table hanning 22050;
#N canvas 0 23 2560 1315 sampler 0;
#X obj 311 95 inlet;
#X obj 361 95 inlet;
#X obj 301 630 tabread4~ array1;
#X floatatom 354 263 5 0 0 0 - - - 0;
#X msg 612 184 60;
#X obj 301 603 line~;
#X obj 367 445 /;
#N canvas 6286 258 1526 1632 pitch_to_rate 0;
#X obj 27 39 expr ($f1 - 60) / 12;
#X obj 67 114 pow;
#X msg 36 72 2;
#X obj 109 80 t b f;
#X obj 25 14 inlet;
#X obj 29 222 outlet;
#X connect 0 0 3 0;
#X connect 1 0 5 0;
#X connect 2 0 1 0;
#X connect 3 0 2 0;
#X connect 3 1 1 1;
#X connect 4 0 0 0;
#X restore 672 421 pd pitch_to_rate;
#X text 555 188 pitch;
#X obj 303 223 bng 15 250 50 0 empty empty empty 17 7 0 10 #fcfcfc
#000000 #000000;
#X msg 654 182 72;
#X msg 96 327 0;
#X text 80 231 start time;
#X obj 133 381 *;
#X obj 289 505 pack f f f;
#X text 369 505 start time \, end time \, period;
#X msg 297 572 \$1 0 \, \$2 \$3;
#X obj 361 303 expr 1000 * ($f2 - $f1) / 44100;
#X floatatom 512 379 5 0 0 0 - - - 0;
#X obj 259 432 t f f;
#X msg 148 326 0.25;
#X obj 212 194 bng 60 250 50 0 empty empty empty 17 7 0 10 #fcfcfc
#000000 #000000;
#X obj 777 149 bng 60 250 50 0 empty empty empty 17 7 0 10 #fcfcfc
#000000 #000000;
#X text 159 220 play;
#X obj 172 411 f;
#X text 726 151 stop;
#X obj 303 700 *~;
#X obj 421 714 line~;
#X msg 414 681 1 5;
#X msg 572 644 0 \$1;
#X text 715 505 decay time;
#X floatatom 702 538 5 0 0 0 - - - 0;
#X obj 603 591 f;
#X obj 448 175 r sampleLen;
#X obj 84 290 loadbang;
#X obj 612 148 loadbang;
#X obj 1005 113 expr 1000 * $f1 / 44100;
#X obj 865 465 del;
#X obj 892 104 f;
#X text 932 79 get a random sample of this length;
#X obj 1006 214 -;
#X obj 1017 176 f;
#X obj 902 143 t b b f;
#X obj 979 385 /;
#X obj 962 465 print;
#X obj 898 249 t b b;
#X obj 735 594 -;
#X obj 812 512 f;
#X obj 785 559 t b f;
#X floatatom 725 664 5 0 0 0 - - - 0;
#X obj 233 90 inlet;
#X floatatom 865 43 5 0 0 0 - - - 0;
#X floatatom 1085 448 5 0 0 0 - - - 0;
#X obj 1136 322 print rand;
#X obj 1063 561 js javascripts/random.js 0 100;
#X obj 1042 603 / 100;
#X floatatom 1168 619 5 0 0 0 - - - 0;
#X floatatom 1070 523 5 0 0 0 - - - 0;
#X text 1115 524 position in soundfile;
#X obj 1054 489 bng 15 250 50 0 empty empty empty 17 7 0 10 #fcfcfc
#000000 #000000;
#X obj 980 654 *;
#X obj 983 532 t f b;
#X floatatom 972 717 5 0 0 0 - - - 0;
#X obj 1158 484 r position;
#N canvas 527 337 1070 719 rand-pan 0;
#X obj 14 55 inlet~;
#X obj 111 10 inlet;
#X obj 110 173 *~ 0.25;
#X obj 220 173 tgl 15 0 empty empty empty 17 7 0 10 #fcfcfc #000000
#000000 0 1;
#X obj 109 139 *~;
#X obj 377 210 cnv 15 118 17 empty empty empty 20 12 0 14 #fc8000 #404040
0;
#N canvas 561 87 972 897 control-messages 0;
#X obj 70 439 outlet;
#X floatatom 70 12 5 -1 1 0 - - - 0;
#X msg 70 56 speaker-1 \$1 \$2;
#X obj 70 35 pack 0 0;
#X floatatom 115 12 5 -1 1 0 - - - 0;
#X text 140 33 speaker position x \, y (-1 \, 1);
#X msg 93 90 speaker-2 \$1 \$2;
#X msg 94 110 speaker-3 \$1 \$2;
#X msg 94 130 speaker-4 \$1 \$2;
#X msg 94 150 speaker-5 \$1 \$2;
#X msg 94 170 speaker-6 \$1 \$2;
#X msg 94 190 speaker-7 \$1 \$2;
#X msg 94 210 speaker-8 \$1 \$2;
#X msg 146 283 cos;
#X msg 147 311 sqrt;
#X text 145 255 panning laws:;
#X text 176 282 sine/cosine;
#X text 182 310 square root;
#X msg 144 350 preset 0;
#X msg 144 373 preset 1;
#X text 207 349 8-ch. circle stereo pairs;
#X text 207 372 8-ch. circle center speaker;
#X obj 144 414 cnv 16 87 16 empty empty empty 20 12 0 14 #fc8000 #404040
0;
#N canvas 864 246 825 473 save&recall 0;
#X obj 93 233 outlet;
#X msg 93 60 0;
#X msg 125 60 1;
#X msg 158 60 2;
#X msg 93 99 save \$1;
#X text 185 63 ...;
#X msg 207 60 20;
#X msg 149 154 0;
#X msg 181 154 1;
#X msg 214 154 2;
#X text 241 157 ...;
#X msg 263 154 20;
#X msg 149 193 recall \$1;
#X text 249 93 save & recall up to 20 presets \, presets will be saved
with the parrent patch;
#X obj 340 36 loadbang;
#X connect 1 0 4 0;
#X connect 2 0 4 0;
#X connect 3 0 4 0;
#X connect 4 0 0 0;
#X connect 6 0 4 0;
#X connect 7 0 12 0;
#X connect 8 0 12 0;
#X connect 9 0 12 0;
#X connect 11 0 12 0;
#X connect 12 0 0 0;
#X connect 14 0 7 0;
#X restore 144 413 pd save&recall;
#X connect 1 0 3 0;
#X connect 2 0 0 0;
#X connect 3 0 2 0;
#X connect 4 0 3 1;
#X connect 13 0 0 0;
#X connect 14 0 0 0;
#X connect 18 0 0 0;
#X connect 19 0 0 0;
#X connect 23 0 0 0;
#X restore 377 210 pd control-messages;
#X obj 259 108 hsl 100 12 -1 1 0 0 empty empty empty -2 -8 0 10 #fcfcfc
#000000 #000000 0 1;
#X floatatom 256 172 5 0 0 0 - - - 0;
#X obj 256 192 sig~;
#X obj 303 64 vsl 12 100 -1 1 0 0 empty empty empty 0 -9 0 10 #fcfcfc
#000000 #000000 0 1;
#X floatatom 302 172 5 0 0 0 - - - 0;
#X obj 302 192 sig~;
#X text 263 154 x;
#X text 321 155 y;
#X floatatom 344 175 5 -1 1 0 - - - 0;
#X obj 344 193 sig~;
#X text 380 172 spatial spread (-1 \, 1);
#X obj 229 233 pp.spat8~;
#X text 390 239 <-- click to open GUI \, switch to editmode to change
loudspeaker positions;
#X obj 212 127 r onoff;
#N canvas 46 50 811 575 new-pos 0;
#X obj 36 46 random 100;
#X obj 36 70 - 50;
#X obj 36 94 / 50;
#X obj 36 181 outlet;
#X obj 33 14 inlet;
#X floatatom 122 191 5 0 0 0 - - - 0;
#X obj 157 38 bng 15 250 50 0 empty empty empty 17 7 0 10 #fcfcfc #000000
#000000;
#X obj 36 141 line 0 100;
#X msg 36 117 \$1 2000;
#X connect 0 0 1 0;
#X connect 1 0 2 0;
#X connect 2 0 8 0;
#X connect 4 0 0 0;
#X connect 6 0 0 0;
#X connect 7 0 3 0;
#X connect 7 0 5 0;
#X connect 8 0 7 0;
#X restore 172 67 pd new-pos;
#X obj 203 39 bng 15 250 50 0 empty empty empty 17 7 0 10 #fcfcfc #000000
#000000;
#N canvas 46 50 811 575 new-pos 0;
#X obj 36 46 random 100;
#X obj 36 70 - 50;
#X obj 36 94 / 50;
#X obj 36 181 outlet;
#X obj 33 14 inlet;
#X floatatom 122 191 5 0 0 0 - - - 0;
#X obj 157 38 bng 15 250 50 0 empty empty empty 17 7 0 10 #fcfcfc #000000
#000000;
#X obj 36 141 line 0 100;
#X msg 36 117 \$1 2000;
#X connect 0 0 1 0;
#X connect 1 0 2 0;
#X connect 2 0 8 0;
#X connect 4 0 0 0;
#X connect 6 0 0 0;
#X connect 7 0 3 0;
#X connect 7 0 5 0;
#X connect 8 0 7 0;
#X restore 253 69 pd new-pos;
#X obj 138 308 throw~ out1;
#X obj 427 306 throw~ out7;
#X obj 135 283 throw~ out2;
#X obj 233 303 throw~ out3;
#X obj 426 281 throw~ out8;
#X obj 326 280 throw~ out6;
#X obj 334 306 throw~ out5;
#X obj 234 282 throw~ out4;
#X connect 0 0 4 0;
#X connect 1 0 22 0;
#X connect 2 0 18 0;
#X connect 3 0 4 1;
#X connect 4 0 2 0;
#X connect 6 0 18 4;
#X connect 7 0 8 0;
#X connect 8 0 9 0;
#X connect 9 0 18 1;
#X connect 10 0 11 0;
#X connect 11 0 12 0;
#X connect 12 0 18 2;
#X connect 15 0 16 0;
#X connect 16 0 18 3;
#X connect 18 0 24 0;
#X connect 18 1 26 0;
#X connect 18 2 27 0;
#X connect 18 3 31 0;
#X connect 18 4 30 0;
#X connect 18 5 29 0;
#X connect 18 6 25 0;
#X connect 18 7 28 0;
#X connect 20 0 3 0;
#X connect 21 0 7 0;
#X connect 22 0 21 0;
#X connect 22 0 23 0;
#X connect 23 0 10 0;
#X restore 393 765 pd rand-pan;
#X obj 528 728 r rand-pan-all;
#X connect 0 0 7 0;
#X connect 1 0 31 0;
#X connect 2 0 26 0;
#X connect 3 0 13 1;
#X connect 3 0 14 1;
#X connect 3 0 17 1;
#X connect 4 0 7 0;
#X connect 5 0 2 0;
#X connect 6 0 14 2;
#X connect 7 0 6 1;
#X connect 9 0 3 0;
#X connect 10 0 7 0;
#X connect 11 0 13 0;
#X connect 13 0 24 1;
#X connect 14 0 16 0;
#X connect 16 0 5 0;
#X connect 17 0 18 0;
#X connect 17 0 6 0;
#X connect 19 0 14 0;
#X connect 19 1 17 0;
#X connect 20 0 13 0;
#X connect 21 0 24 0;
#X connect 21 0 28 0;
#X connect 22 0 32 0;
#X connect 24 0 19 0;
#X connect 26 0 64 0;
#X connect 27 0 26 1;
#X connect 28 0 27 0;
#X connect 29 0 27 0;
#X connect 31 0 32 1;
#X connect 31 0 48 0;
#X connect 32 0 29 0;
#X connect 33 0 3 0;
#X connect 33 0 36 0;
#X connect 34 0 11 0;
#X connect 35 0 4 0;
#X connect 36 0 41 1;
#X connect 37 0 22 0;
#X connect 38 0 42 0;
#X connect 40 0 53 0;
#X connect 40 0 61 0;
#X connect 41 0 40 0;
#X connect 41 0 43 1;
#X connect 41 0 56 0;
#X connect 42 0 37 0;
#X connect 42 0 45 0;
#X connect 42 1 41 0;
#X connect 42 2 40 1;
#X connect 42 2 47 0;
#X connect 43 0 44 0;
#X connect 43 0 13 0;
#X connect 45 0 21 0;
#X connect 46 0 37 1;
#X connect 46 0 49 0;
#X connect 47 0 46 0;
#X connect 48 0 47 0;
#X connect 48 1 46 1;
#X connect 50 0 51 0;
#X connect 51 0 38 0;
#X connect 54 0 55 0;
#X connect 55 0 60 1;
#X connect 57 0 54 0;
#X connect 59 0 57 0;
#X connect 60 0 62 0;
#X connect 61 0 60 0;
#X connect 61 1 59 0;
#X connect 62 0 43 0;
#X connect 63 0 57 0;
#X connect 65 0 64 1;
#X restore 882 505 pd sampler;
#X f 26;
#X obj 703 175 s sampleLen;
#X text 889 724 play/length \, pitch \, decay;
#X obj 915 161 f 0;
#X obj 952 161 + 1;
#X obj 933 239 tabread melody;
#X obj 912 197 % 6;
#X obj 911 27 tgl 15 0 empty empty empty 17 7 0 10 #fcfcfc #000000
#000000 0 1;
#X floatatom 1015 319 5 0 0 0 - - - 0;
#X floatatom 1015 188 5 0 0 0 - - - 0;
#X obj 1026 93 table melody;
#X obj 837 137 metro 100;
#X obj 879 269 % 2;
#X obj 873 223 t f f;
#X obj 881 305 sel 0 1;
#X msg 1231 454 150;
#X obj 1002 271 - 7;
#X msg 1227 598 300;
#X obj 1252 159 bng 15 250 50 0 empty empty empty 17 7 0 10 #fcfcfc
#000000 #000000;
#X obj 1247 289 print;
#X msg 1368 132 compile;
#X obj 1253 230 js javascripts/random.js 0 100;
#X obj 1335 327 hsl 128 15 0 100 0 0 empty empty empty -2 -8 0 10 #fcfcfc
#000000 #000000 0 1;
#X msg 1037 451 9;
#X msg 1042 599 8;
#X obj 1274 383 * 3;
#X msg 872 452 270;
#X msg 877 599 500;
#X floatatom 736 370 5 0 0 0 - - - 0;
#X text 631 393 doubled transp;
#X obj 972 595 + 12;
#X obj 1293 593 + 24;
#X obj 740 401 s trans;
#X obj 1004 563 r trans;
#X obj 1331 558 r trans;
#X floatatom 419 396 5 0 0 0 - - - 0;
#X text 422 363 central rate;
#X obj 1231 113 f;
#X obj 1232 53 r rate;
#X obj 414 423 s rate;
#N canvas 0 50 972 560 melodies 0;
#X msg 35 87 \; melody 0 60 67 65 60 63 70;
#X obj 53 38 loadbang;
#X msg 31 179 \; melody 0 60 67 0 60 63 70;
#X msg 251 89 \; melody 0 60 67 0 0 63 70;
#X msg 260 178 \; melody 0 60 67 0 0 0 0;
#X obj 220 17 inlet;
#X obj 219 48 sel 0 1 2 3;
#X connect 1 0 0 0;
#X connect 5 0 6 0;
#X connect 6 0 4 0;
#X connect 6 1 3 0;
#X connect 6 2 2 0;
#X connect 6 3 0 0;
#X restore 529 401 pd melodies;
#X obj 535 368 hradio 15 1 0 4 empty empty empty 0 -8 0 10 #fcfcfc
#000000 #000000 0;
#X obj 1349 595 * 2;
#X obj 215 389 s position;
#X obj 225 363 hsl 128 15 -20 120 0 0 empty empty empty -2 -8 0 10
#fcfcfc #000000 #000000 0 1;
#X obj 148 72 adc~;
#X floatatom 185 214 5 0 0 0 - - - 0;
#N canvas 760 100 1502 908 feature-extraction 0;
#N canvas 359 124 1520 957 onsets 0;
#X obj 56 53 inlet~;
#X obj 206 323 outlet;
#X obj 3 4 cnv 10 400 10 empty empty empty 20 12 0 14 #e0e0e0 #404040
0;
#X obj 3 4 cnv 10 10 400 empty empty empty 20 12 0 14 #e0e0e0 #404040
0;
#X obj 178 173 bng 15 250 50 0 empty empty empty 17 7 0 10 #fcfcfc
#000000 #000000;
#X obj 171 96 r bark-settings;
#X text 308 53 timbreID comes with its own onset detection object:
bark~. See its helpfile for more details. In comparison with bonk~
(the usual onset detection object in Pd) \, bark~ performs very similarly
but has several extra conveniences. Most importantly \, there is a
non-real-time version of the object \, enabling easy parsing of pre-recorded
audio.;
#X obj 146 135 bark~ 1024 256 0.5;
#X obj 336 292 loadbang;
#X msg 336 314 \; bark-settings minvel 15 \; bark-settings debounce
350 \; bark-settings thresh 5 12 \; bark-settings filter_range 20 49
\;;
#X obj 45 361 outlet~;
#X text 308 163 Doing the attack detection in a subpatch with the input
signal connected in series before [bfcc~] guarantees the DSP order.
We first analyze the signal with [bark~] here to look for attacks \,
and if we find one \, spit out a bang to get the most recent BFCC analysis
possible back in the parent patch.;
#X text 558 321 These were good onset detection settings for the audio
files used in this help file., f 22;
#X obj 285 319 outlet;
#X connect 0 0 7 0;
#X connect 0 0 10 0;
#X connect 5 0 7 0;
#X connect 7 0 4 0;
#X connect 7 0 1 0;
#X connect 7 1 13 0;
#X connect 8 0 9 0;
#X restore 73 113 pd onsets;
#X obj 75 27 declare -lib timbreID/timbreIDLib;
#X obj 67 77 inlet~;
#X obj 64 339 outlet;
#X obj 119 338 outlet;
#X obj 372 75 tgl 15 0 empty empty empty 17 7 0 10 #fcfcfc #000000
#000000 0 1;
#X obj 372 95 metro 100;
#X obj 376 116 t b b;
#X obj 270 206 specHarmonicity~ 4096;
#N canvas 505 281 757 408 get-spectrum-and-pitch 0;
#X obj 355 248 mtof;
#X obj 297 199 moses 0;
#X obj 267 324 outlet;
#X obj 65 21 inlet~;
#X obj 65 324 outlet~;
#X obj 195 21 inlet;
#X text 290 53 If you choose to use the "input_fund" feature to specify
the fundamental frequency via [cepstrumPitch~] or [sigmund~] \, do
pitch analysis BEFORE harmonicity measure by putting [sigmund~] in
a series-patched subpatch connected to [specHarmonicity~].;
#X obj 267 280 f;
#X obj 297 177 sigmund~ pitch -npts 4096 -hop 512 -maxfreq 3000;
#X floatatom 277 304 10 0 0 1 Hz - - 0;
#X connect 0 0 7 1;
#X connect 1 1 0 0;
#X connect 3 0 4 0;
#X connect 3 0 8 0;
#X connect 5 0 7 0;
#X connect 7 0 2 0;
#X connect 7 0 9 0;
#X connect 8 0 1 0;
#X restore 273 153 pd get-spectrum-and-pitch;
#X obj 279 337 outlet;
#X obj 371 341 outlet;
#X obj 154 151 unpack f f;
#X obj 178 100 bonk~;
#X obj 6 339 outlet;
#X obj 427 26 loadbang;
#X obj 271 272 sel -1;
#X obj 370 271 sel -1;
#X obj 365 313 * 2;
#X obj 568 220 specFlatness~ 1024;
#X floatatom 573 299 5 0 0 0 - - - 0;
#X obj 564 374 outlet;
#X obj 570 333 * 50;
#X obj 57 245 specBrightness~ 1020 4800;
#X obj 67 294 expr 4 + ln($f1);
#X connect 0 0 23 0;
#X connect 0 1 14 0;
#X connect 0 1 19 0;
#X connect 0 1 23 0;
#X connect 2 0 0 0;
#X connect 2 0 13 0;
#X connect 2 0 9 0;
#X connect 2 0 19 0;
#X connect 5 0 6 0;
#X connect 6 0 7 0;
#X connect 7 0 8 0;
#X connect 7 1 9 1;
#X connect 8 0 16 0;
#X connect 8 1 17 0;
#X connect 9 0 8 0;
#X connect 9 1 8 1;
#X connect 12 1 4 0;
#X connect 13 1 12 0;
#X connect 15 0 5 0;
#X connect 16 1 10 0;
#X connect 17 1 18 0;
#X connect 18 0 11 0;
#X connect 19 0 20 0;
#X connect 20 0 22 0;
#X connect 22 0 21 0;
#X connect 23 0 24 0;
#X connect 24 0 3 0;
#X restore 137 146 pd feature-extraction;
#X floatatom 233 214 5 0 0 0 - - - 0;
#X floatatom 281 215 5 0 0 0 - - - 0;
#X obj 433 61 vsl 15 128 0 1 0 0 empty empty empty 0 -9 0 10 #f8fc00
#000000 #000000 0 1;
#X obj 115 350 bng 60 250 50 0 empty empty empty 17 7 0 10 #fcfcfc
#000000 #000000;
#X obj 490 59 vsl 15 128 0 50 0 0 empty empty empty 0 -9 0 10 #fc0400
#000000 #000000 0 1;
#X obj 541 62 vsl 15 128 0 1 0 0 empty empty empty 0 -9 0 10 #00f8fc
#000000 #000000 0 1;
#X obj 586 63 vsl 15 128 0 1 0 0 empty empty empty 0 -9 0 10 #00f8fc
#000000 #000000 0 1;
#X obj 230 262 tgl 15 0 empty empty empty 17 7 0 10 #fcfcfc #000000
#000000 0 1;
#X floatatom 134 215 5 0 0 0 - - - 0;
#X obj 659 95 print;
#X floatatom 811 171 5 0 0 0 - - - 0;
#X text 131 324 ONSET;
#X obj 236 29 tgl 60 0 empty empty empty 17 7 0 10 #fcfcfc #000000
#000000 0 1;
#X obj 245 100 s onoff;
#N canvas 1616 213 1051 863 playhead-influence 0;
#X obj 149 246 hsl 128 15 -20 120 0 0 empty empty empty -2 -8 0 10
#fcfcfc #000000 #000000 0 1;
#X obj 84 158 t b f;
#X msg 209 219 set \$1;
#X obj 173 151 +;
#X obj 213 192 min 120;
#X obj 213 164 max -20;
#X obj 148 320 outlet;
#X obj 29 47 inlet;
#X obj 112 38 inlet;
#X floatatom 292 59 5 0 0 0 - - - 0;
#X obj 103 117 expr -1 * ($f1 / 4 - 2);
#X obj 27 120 * -0.125;
#X connect 0 0 3 0;
#X connect 0 0 6 0;
#X connect 1 0 0 0;
#X connect 1 1 3 1;
#X connect 2 0 0 0;
#X connect 3 0 5 0;
#X connect 4 0 2 0;
#X connect 5 0 4 0;
#X connect 7 0 11 0;
#X connect 8 0 10 0;
#X connect 10 0 1 0;
#X connect 10 0 9 0;
#X connect 11 0 1 0;
#X restore 211 331 pd playhead-influence;
#N canvas 0 50 483 583 rate-influence 0;
#X obj 151 151 max 0;
#X obj 151 179 min 100;
#X obj 98 226 hsl 128 15 -20 120 0 0 empty empty empty -2 -8 0 10 #fcfcfc
#000000 #000000 0 1;
#X msg 151 203 set \$1;
#X obj 30 78 t b f;
#X obj 154 114 +;
#X obj 51 265 outlet;
#X obj 20 9 inlet;
#X obj 111 21 inlet;
#X msg 34 40 2;
#X obj 67 45 * -10;
#X connect 0 0 1 0;
#X connect 1 0 3 0;
#X connect 2 0 5 0;
#X connect 2 0 6 0;
#X connect 3 0 2 0;
#X connect 4 0 2 0;
#X connect 4 1 5 1;
#X connect 5 0 0 0;
#X connect 7 0 9 0;
#X connect 8 0 10 0;
#X connect 9 0 4 0;
#X connect 10 0 4 0;
#X restore 381 335 pd rate-influence;
#N canvas 1655 116 979 847 melody-influence 0;
#X obj 110 331 hsl 128 15 0 3.99 0 0 empty empty empty -2 -8 0 10 #fcfcfc
#000000 #000000 0 1;
#X msg 163 308 set \$1;
#X obj 56 223 t b f;
#X obj 166 219 +;
#X obj 63 370 outlet;
#X obj 20 9 inlet;
#X obj 104 28 inlet;
#X obj 51 332 int;
#X obj 163 257 max 0;
#X obj 163 284 min 3.99;
#X obj 33 83 -;
#X floatatom 33 107 5 0 0 0 - - - 0;
#X obj 40 158 f;
#X obj 112 98 abs;
#X obj 116 141 > 0.2;
#X obj 40 132 t f f;
#X obj 113 162 sel 1;
#X connect 0 0 7 0;
#X connect 0 0 3 0;
#X connect 1 0 0 0;
#X connect 2 0 0 0;
#X connect 2 1 3 1;
#X connect 3 0 8 0;
#X connect 5 0 10 0;
#X connect 6 0 10 1;
#X connect 7 0 4 0;
#X connect 8 0 9 0;
#X connect 9 0 1 0;
#X connect 10 0 11 0;
#X connect 11 0 15 0;
#X connect 12 0 2 0;
#X connect 13 0 14 0;
#X connect 14 0 16 0;
#X connect 15 0 13 0;
#X connect 15 1 12 1;
#X connect 16 0 12 0;
#X restore 529 335 pd melody-influence;
#N canvas 1665 290 980 932 trans-influence 0;
#X obj 94 388 hsl 128 15 -24 24 0 0 empty empty empty -2 -8 0 10 #fcfcfc
#000000 #000000 0 1;
#X msg 147 365 set \$1;
#X obj 25 205 t b f;
#X obj 150 276 +;
#X obj 47 427 outlet;
#X obj 154 26 inlet;
#X floatatom 228 290 5 0 0 0 - - - 0;
#X obj 147 314 max -24;
#X obj 147 341 min 24;
#X floatatom 271 33 5 0 0 0 - - - 0;
#X text 229 124 difference between last two values;
#X obj 143 101 -;
#X obj 151 50 t f f;
#X obj 30 54 random 2;
#X obj 28 89 sel 1;
#X obj 38 159 *;
#X msg 28 126 1;
#X msg 66 129 -1;
#X obj 126 157 t f b;
#X obj 152 127 * 30;
#X obj 302 211 random 24;
#X obj 320 283 random 24;
#X obj 320 315 * -1;
#X obj 304 242 * 1;
#X obj 270 169 bng 15 250 50 0 empty empty empty 17 7 0 10 #fcfcfc
#000000 #000000;
#X obj 285 60 abs;
#X obj 286 87 > 1;
#X obj 250 104 sel 1;
#X connect 0 0 3 0;
#X connect 0 0 4 0;
#X connect 1 0 0 0;
#X connect 2 0 0 0;
#X connect 2 1 3 1;
#X connect 3 0 6 0;
#X connect 3 0 7 0;
#X connect 5 0 12 0;
#X connect 7 0 8 0;
#X connect 8 0 1 0;
#X connect 9 0 25 0;
#X connect 11 0 9 0;
#X connect 11 0 19 0;
#X connect 12 0 11 1;
#X connect 12 1 11 0;
#X connect 13 0 14 0;
#X connect 14 0 16 0;
#X connect 14 1 17 0;
#X connect 15 0 2 0;
#X connect 16 0 15 1;
#X connect 17 0 15 1;
#X connect 18 0 15 0;
#X connect 18 1 13 0;
#X connect 19 0 18 0;
#X connect 20 0 23 0;
#X connect 21 0 22 0;
#X connect 22 0 7 1;
#X connect 23 0 8 1;
#X connect 24 0 20 0;
#X connect 24 0 21 0;
#X connect 25 0 26 0;
#X connect 26 0 27 0;
#X connect 27 0 24 0;
#X restore 723 333 pd trans-influence;
#X obj 292 283 metro 150;
#X obj 630 61 vsl 15 128 0 2 0 0 empty empty empty 0 -9 0 10 #9c00fc
#000000 #000000 0 1;
#X floatatom 333 215 5 0 0 0 - - - 0;
#X obj 22 181 env~ 16384 8192;
#X floatatom 22 268 5 0 0 0 - - - 0;
#X obj 366 38 vsl 15 128 0 1 0 0 empty empty empty 0 -9 0 10 #00fc04
#000000 #000000 0 1;
#X text 329 242 env \, brightness \, power \, harmonicity \, inharmonicity
\, spectral flatness;
#N canvas -13 -13 2736 1660 sampler 0;
#X obj 311 95 inlet;
#X obj 361 95 inlet;
#X obj 301 630 tabread4~ array1;
#X floatatom 354 263 5 0 0 0 - - - 0;
#X msg 612 184 60;
#X obj 301 603 line~;
#X obj 367 445 /;
#N canvas 6286 258 1526 1632 pitch_to_rate 0;
#X obj 27 39 expr ($f1 - 60) / 12;
#X obj 67 114 pow;
#X msg 36 72 2;
#X obj 109 80 t b f;
#X obj 25 14 inlet;
#X obj 29 222 outlet;
#X connect 0 0 3 0;
#X connect 1 0 5 0;
#X connect 2 0 1 0;
#X connect 3 0 2 0;
#X connect 3 1 1 1;
#X connect 4 0 0 0;
#X restore 672 421 pd pitch_to_rate;
#X text 555 188 pitch;
#X obj 303 223 bng 15 250 50 0 empty empty empty 17 7 0 10 #fcfcfc
#000000 #000000;
#X msg 654 182 72;
#X msg 96 327 0;
#X text 80 231 start time;
#X obj 133 381 *;
#X obj 289 505 pack f f f;
#X text 369 505 start time \, end time \, period;
#X msg 297 572 \$1 0 \, \$2 \$3;
#X obj 361 303 expr 1000 * ($f2 - $f1) / 44100;
#X floatatom 512 379 5 0 0 0 - - - 0;
#X obj 259 432 t f f;
#X msg 148 326 0.25;
#X obj 212 194 bng 60 250 50 0 empty empty empty 17 7 0 10 #fcfcfc
#000000 #000000;
#X obj 777 149 bng 60 250 50 0 empty empty empty 17 7 0 10 #fcfcfc
#000000 #000000;
#X text 159 220 play;
#X obj 172 411 f;
#X text 726 151 stop;
#X obj 303 700 *~;
#X obj 421 714 line~;
#X msg 414 681 1 5;
#X msg 572 644 0 \$1;
#X text 715 505 decay time;
#X floatatom 702 538 5 0 0 0 - - - 0;
#X obj 603 591 f;
#X obj 448 175 r sampleLen;
#X obj 84 290 loadbang;
#X obj 612 148 loadbang;
#X obj 1005 113 expr 1000 * $f1 / 44100;
#X obj 865 465 del;
#X obj 892 104 f;
#X text 932 79 get a random sample of this length;
#X obj 1006 214 -;
#X obj 1017 176 f;
#X obj 902 143 t b b f;
#X obj 979 385 /;
#X obj 962 465 print;
#X obj 898 249 t b b;
#X obj 735 594 -;
#X obj 812 512 f;
#X obj 785 559 t b f;
#X floatatom 725 664 5 0 0 0 - - - 0;
#X obj 233 90 inlet;
#X floatatom 865 43 5 0 0 0 - - - 0;
#X floatatom 1085 448 5 0 0 0 - - - 0;
#X obj 1136 322 print rand;
#X obj 1063 561 js javascripts/random.js 0 100;
#X obj 1042 603 / 100;
#X floatatom 1168 619 5 0 0 0 - - - 0;
#X floatatom 1070 523 5 0 0 0 - - - 0;
#X text 1115 524 position in soundfile;
#X obj 1054 489 bng 15 250 50 0 empty empty empty 17 7 0 10 #fcfcfc
#000000 #000000;
#X obj 980 654 *;
#X obj 983 532 t f b;
#X floatatom 972 717 5 0 0 0 - - - 0;
#X obj 1158 484 r position;
#N canvas 527 337 1070 719 rand-pan 0;
#X obj 14 55 inlet~;
#X obj 111 10 inlet;
#X obj 110 173 *~ 0.25;
#X obj 220 173 tgl 15 0 empty empty empty 17 7 0 10 #fcfcfc #000000
#000000 0 1;
#X obj 109 139 *~;
#X obj 377 210 cnv 15 118 17 empty empty empty 20 12 0 14 #fc8000 #404040
0;
#N canvas 561 87 972 897 control-messages 0;
#X obj 70 439 outlet;
#X floatatom 70 12 5 -1 1 0 - - - 0;
#X msg 70 56 speaker-1 \$1 \$2;
#X obj 70 35 pack 0 0;
#X floatatom 115 12 5 -1 1 0 - - - 0;
#X text 140 33 speaker position x \, y (-1 \, 1);
#X msg 93 90 speaker-2 \$1 \$2;
#X msg 94 110 speaker-3 \$1 \$2;
#X msg 94 130 speaker-4 \$1 \$2;
#X msg 94 150 speaker-5 \$1 \$2;
#X msg 94 170 speaker-6 \$1 \$2;
#X msg 94 190 speaker-7 \$1 \$2;
#X msg 94 210 speaker-8 \$1 \$2;
#X msg 146 283 cos;
#X msg 147 311 sqrt;
#X text 145 255 panning laws:;
#X text 176 282 sine/cosine;
#X text 182 310 square root;
#X msg 144 350 preset 0;
#X msg 144 373 preset 1;
#X text 207 349 8-ch. circle stereo pairs;
#X text 207 372 8-ch. circle center speaker;
#X obj 144 414 cnv 16 87 16 empty empty empty 20 12 0 14 #fc8000 #404040
0;
#N canvas 864 246 825 473 save&recall 0;
#X obj 93 233 outlet;
#X msg 93 60 0;
#X msg 125 60 1;
#X msg 158 60 2;
#X msg 93 99 save \$1;
#X text 185 63 ...;
#X msg 207 60 20;
#X msg 149 154 0;
#X msg 181 154 1;
#X msg 214 154 2;
#X text 241 157 ...;
#X msg 263 154 20;
#X msg 149 193 recall \$1;
#X text 249 93 save & recall up to 20 presets \, presets will be saved
with the parrent patch;
#X obj 340 36 loadbang;
#X connect 1 0 4 0;
#X connect 2 0 4 0;
#X connect 3 0 4 0;
#X connect 4 0 0 0;
#X connect 6 0 4 0;
#X connect 7 0 12 0;
#X connect 8 0 12 0;
#X connect 9 0 12 0;
#X connect 11 0 12 0;
#X connect 12 0 0 0;
#X connect 14 0 7 0;
#X restore 144 413 pd save&recall;
#X connect 1 0 3 0;
#X connect 2 0 0 0;
#X connect 3 0 2 0;
#X connect 4 0 3 1;
#X connect 13 0 0 0;
#X connect 14 0 0 0;
#X connect 18 0 0 0;
#X connect 19 0 0 0;
#X connect 23 0 0 0;
#X restore 377 210 pd control-messages;
#X obj 259 108 hsl 100 12 -1 1 0 0 empty empty empty -2 -8 0 10 #fcfcfc
#000000 #000000 0 1;
#X floatatom 256 172 5 0 0 0 - - - 0;
#X obj 256 192 sig~;
#X obj 303 64 vsl 12 100 -1 1 0 0 empty empty empty 0 -9 0 10 #fcfcfc
#000000 #000000 0 1;
#X floatatom 302 172 5 0 0 0 - - - 0;
#X obj 302 192 sig~;
#X text 263 154 x;
#X text 321 155 y;
#X floatatom 344 175 5 -1 1 0 - - - 0;
#X obj 344 193 sig~;
#X text 380 172 spatial spread (-1 \, 1);
#X obj 229 233 pp.spat8~;
#X text 390 239 <-- click to open GUI \, switch to editmode to change
loudspeaker positions;
#X obj 212 127 r onoff;
#N canvas 46 50 811 575 new-pos 0;
#X obj 36 46 random 100;
#X obj 36 70 - 50;
#X obj 36 94 / 50;
#X obj 36 181 outlet;
#X obj 33 14 inlet;
#X floatatom 122 191 5 0 0 0 - - - 0;
#X obj 157 38 bng 15 250 50 0 empty empty empty 17 7 0 10 #fcfcfc #000000
#000000;
#X obj 36 141 line 0 100;
#X msg 36 117 \$1 2000;
#X connect 0 0 1 0;
#X connect 1 0 2 0;
#X connect 2 0 8 0;
#X connect 4 0 0 0;
#X connect 6 0 0 0;
#X connect 7 0 3 0;
#X connect 7 0 5 0;
#X connect 8 0 7 0;
#X restore 172 67 pd new-pos;
#X obj 203 39 bng 15 250 50 0 empty empty empty 17 7 0 10 #fcfcfc #000000
#000000;
#N canvas 46 50 811 575 new-pos 0;
#X obj 36 46 random 100;
#X obj 36 70 - 50;
#X obj 36 94 / 50;
#X obj 36 181 outlet;
#X obj 33 14 inlet;
#X floatatom 122 191 5 0 0 0 - - - 0;
#X obj 157 38 bng 15 250 50 0 empty empty empty 17 7 0 10 #fcfcfc #000000
#000000;
#X obj 36 141 line 0 100;
#X msg 36 117 \$1 2000;
#X connect 0 0 1 0;
#X connect 1 0 2 0;
#X connect 2 0 8 0;
#X connect 4 0 0 0;
#X connect 6 0 0 0;
#X connect 7 0 3 0;
#X connect 7 0 5 0;
#X connect 8 0 7 0;
#X restore 253 69 pd new-pos;
#X obj 138 308 throw~ out1;
#X obj 427 306 throw~ out7;
#X obj 135 283 throw~ out2;
#X obj 233 303 throw~ out3;
#X obj 426 281 throw~ out8;
#X obj 326 280 throw~ out6;
#X obj 334 306 throw~ out5;
#X obj 234 282 throw~ out4;
#X connect 0 0 4 0;
#X connect 1 0 22 0;
#X connect 2 0 18 0;
#X connect 3 0 4 1;
#X connect 4 0 2 0;
#X connect 6 0 18 4;
#X connect 7 0 8 0;
#X connect 8 0 9 0;
#X connect 9 0 18 1;
#X connect 10 0 11 0;
#X connect 11 0 12 0;
#X connect 12 0 18 2;
#X connect 15 0 16 0;
#X connect 16 0 18 3;
#X connect 18 0 24 0;
#X connect 18 1 26 0;
#X connect 18 2 27 0;
#X connect 18 3 31 0;
#X connect 18 4 30 0;
#X connect 18 5 29 0;
#X connect 18 6 25 0;
#X connect 18 7 28 0;
#X connect 20 0 3 0;
#X connect 21 0 7 0;
#X connect 22 0 21 0;
#X connect 22 0 23 0;
#X connect 23 0 10 0;
#X restore 393 765 pd rand-pan;
#X obj 528 728 r rand-pan-all;
#X connect 0 0 7 0;
#X connect 1 0 31 0;
#X connect 2 0 26 0;
#X connect 3 0 13 1;
#X connect 3 0 14 1;
#X connect 3 0 17 1;
#X connect 4 0 7 0;
#X connect 5 0 2 0;
#X connect 6 0 14 2;
#X connect 7 0 6 1;
#X connect 9 0 3 0;
#X connect 10 0 7 0;
#X connect 11 0 13 0;
#X connect 13 0 24 1;
#X connect 14 0 16 0;
#X connect 16 0 5 0;
#X connect 17 0 18 0;
#X connect 17 0 6 0;
#X connect 19 0 14 0;
#X connect 19 1 17 0;
#X connect 20 0 13 0;
#X connect 21 0 24 0;
#X connect 21 0 28 0;
#X connect 22 0 32 0;
#X connect 24 0 19 0;
#X connect 26 0 64 0;
#X connect 27 0 26 1;
#X connect 28 0 27 0;
#X connect 29 0 27 0;
#X connect 31 0 32 1;
#X connect 31 0 48 0;
#X connect 32 0 29 0;
#X connect 33 0 3 0;
#X connect 33 0 36 0;
#X connect 34 0 11 0;
#X connect 35 0 4 0;
#X connect 36 0 41 1;
#X connect 37 0 22 0;
#X connect 38 0 42 0;
#X connect 40 0 53 0;
#X connect 40 0 61 0;
#X connect 41 0 40 0;
#X connect 41 0 43 1;
#X connect 41 0 56 0;
#X connect 42 0 37 0;
#X connect 42 0 45 0;
#X connect 42 1 41 0;
#X connect 42 2 40 1;
#X connect 42 2 47 0;
#X connect 43 0 44 0;
#X connect 43 0 13 0;
#X connect 45 0 21 0;
#X connect 46 0 37 1;
#X connect 46 0 49 0;
#X connect 47 0 46 0;
#X connect 48 0 47 0;
#X connect 48 1 46 1;
#X connect 50 0 51 0;
#X connect 51 0 38 0;
#X connect 54 0 55 0;
#X connect 55 0 60 1;
#X connect 57 0 54 0;
#X connect 59 0 57 0;
#X connect 60 0 62 0;
#X connect 61 0 60 0;
#X connect 61 1 59 0;
#X connect 62 0 43 0;
#X connect 63 0 57 0;
#X connect 65 0 64 1;
#X restore 884 637 pd sampler;
#X f 26;
#N canvas -13 -13 2736 1660 sampler 0;
#X obj 311 95 inlet;
#X obj 361 95 inlet;
#X obj 301 630 tabread4~ array1;
#X floatatom 354 263 5 0 0 0 - - - 0;
#X msg 612 184 60;
#X obj 301 603 line~;
#X obj 367 445 /;
#N canvas 6286 258 1526 1632 pitch_to_rate 0;
#X obj 27 39 expr ($f1 - 60) / 12;
#X obj 67 114 pow;
#X msg 36 72 2;
#X obj 109 80 t b f;
#X obj 25 14 inlet;
#X obj 29 222 outlet;
#X connect 0 0 3 0;
#X connect 1 0 5 0;
#X connect 2 0 1 0;
#X connect 3 0 2 0;
#X connect 3 1 1 1;
#X connect 4 0 0 0;
#X restore 672 421 pd pitch_to_rate;
#X text 555 188 pitch;
#X obj 303 223 bng 15 250 50 0 empty empty empty 17 7 0 10 #fcfcfc
#000000 #000000;
#X msg 654 182 72;
#X msg 96 327 0;
#X text 80 231 start time;
#X obj 133 381 *;
#X obj 289 505 pack f f f;
#X text 369 505 start time \, end time \, period;
#X msg 297 572 \$1 0 \, \$2 \$3;
#X obj 361 303 expr 1000 * ($f2 - $f1) / 44100;
#X floatatom 512 379 5 0 0 0 - - - 0;
#X obj 259 432 t f f;
#X msg 148 326 0.25;
#X obj 212 194 bng 60 250 50 0 empty empty empty 17 7 0 10 #fcfcfc
#000000 #000000;
#X obj 777 149 bng 60 250 50 0 empty empty empty 17 7 0 10 #fcfcfc
#000000 #000000;
#X text 159 220 play;
#X obj 172 411 f;
#X text 726 151 stop;
#X obj 303 700 *~;
#X obj 421 714 line~;
#X msg 414 681 1 5;
#X msg 572 644 0 \$1;
#X text 715 505 decay time;
#X floatatom 702 538 5 0 0 0 - - - 0;
#X obj 603 591 f;
#X obj 448 175 r sampleLen;
#X obj 84 290 loadbang;
#X obj 612 148 loadbang;
#X obj 1005 113 expr 1000 * $f1 / 44100;
#X obj 865 465 del;
#X obj 892 104 f;
#X text 932 79 get a random sample of this length;
#X obj 1006 214 -;
#X obj 1017 176 f;
#X obj 902 143 t b b f;
#X obj 979 385 /;
#X obj 962 465 print;
#X obj 898 249 t b b;
#X obj 735 594 -;
#X obj 812 512 f;
#X obj 785 559 t b f;
#X floatatom 725 664 5 0 0 0 - - - 0;
#X obj 233 90 inlet;
#X floatatom 865 43 5 0 0 0 - - - 0;
#X floatatom 1085 448 5 0 0 0 - - - 0;
#X obj 1136 322 print rand;
#X obj 1063 561 js javascripts/random.js 0 100;
#X obj 1042 603 / 100;
#X floatatom 1168 619 5 0 0 0 - - - 0;
#X floatatom 1070 523 5 0 0 0 - - - 0;
#X text 1115 524 position in soundfile;
#X obj 1054 489 bng 15 250 50 0 empty empty empty 17 7 0 10 #fcfcfc
#000000 #000000;
#X obj 980 654 *;
#X obj 983 532 t f b;
#X floatatom 972 717 5 0 0 0 - - - 0;
#X obj 1158 484 r position;
#N canvas 527 337 1070 719 rand-pan 0;
#X obj 14 55 inlet~;
#X obj 111 10 inlet;
#X obj 110 173 *~ 0.25;
#X obj 220 173 tgl 15 0 empty empty empty 17 7 0 10 #fcfcfc #000000
#000000 0 1;
#X obj 109 139 *~;
#X obj 377 210 cnv 15 118 17 empty empty empty 20 12 0 14 #fc8000 #404040
0;
#N canvas 561 87 972 897 control-messages 0;
#X obj 70 439 outlet;
#X floatatom 70 12 5 -1 1 0 - - - 0;
#X msg 70 56 speaker-1 \$1 \$2;
#X obj 70 35 pack 0 0;
#X floatatom 115 12 5 -1 1 0 - - - 0;
#X text 140 33 speaker position x \, y (-1 \, 1);
#X msg 93 90 speaker-2 \$1 \$2;
#X msg 94 110 speaker-3 \$1 \$2;
#X msg 94 130 speaker-4 \$1 \$2;
#X msg 94 150 speaker-5 \$1 \$2;
#X msg 94 170 speaker-6 \$1 \$2;
#X msg 94 190 speaker-7 \$1 \$2;
#X msg 94 210 speaker-8 \$1 \$2;
#X msg 146 283 cos;
#X msg 147 311 sqrt;
#X text 145 255 panning laws:;
#X text 176 282 sine/cosine;
#X text 182 310 square root;
#X msg 144 350 preset 0;
#X msg 144 373 preset 1;
#X text 207 349 8-ch. circle stereo pairs;
#X text 207 372 8-ch. circle center speaker;
#X obj 144 414 cnv 16 87 16 empty empty empty 20 12 0 14 #fc8000 #404040
0;
#N canvas 864 246 825 473 save&recall 0;
#X obj 93 233 outlet;
#X msg 93 60 0;
#X msg 125 60 1;
#X msg 158 60 2;
#X msg 93 99 save \$1;
#X text 185 63 ...;
#X msg 207 60 20;
#X msg 149 154 0;
#X msg 181 154 1;
#X msg 214 154 2;
#X text 241 157 ...;
#X msg 263 154 20;
#X msg 149 193 recall \$1;
#X text 249 93 save & recall up to 20 presets \, presets will be saved
with the parrent patch;
#X obj 340 36 loadbang;
#X connect 1 0 4 0;
#X connect 2 0 4 0;
#X connect 3 0 4 0;
#X connect 4 0 0 0;
#X connect 6 0 4 0;
#X connect 7 0 12 0;
#X connect 8 0 12 0;
#X connect 9 0 12 0;
#X connect 11 0 12 0;
#X connect 12 0 0 0;
#X connect 14 0 7 0;
#X restore 144 413 pd save&recall;
#X connect 1 0 3 0;
#X connect 2 0 0 0;
#X connect 3 0 2 0;
#X connect 4 0 3 1;
#X connect 13 0 0 0;
#X connect 14 0 0 0;
#X connect 18 0 0 0;
#X connect 19 0 0 0;
#X connect 23 0 0 0;
#X restore 377 210 pd control-messages;
#X obj 259 108 hsl 100 12 -1 1 0 0 empty empty empty -2 -8 0 10 #fcfcfc
#000000 #000000 0 1;
#X floatatom 256 172 5 0 0 0 - - - 0;
#X obj 256 192 sig~;
#X obj 303 64 vsl 12 100 -1 1 0 0 empty empty empty 0 -9 0 10 #fcfcfc
#000000 #000000 0 1;
#X floatatom 302 172 5 0 0 0 - - - 0;
#X obj 302 192 sig~;
#X text 263 154 x;
#X text 321 155 y;
#X floatatom 344 175 5 -1 1 0 - - - 0;
#X obj 344 193 sig~;
#X text 380 172 spatial spread (-1 \, 1);
#X obj 229 233 pp.spat8~;
#X text 390 239 <-- click to open GUI \, switch to editmode to change
loudspeaker positions;
#X obj 212 127 r onoff;
#N canvas 46 50 811 575 new-pos 0;
#X obj 36 46 random 100;
#X obj 36 70 - 50;
#X obj 36 94 / 50;
#X obj 36 181 outlet;
#X obj 33 14 inlet;
#X floatatom 122 191 5 0 0 0 - - - 0;
#X obj 157 38 bng 15 250 50 0 empty empty empty 17 7 0 10 #fcfcfc #000000
#000000;
#X obj 36 141 line 0 100;
#X msg 36 117 \$1 2000;
#X connect 0 0 1 0;
#X connect 1 0 2 0;
#X connect 2 0 8 0;
#X connect 4 0 0 0;
#X connect 6 0 0 0;
#X connect 7 0 3 0;
#X connect 7 0 5 0;
#X connect 8 0 7 0;
#X restore 172 67 pd new-pos;
#X obj 203 39 bng 15 250 50 0 empty empty empty 17 7 0 10 #fcfcfc #000000
#000000;
#N canvas 46 50 811 575 new-pos 0;
#X obj 36 46 random 100;
#X obj 36 70 - 50;
#X obj 36 94 / 50;
#X obj 36 181 outlet;
#X obj 33 14 inlet;
#X floatatom 122 191 5 0 0 0 - - - 0;
#X obj 157 38 bng 15 250 50 0 empty empty empty 17 7 0 10 #fcfcfc #000000
#000000;
#X obj 36 141 line 0 100;
#X msg 36 117 \$1 2000;
#X connect 0 0 1 0;
#X connect 1 0 2 0;
#X connect 2 0 8 0;
#X connect 4 0 0 0;
#X connect 6 0 0 0;
#X connect 7 0 3 0;
#X connect 7 0 5 0;
#X connect 8 0 7 0;
#X restore 253 69 pd new-pos;
#X obj 138 308 throw~ out1;
#X obj 427 306 throw~ out7;
#X obj 135 283 throw~ out2;
#X obj 233 303 throw~ out3;
#X obj 426 281 throw~ out8;
#X obj 326 280 throw~ out6;
#X obj 334 306 throw~ out5;
#X obj 234 282 throw~ out4;
#X connect 0 0 4 0;
#X connect 1 0 22 0;
#X connect 2 0 18 0;
#X connect 3 0 4 1;
#X connect 4 0 2 0;
#X connect 6 0 18 4;
#X connect 7 0 8 0;
#X connect 8 0 9 0;
#X connect 9 0 18 1;
#X connect 10 0 11 0;
#X connect 11 0 12 0;
#X connect 12 0 18 2;
#X connect 15 0 16 0;
#X connect 16 0 18 3;
#X connect 18 0 24 0;
#X connect 18 1 26 0;
#X connect 18 2 27 0;
#X connect 18 3 31 0;
#X connect 18 4 30 0;
#X connect 18 5 29 0;
#X connect 18 6 25 0;
#X connect 18 7 28 0;
#X connect 20 0 3 0;
#X connect 21 0 7 0;
#X connect 22 0 21 0;
#X connect 22 0 23 0;
#X connect 23 0 10 0;
#X restore 393 765 pd rand-pan;
#X obj 528 728 r rand-pan-all;
#X connect 0 0 7 0;
#X connect 1 0 31 0;
#X connect 2 0 26 0;
#X connect 3 0 13 1;
#X connect 3 0 14 1;
#X connect 3 0 17 1;
#X connect 4 0 7 0;
#X connect 5 0 2 0;
#X connect 6 0 14 2;
#X connect 7 0 6 1;
#X connect 9 0 3 0;
#X connect 10 0 7 0;
#X connect 11 0 13 0;
#X connect 13 0 24 1;
#X connect 14 0 16 0;
#X connect 16 0 5 0;
#X connect 17 0 18 0;
#X connect 17 0 6 0;
#X connect 19 0 14 0;
#X connect 19 1 17 0;
#X connect 20 0 13 0;
#X connect 21 0 24 0;
#X connect 21 0 28 0;
#X connect 22 0 32 0;
#X connect 24 0 19 0;
#X connect 26 0 64 0;
#X connect 27 0 26 1;
#X connect 28 0 27 0;
#X connect 29 0 27 0;
#X connect 31 0 32 1;
#X connect 31 0 48 0;
#X connect 32 0 29 0;
#X connect 33 0 3 0;
#X connect 33 0 36 0;
#X connect 34 0 11 0;
#X connect 35 0 4 0;
#X connect 36 0 41 1;
#X connect 37 0 22 0;
#X connect 38 0 42 0;
#X connect 40 0 53 0;
#X connect 40 0 61 0;
#X connect 41 0 40 0;
#X connect 41 0 43 1;
#X connect 41 0 56 0;
#X connect 42 0 37 0;
#X connect 42 0 45 0;
#X connect 42 1 41 0;
#X connect 42 2 40 1;
#X connect 42 2 47 0;
#X connect 43 0 44 0;
#X connect 43 0 13 0;
#X connect 45 0 21 0;
#X connect 46 0 37 1;
#X connect 46 0 49 0;
#X connect 47 0 46 0;
#X connect 48 0 47 0;
#X connect 48 1 46 1;
#X connect 50 0 51 0;
#X connect 51 0 38 0;
#X connect 54 0 55 0;
#X connect 55 0 60 1;
#X connect 57 0 54 0;
#X connect 59 0 57 0;
#X connect 60 0 62 0;
#X connect 61 0 60 0;
#X connect 61 1 59 0;
#X connect 62 0 43 0;
#X connect 63 0 57 0;
#X connect 65 0 64 1;
#X restore 1244 498 pd sampler;
#X f 26;
#N canvas -13 -13 2736 1660 sampler 0;
#X obj 311 95 inlet;
#X obj 361 95 inlet;
#X obj 301 630 tabread4~ array1;
#X floatatom 354 263 5 0 0 0 - - - 0;
#X msg 612 184 60;
#X obj 301 603 line~;
#X obj 367 445 /;
#N canvas 6286 258 1526 1632 pitch_to_rate 0;
#X obj 27 39 expr ($f1 - 60) / 12;
#X obj 67 114 pow;
#X msg 36 72 2;
#X obj 109 80 t b f;
#X obj 25 14 inlet;
#X obj 29 222 outlet;
#X connect 0 0 3 0;
#X connect 1 0 5 0;
#X connect 2 0 1 0;
#X connect 3 0 2 0;
#X connect 3 1 1 1;
#X connect 4 0 0 0;
#X restore 672 421 pd pitch_to_rate;
#X text 555 188 pitch;
#X obj 303 223 bng 15 250 50 0 empty empty empty 17 7 0 10 #fcfcfc
#000000 #000000;
#X msg 654 182 72;
#X msg 96 327 0;
#X text 80 231 start time;
#X obj 133 381 *;
#X obj 289 505 pack f f f;
#X text 369 505 start time \, end time \, period;
#X msg 297 572 \$1 0 \, \$2 \$3;
#X obj 361 303 expr 1000 * ($f2 - $f1) / 44100;
#X floatatom 512 379 5 0 0 0 - - - 0;
#X obj 259 432 t f f;
#X msg 148 326 0.25;
#X obj 212 194 bng 60 250 50 0 empty empty empty 17 7 0 10 #fcfcfc
#000000 #000000;
#X obj 777 149 bng 60 250 50 0 empty empty empty 17 7 0 10 #fcfcfc
#000000 #000000;
#X text 159 220 play;
#X obj 172 411 f;
#X text 726 151 stop;
#X obj 303 700 *~;
#X obj 421 714 line~;
#X msg 414 681 1 5;
#X msg 572 644 0 \$1;
#X text 715 505 decay time;
#X floatatom 702 538 5 0 0 0 - - - 0;
#X obj 603 591 f;
#X obj 448 175 r sampleLen;
#X obj 84 290 loadbang;
#X obj 612 148 loadbang;
#X obj 1005 113 expr 1000 * $f1 / 44100;
#X obj 865 465 del;
#X obj 892 104 f;
#X text 932 79 get a random sample of this length;
#X obj 1006 214 -;
#X obj 1017 176 f;
#X obj 902 143 t b b f;
#X obj 979 385 /;
#X obj 962 465 print;
#X obj 898 249 t b b;
#X obj 735 594 -;
#X obj 812 512 f;
#X obj 785 559 t b f;
#X floatatom 725 664 5 0 0 0 - - - 0;
#X obj 233 90 inlet;
#X floatatom 865 43 5 0 0 0 - - - 0;
#X floatatom 1085 448 5 0 0 0 - - - 0;
#X obj 1136 322 print rand;
#X obj 1063 561 js javascripts/random.js 0 100;
#X obj 1042 603 / 100;
#X floatatom 1168 619 5 0 0 0 - - - 0;
#X floatatom 1070 523 5 0 0 0 - - - 0;
#X text 1115 524 position in soundfile;
#X obj 1054 489 bng 15 250 50 0 empty empty empty 17 7 0 10 #fcfcfc
#000000 #000000;
#X obj 980 654 *;
#X obj 983 532 t f b;
#X floatatom 972 717 5 0 0 0 - - - 0;
#X obj 1158 484 r position;
#N canvas 527 337 1070 719 rand-pan 0;
#X obj 14 55 inlet~;
#X obj 111 10 inlet;
#X obj 110 173 *~ 0.25;
#X obj 220 173 tgl 15 0 empty empty empty 17 7 0 10 #fcfcfc #000000
#000000 0 1;
#X obj 109 139 *~;
#X obj 377 210 cnv 15 118 17 empty empty empty 20 12 0 14 #fc8000 #404040
0;
#N canvas 561 87 972 897 control-messages 0;
#X obj 70 439 outlet;
#X floatatom 70 12 5 -1 1 0 - - - 0;
#X msg 70 56 speaker-1 \$1 \$2;
#X obj 70 35 pack 0 0;
#X floatatom 115 12 5 -1 1 0 - - - 0;
#X text 140 33 speaker position x \, y (-1 \, 1);
#X msg 93 90 speaker-2 \$1 \$2;
#X msg 94 110 speaker-3 \$1 \$2;
#X msg 94 130 speaker-4 \$1 \$2;
#X msg 94 150 speaker-5 \$1 \$2;
#X msg 94 170 speaker-6 \$1 \$2;
#X msg 94 190 speaker-7 \$1 \$2;
#X msg 94 210 speaker-8 \$1 \$2;
#X msg 146 283 cos;
#X msg 147 311 sqrt;
#X text 145 255 panning laws:;
#X text 176 282 sine/cosine;
#X text 182 310 square root;
#X msg 144 350 preset 0;
#X msg 144 373 preset 1;
#X text 207 349 8-ch. circle stereo pairs;
#X text 207 372 8-ch. circle center speaker;
#X obj 144 414 cnv 16 87 16 empty empty empty 20 12 0 14 #fc8000 #404040
0;
#N canvas 864 246 825 473 save&recall 0;
#X obj 93 233 outlet;
#X msg 93 60 0;
#X msg 125 60 1;
#X msg 158 60 2;
#X msg 93 99 save \$1;
#X text 185 63 ...;
#X msg 207 60 20;
#X msg 149 154 0;
#X msg 181 154 1;
#X msg 214 154 2;
#X text 241 157 ...;
#X msg 263 154 20;
#X msg 149 193 recall \$1;
#X text 249 93 save & recall up to 20 presets \, presets will be saved
with the parrent patch;
#X obj 340 36 loadbang;
#X connect 1 0 4 0;
#X connect 2 0 4 0;
#X connect 3 0 4 0;
#X connect 4 0 0 0;
#X connect 6 0 4 0;
#X connect 7 0 12 0;
#X connect 8 0 12 0;
#X connect 9 0 12 0;
#X connect 11 0 12 0;
#X connect 12 0 0 0;
#X connect 14 0 7 0;
#X restore 144 413 pd save&recall;
#X connect 1 0 3 0;
#X connect 2 0 0 0;
#X connect 3 0 2 0;
#X connect 4 0 3 1;
#X connect 13 0 0 0;
#X connect 14 0 0 0;
#X connect 18 0 0 0;
#X connect 19 0 0 0;
#X connect 23 0 0 0;
#X restore 377 210 pd control-messages;
#X obj 259 108 hsl 100 12 -1 1 0 0 empty empty empty -2 -8 0 10 #fcfcfc
#000000 #000000 0 1;
#X floatatom 256 172 5 0 0 0 - - - 0;
#X obj 256 192 sig~;
#X obj 303 64 vsl 12 100 -1 1 0 0 empty empty empty 0 -9 0 10 #fcfcfc
#000000 #000000 0 1;
#X floatatom 302 172 5 0 0 0 - - - 0;
#X obj 302 192 sig~;
#X text 263 154 x;
#X text 321 155 y;
#X floatatom 344 175 5 -1 1 0 - - - 0;
#X obj 344 193 sig~;
#X text 380 172 spatial spread (-1 \, 1);
#X obj 229 233 pp.spat8~;
#X text 390 239 <-- click to open GUI \, switch to editmode to change
loudspeaker positions;
#X obj 212 127 r onoff;
#N canvas 46 50 811 575 new-pos 0;
#X obj 36 46 random 100;
#X obj 36 70 - 50;
#X obj 36 94 / 50;
#X obj 36 181 outlet;
#X obj 33 14 inlet;
#X floatatom 122 191 5 0 0 0 - - - 0;
#X obj 157 38 bng 15 250 50 0 empty empty empty 17 7 0 10 #fcfcfc #000000
#000000;
#X obj 36 141 line 0 100;
#X msg 36 117 \$1 2000;
#X connect 0 0 1 0;
#X connect 1 0 2 0;
#X connect 2 0 8 0;
#X connect 4 0 0 0;
#X connect 6 0 0 0;
#X connect 7 0 3 0;
#X connect 7 0 5 0;
#X connect 8 0 7 0;
#X restore 172 67 pd new-pos;
#X obj 203 39 bng 15 250 50 0 empty empty empty 17 7 0 10 #fcfcfc #000000
#000000;
#N canvas 46 50 811 575 new-pos 0;
#X obj 36 46 random 100;
#X obj 36 70 - 50;
#X obj 36 94 / 50;
#X obj 36 181 outlet;
#X obj 33 14 inlet;
#X floatatom 122 191 5 0 0 0 - - - 0;
#X obj 157 38 bng 15 250 50 0 empty empty empty 17 7 0 10 #fcfcfc #000000
#000000;
#X obj 36 141 line 0 100;
#X msg 36 117 \$1 2000;
#X connect 0 0 1 0;
#X connect 1 0 2 0;
#X connect 2 0 8 0;
#X connect 4 0 0 0;
#X connect 6 0 0 0;
#X connect 7 0 3 0;
#X connect 7 0 5 0;
#X connect 8 0 7 0;
#X restore 253 69 pd new-pos;
#X obj 138 308 throw~ out1;
#X obj 427 306 throw~ out7;
#X obj 135 283 throw~ out2;
#X obj 233 303 throw~ out3;
#X obj 426 281 throw~ out8;
#X obj 326 280 throw~ out6;
#X obj 334 306 throw~ out5;
#X obj 234 282 throw~ out4;
#X connect 0 0 4 0;
#X connect 1 0 22 0;
#X connect 2 0 18 0;
#X connect 3 0 4 1;
#X connect 4 0 2 0;
#X connect 6 0 18 4;
#X connect 7 0 8 0;
#X connect 8 0 9 0;
#X connect 9 0 18 1;
#X connect 10 0 11 0;
#X connect 11 0 12 0;
#X connect 12 0 18 2;
#X connect 15 0 16 0;
#X connect 16 0 18 3;
#X connect 18 0 24 0;
#X connect 18 1 26 0;
#X connect 18 2 27 0;
#X connect 18 3 31 0;
#X connect 18 4 30 0;
#X connect 18 5 29 0;
#X connect 18 6 25 0;
#X connect 18 7 28 0;
#X connect 20 0 3 0;
#X connect 21 0 7 0;
#X connect 22 0 21 0;
#X connect 22 0 23 0;
#X connect 23 0 10 0;
#X restore 393 765 pd rand-pan;
#X obj 528 728 r rand-pan-all;
#X connect 0 0 7 0;
#X connect 1 0 31 0;
#X connect 2 0 26 0;
#X connect 3 0 13 1;
#X connect 3 0 14 1;
#X connect 3 0 17 1;
#X connect 4 0 7 0;
#X connect 5 0 2 0;
#X connect 6 0 14 2;
#X connect 7 0 6 1;
#X connect 9 0 3 0;
#X connect 10 0 7 0;
#X connect 11 0 13 0;
#X connect 13 0 24 1;
#X connect 14 0 16 0;
#X connect 16 0 5 0;
#X connect 17 0 18 0;
#X connect 17 0 6 0;
#X connect 19 0 14 0;
#X connect 19 1 17 0;
#X connect 20 0 13 0;
#X connect 21 0 24 0;
#X connect 21 0 28 0;
#X connect 22 0 32 0;
#X connect 24 0 19 0;
#X connect 26 0 64 0;
#X connect 27 0 26 1;
#X connect 28 0 27 0;
#X connect 29 0 27 0;
#X connect 31 0 32 1;
#X connect 31 0 48 0;
#X connect 32 0 29 0;
#X connect 33 0 3 0;
#X connect 33 0 36 0;
#X connect 34 0 11 0;
#X connect 35 0 4 0;
#X connect 36 0 41 1;
#X connect 37 0 22 0;
#X connect 38 0 42 0;
#X connect 40 0 53 0;
#X connect 40 0 61 0;
#X connect 41 0 40 0;
#X connect 41 0 43 1;
#X connect 41 0 56 0;
#X connect 42 0 37 0;
#X connect 42 0 45 0;
#X connect 42 1 41 0;
#X connect 42 2 40 1;
#X connect 42 2 47 0;
#X connect 43 0 44 0;
#X connect 43 0 13 0;
#X connect 45 0 21 0;
#X connect 46 0 37 1;
#X connect 46 0 49 0;
#X connect 47 0 46 0;
#X connect 48 0 47 0;
#X connect 48 1 46 1;
#X connect 50 0 51 0;
#X connect 51 0 38 0;
#X connect 54 0 55 0;
#X connect 55 0 60 1;
#X connect 57 0 54 0;
#X connect 59 0 57 0;
#X connect 60 0 62 0;
#X connect 61 0 60 0;
#X connect 61 1 59 0;
#X connect 62 0 43 0;
#X connect 63 0 57 0;
#X connect 65 0 64 1;
#X restore 1245 669 pd sampler;
#X f 26;
#X obj 213 512 s rand-pan-all;
#X obj 218 473 bng 15 250 50 0 empty empty empty 17 7 0 10 #fcfcfc
#000000 #000000;
#X text 279 554 to make it noticeable this should accompany another
change;
#X msg 1405 448 20;
#X msg 1398 591 30;
#X obj 22 244 expr $f1 - 55;
#X floatatom 306 400 5 0 0 0 - - - 0;
#X obj 54 518 env~ 16384 8192;
#X floatatom 56 574 5 0 0 0 - - - 0;
#X obj 52 495 hip~ 1000;
#X obj 52 539 expr $f1 - 50;
#X msg 629 28 symbol samples/guitar.wav;
#X obj 538 757 4channel/4chan-rev;
#X obj 540 799 dac~ 1 2 3 4, f 18;
#X obj 424 717 catch~ out1;
#X obj 513 717 catch~ out2;
#X obj 600 717 catch~ out3;
#X obj 689 717 catch~ out4;
#X connect 0 0 1 0;
#X connect 1 0 7 0;
#X connect 1 0 64 0;
#X connect 2 0 0 0;
#X connect 2 0 63 0;
#X connect 3 0 2 0;
#X connect 9 0 10 0;
#X connect 9 0 12 0;
#X connect 10 0 9 1;
#X connect 11 0 22 0;
#X connect 12 0 19 0;
#X connect 13 0 17 0;
#X connect 14 0 6 1;
#X connect 14 0 36 0;
#X connect 14 0 37 0;
#X connect 15 0 11 0;
#X connect 17 0 9 0;
#X connect 17 0 43 0;
#X connect 18 0 20 0;
#X connect 19 0 18 0;
#X connect 19 1 11 0;
#X connect 20 0 32 0;
#X connect 20 0 33 0;
#X connect 20 1 21 0;
#X connect 20 1 23 0;
#X connect 21 0 80 0;
#X connect 22 0 14 0;
#X connect 23 0 81 0;
#X connect 24 0 27 0;
#X connect 26 0 27 0;
#X connect 27 0 25 0;
#X connect 27 0 28 0;
#X connect 28 0 31 0;
#X connect 29 0 6 2;
#X connect 30 0 79 2;
#X connect 31 0 17 1;
#X connect 31 0 80 1;
#X connect 32 0 6 0;
#X connect 33 0 79 0;
#X connect 34 0 38 0;
#X connect 36 0 79 1;
#X connect 37 0 81 1;
#X connect 39 0 36 1;
#X connect 40 0 48 0;
#X connect 41 0 45 0;
#X connect 43 0 27 0;
#X connect 44 0 43 1;
#X connect 47 0 46 0;
#X connect 48 0 37 1;
#X connect 50 0 49 0;
#X connect 51 0 53 0;
#X connect 51 0 75 0;
#X connect 51 0 91 0;
#X connect 52 0 58 0;
#X connect 53 0 57 0;
#X connect 53 1 62 0;
#X connect 53 2 52 0;
#X connect 53 3 54 0;
#X connect 53 4 55 0;
#X connect 53 5 74 0;
#X connect 54 0 59 0;
#X connect 55 0 60 0;
#X connect 56 0 71 0;
#X connect 57 0 83 0;
#X connect 59 0 70 0;
#X connect 60 0 70 1;
#X connect 61 0 72 0;
#X connect 62 0 56 0;
#X connect 66 0 67 0;
#X connect 68 0 50 0;
#X connect 68 0 88 0;
#X connect 69 0 41 0;
#X connect 70 0 47 0;
#X connect 71 0 34 0;
#X connect 72 0 69 0;
#X connect 73 0 69 1;
#X connect 74 0 73 0;
#X connect 75 0 87 0;
#X connect 83 0 82 0;
#X connect 85 0 80 2;
#X connect 86 0 81 2;
#X connect 87 0 76 0;
#X connect 89 0 92 0;
#X connect 90 0 68 0;
#X connect 91 0 89 0;
#X connect 92 0 90 0;
#X connect 93 0 0 0;
#X connect 94 0 95 0;
#X connect 94 1 95 1;
#X connect 94 2 95 2;
#X connect 94 3 95 3;
#X connect 96 0 94 0;
#X connect 97 0 94 1;
#X connect 98 0 94 2;
#X connect 99 0 94 3;
