#N canvas 731 23 1487 1315 12;
#X obj 299 89 inlet;
#X obj 361 89 inlet, f 6;
#X floatatom 354 263 5 0 0 0 - - - 0;
#X msg 612 184 60;
#X obj 301 603 line~;
#X obj 367 445 /;
#N canvas 6286 258 1526 1632 pitch_to_rate 0;
#X obj 27 39 expr ($f1 - 60) / 12;
#X obj 67 114 pow;
#X msg 36 72 2;
#X obj 109 80 t b f;
#X obj 25 14 inlet;
#X obj 29 222 outlet;
#X connect 0 0 3 0;
#X connect 1 0 5 0;
#X connect 2 0 1 0;
#X connect 3 0 2 0;
#X connect 3 1 1 1;
#X connect 4 0 0 0;
#X restore 672 421 pd pitch_to_rate;
#X text 555 188 pitch;
#X obj 303 223 bng 15 250 50 0 empty empty empty 17 7 0 10 #fcfcfc
#000000 #000000;
#X msg 654 182 72;
#X msg 96 327 0;
#X text 80 231 start time;
#X obj 133 381 *;
#X obj 289 505 pack f f f;
#X text 369 505 start time \, end time \, period;
#X msg 297 572 \$1 0 \, \$2 \$3;
#X obj 361 303 expr 1000 * ($f2 - $f1) / 44100;
#X floatatom 512 379 5 0 0 0 - - - 0;
#X obj 259 432 t f f;
#X msg 148 326 0.25;
#X obj 212 194 bng 60 250 50 0 empty empty empty 17 7 0 10 #fcfcfc
#000000 #000000;
#X obj 777 149 bng 60 250 50 0 empty empty empty 17 7 0 10 #fcfcfc
#000000 #000000;
#X text 159 220 play;
#X obj 172 411 f;
#X text 726 151 stop;
#X obj 303 700 *~;
#X obj 421 714 line~;
#X msg 414 681 1 5;
#X msg 572 644 0 \$1;
#X text 715 505 decay time;
#X floatatom 702 538 5 0 0 0 - - - 0;
#X obj 603 591 f;
#X obj 448 175 r sampleLen;
#X obj 84 290 loadbang;
#X obj 612 148 loadbang;
#X obj 1005 113 expr 1000 * $f1 / 44100;
#X obj 865 465 del;
#X obj 892 104 f;
#X text 932 79 get a random sample of this length;
#X obj 1006 214 -;
#X obj 1017 176 f;
#X obj 902 143 t b b f;
#X obj 979 385 /;
#X obj 962 465 print;
#X obj 898 249 t b b;
#X obj 735 594 -;
#X obj 812 512 f;
#X obj 785 559 t b f;
#X floatatom 725 664 5 0 0 0 - - - 0;
#X obj 233 87 inlet;
#X floatatom 865 43 5 0 0 0 - - - 0;
#X floatatom 1085 448 5 0 0 0 - - - 0;
#X obj 1136 322 print rand;
#X obj 1063 561 js javascripts/random.js 0 100;
#X obj 1042 603 / 100;
#X floatatom 1168 619 5 0 0 0 - - - 0;
#X floatatom 1070 523 5 0 0 0 - - - 0;
#X text 1115 524 position in soundfile;
#X obj 1054 489 bng 15 250 50 0 empty empty empty 17 7 0 10 #fcfcfc
#000000 #000000;
#X obj 980 654 *;
#X obj 983 532 t f b;
#X floatatom 972 717 5 0 0 0 - - - 0;
#X obj 1158 484 r position;
#X obj 491 80 inlet;
#X obj 541 123 s \$0-array-name;
#X obj 140 582 r \$0-array-name;
#X text 244 41 length \, pitch \, decay \, pan \, sound;
#X obj 356 781 4channel/4ch-pan;
#X obj 424 91 inlet;
#X obj 488 757 r \$0-pan;
#X obj 429 132 s \$0-pan;
#X obj 358 835 outlet~;
#X obj 423 836 outlet~;
#X obj 485 837 outlet~;
#X obj 557 838 outlet~;
#X obj 301 630 tabread4~;
#X msg 560 699 50;
#X connect 0 0 6 0;
#X connect 1 0 30 0;
#X connect 2 0 12 1;
#X connect 2 0 13 1;
#X connect 2 0 16 1;
#X connect 3 0 6 0;
#X connect 4 0 75 0;
#X connect 5 0 13 2;
#X connect 6 0 5 1;
#X connect 8 0 2 0;
#X connect 9 0 6 0;
#X connect 10 0 12 0;
#X connect 12 0 23 1;
#X connect 13 0 15 0;
#X connect 15 0 4 0;
#X connect 16 0 17 0;
#X connect 16 0 5 0;
#X connect 18 0 13 0;
#X connect 18 1 16 0;
#X connect 19 0 12 0;
#X connect 20 0 23 0;
#X connect 20 0 27 0;
#X connect 21 0 31 0;
#X connect 23 0 18 0;
#X connect 25 0 67 0;
#X connect 26 0 25 1;
#X connect 27 0 26 0;
#X connect 28 0 26 0;
#X connect 30 0 31 1;
#X connect 30 0 47 0;
#X connect 31 0 28 0;
#X connect 32 0 2 0;
#X connect 32 0 35 0;
#X connect 33 0 10 0;
#X connect 34 0 3 0;
#X connect 35 0 40 1;
#X connect 36 0 21 0;
#X connect 37 0 41 0;
#X connect 39 0 52 0;
#X connect 39 0 60 0;
#X connect 40 0 39 0;
#X connect 40 0 42 1;
#X connect 40 0 55 0;
#X connect 41 0 36 0;
#X connect 41 0 44 0;
#X connect 41 1 40 0;
#X connect 41 2 39 1;
#X connect 41 2 46 0;
#X connect 42 0 43 0;
#X connect 42 0 12 0;
#X connect 44 0 20 0;
#X connect 45 0 36 1;
#X connect 45 0 48 0;
#X connect 46 0 45 0;
#X connect 47 0 46 0;
#X connect 47 1 45 1;
#X connect 49 0 50 0;
#X connect 50 0 37 0;
#X connect 53 0 54 0;
#X connect 54 0 59 1;
#X connect 56 0 53 0;
#X connect 58 0 56 0;
#X connect 59 0 61 0;
#X connect 60 0 59 0;
#X connect 60 1 58 0;
#X connect 61 0 42 0;
#X connect 62 0 56 0;
#X connect 63 0 64 0;
#X connect 65 0 75 0;
#X connect 67 0 71 0;
#X connect 67 1 72 0;
#X connect 67 2 73 0;
#X connect 67 3 74 0;
#X connect 68 0 70 0;
#X connect 69 0 67 1;
#X connect 75 0 25 0;
#X connect 76 0 67 1;
