#N canvas -13 -13 2736 1660 12;
#X declare -lib timbreID/timbreIDLib;
#X msg 608 69 read -resize \$1 array1;
#X obj 608 99 soundfiler;
#X obj 606 43 openpanel;
#X obj 605 18 bng 15 250 50 0 empty empty empty 17 7 0 10 -262144 -1
-1;
#X obj 669 330 *~ 0.25;
#X obj 667 371 dac~;
#X obj 779 330 tgl 15 0 empty empty empty 17 7 0 10 -262144 -1 -1 1
1;
#X obj 668 296 *~;
#X obj 926 29 table array1 441000;
#X obj 883 90 table hanning 22050;
#N canvas 5459 -13 2560 1884 sampler 0;
#X obj -2407 97 inlet;
#X obj -2357 97 inlet;
#X obj -2417 632 tabread4~ array1;
#X floatatom -2364 265 5 0 0 0 - - -;
#X msg -2106 186 60;
#X obj -2417 605 line~;
#X obj -2351 447 /;
#N canvas 6286 258 1526 1632 pitch_to_rate 0;
#X obj 27 39 expr ($f1 - 60) / 12;
#X obj 67 114 pow;
#X msg 36 72 2;
#X obj 109 80 t b f;
#X obj 25 14 inlet;
#X obj 29 222 outlet;
#X connect 0 0 3 0;
#X connect 1 0 5 0;
#X connect 2 0 1 0;
#X connect 3 0 2 0;
#X connect 3 1 1 1;
#X connect 4 0 0 0;
#X restore -2046 423 pd pitch_to_rate;
#X text -2163 190 pitch;
#X obj -2415 225 bng 15 250 50 0 empty empty empty 17 7 0 10 -262144
-1 -1;
#X msg -2064 184 72;
#X msg -2622 329 0;
#X text -2638 233 start time;
#X obj -2585 383 *;
#X obj -2429 507 pack f f f;
#X text -2349 507 start time \, end time \, period;
#X msg -2421 574 \$1 0 \, \$2 \$3;
#X obj -2357 305 expr 1000 * ($f2 - $f1) / 44100;
#X floatatom -2206 381 5 0 0 0 - - -;
#X obj -2459 434 t f f;
#X msg -2570 328 0.25;
#X obj -2506 196 bng 60 250 50 0 empty empty empty 17 7 0 10 -262144
-1 -1;
#X obj -1941 151 bng 60 250 50 0 empty empty empty 17 7 0 10 -262144
-1 -1;
#X text -2559 222 play;
#X obj -2546 413 f;
#X text -1992 153 stop;
#X obj -2415 702 *~;
#X obj -2297 716 line~;
#X msg -2304 683 1 5;
#X msg -2146 646 0 \$1;
#X text -2003 507 decay time;
#X floatatom -2016 540 5 0 0 0 - - -;
#X obj -2115 593 f;
#X obj -2270 177 r sampleLen;
#X obj -2400 771 outlet~;
#X obj -2634 292 loadbang;
#X obj -2106 150 loadbang;
#X obj -1713 115 expr 1000 * $f1 / 44100;
#X obj -1853 467 del;
#X obj -1826 106 f;
#X text -1786 81 get a random sample of this length;
#X obj -1712 216 -;
#X obj -1701 178 f;
#X obj -1816 145 t b b f;
#X obj -1739 387 /;
#X obj -1756 467 print;
#X obj -1820 251 t b b;
#X obj -1983 596 -;
#X obj -1906 514 f;
#X obj -1933 561 t b f;
#X floatatom -1993 666 5 0 0 0 - - -;
#X obj -2485 92 inlet;
#X floatatom -1853 45 5 0 0 0 - - -;
#X floatatom -1633 450 5 0 0 0 - - -;
#X obj -1582 324 print rand;
#X obj -1655 563 js javascripts/random.js 0 100;
#X obj -1676 605 / 100;
#X floatatom -1550 621 5 0 0 0 - - -;
#X floatatom -1648 525 5 0 0 0 - - -;
#X text -1603 526 position in soundfile;
#X obj -1664 491 bng 15 250 50 0 empty empty empty 17 7 0 10 -262144
-1 -1;
#X obj -1738 656 *;
#X obj -1735 534 t f b;
#X floatatom -1746 719 5 0 0 0 - - -;
#X obj -1560 486 r position;
#X connect 0 0 7 0;
#X connect 1 0 31 0;
#X connect 2 0 26 0;
#X connect 3 0 13 1;
#X connect 3 0 14 1;
#X connect 3 0 17 1;
#X connect 4 0 7 0;
#X connect 5 0 2 0;
#X connect 6 0 14 2;
#X connect 7 0 6 1;
#X connect 9 0 3 0;
#X connect 10 0 7 0;
#X connect 11 0 13 0;
#X connect 13 0 24 1;
#X connect 14 0 16 0;
#X connect 16 0 5 0;
#X connect 17 0 18 0;
#X connect 17 0 6 0;
#X connect 19 0 14 0;
#X connect 19 1 17 0;
#X connect 20 0 13 0;
#X connect 21 0 24 0;
#X connect 21 0 28 0;
#X connect 22 0 32 0;
#X connect 24 0 19 0;
#X connect 26 0 34 0;
#X connect 27 0 26 1;
#X connect 28 0 27 0;
#X connect 29 0 27 0;
#X connect 31 0 32 1;
#X connect 31 0 49 0;
#X connect 32 0 29 0;
#X connect 33 0 3 0;
#X connect 33 0 37 0;
#X connect 35 0 11 0;
#X connect 36 0 4 0;
#X connect 37 0 42 1;
#X connect 38 0 22 0;
#X connect 39 0 43 0;
#X connect 41 0 54 0;
#X connect 41 0 62 0;
#X connect 42 0 41 0;
#X connect 42 0 44 1;
#X connect 42 0 57 0;
#X connect 43 0 38 0;
#X connect 43 0 46 0;
#X connect 43 1 42 0;
#X connect 43 2 41 1;
#X connect 43 2 48 0;
#X connect 44 0 45 0;
#X connect 44 0 13 0;
#X connect 46 0 21 0;
#X connect 47 0 38 1;
#X connect 47 0 50 0;
#X connect 48 0 47 0;
#X connect 49 0 48 0;
#X connect 49 1 47 1;
#X connect 51 0 52 0;
#X connect 52 0 39 0;
#X connect 55 0 56 0;
#X connect 56 0 61 1;
#X connect 58 0 55 0;
#X connect 60 0 58 0;
#X connect 61 0 63 0;
#X connect 62 0 61 0;
#X connect 62 1 60 0;
#X connect 63 0 44 0;
#X connect 64 0 58 0;
#X restore 882 505 pd sampler;
#X f 26;
#X obj 606 144 s sampleLen;
#X obj 881 545 throw~ out;
#X obj 677 222 catch~ out;
#X text 889 724 play/length \, pitch \, decay;
#X obj 915 161 f 0;
#X obj 952 161 + 1;
#X obj 933 239 tabread melody;
#X obj 912 197 % 6;
#X obj 770 129 tgl 15 0 empty empty empty 17 7 0 10 -262144 -1 -1 1
1;
#X floatatom 1015 319 5 0 0 0 - - -;
#X floatatom 1015 188 5 0 0 0 - - -;
#X obj 1026 93 table melody;
#X obj 837 137 metro 100;
#N canvas 5459 -13 2560 1884 sampler 0;
#X obj -2407 97 inlet;
#X obj -2357 97 inlet;
#X obj -2417 632 tabread4~ array1;
#X floatatom -2364 265 5 0 0 0 - - -;
#X msg -2106 186 60;
#X obj -2417 605 line~;
#X obj -2351 447 /;
#N canvas 6286 258 1526 1632 pitch_to_rate 0;
#X obj 27 39 expr ($f1 - 60) / 12;
#X obj 67 114 pow;
#X msg 36 72 2;
#X obj 109 80 t b f;
#X obj 25 14 inlet;
#X obj 29 222 outlet;
#X connect 0 0 3 0;
#X connect 1 0 5 0;
#X connect 2 0 1 0;
#X connect 3 0 2 0;
#X connect 3 1 1 1;
#X connect 4 0 0 0;
#X restore -2046 423 pd pitch_to_rate;
#X text -2163 190 pitch;
#X obj -2415 225 bng 15 250 50 0 empty empty empty 17 7 0 10 -262144
-1 -1;
#X msg -2064 184 72;
#X msg -2622 329 0;
#X text -2638 233 start time;
#X obj -2585 383 *;
#X obj -2429 507 pack f f f;
#X text -2349 507 start time \, end time \, period;
#X msg -2421 574 \$1 0 \, \$2 \$3;
#X obj -2357 305 expr 1000 * ($f2 - $f1) / 44100;
#X floatatom -2206 381 5 0 0 0 - - -;
#X obj -2459 434 t f f;
#X msg -2570 328 0.25;
#X obj -2506 196 bng 60 250 50 0 empty empty empty 17 7 0 10 -262144
-1 -1;
#X obj -1941 151 bng 60 250 50 0 empty empty empty 17 7 0 10 -262144
-1 -1;
#X text -2559 222 play;
#X obj -2546 413 f;
#X text -1992 153 stop;
#X obj -2415 702 *~;
#X obj -2297 716 line~;
#X msg -2304 683 1 5;
#X msg -2146 646 0 \$1;
#X text -2003 507 decay time;
#X floatatom -2016 540 5 0 0 0 - - -;
#X obj -2115 593 f;
#X obj -2270 177 r sampleLen;
#X obj -2400 771 outlet~;
#X obj -2634 292 loadbang;
#X obj -2106 150 loadbang;
#X obj -1713 115 expr 1000 * $f1 / 44100;
#X obj -1853 467 del;
#X obj -1826 106 f;
#X text -1786 81 get a random sample of this length;
#X obj -1712 216 -;
#X obj -1701 178 f;
#X obj -1816 145 t b b f;
#X obj -1739 387 /;
#X obj -1756 467 print;
#X obj -1820 251 t b b;
#X obj -1983 596 -;
#X obj -1906 514 f;
#X obj -1933 561 t b f;
#X floatatom -1993 666 5 0 0 0 - - -;
#X obj -2485 92 inlet;
#X floatatom -1853 45 5 0 0 0 - - -;
#X floatatom -1633 450 5 0 0 0 - - -;
#X obj -1582 324 print rand;
#X obj -1655 563 js javascripts/random.js 0 100;
#X obj -1676 605 / 100;
#X floatatom -1550 621 5 0 0 0 - - -;
#X floatatom -1648 525 5 0 0 0 - - -;
#X text -1603 526 position in soundfile;
#X obj -1664 491 bng 15 250 50 0 empty empty empty 17 7 0 10 -262144
-1 -1;
#X obj -1738 656 *;
#X obj -1735 534 t f b;
#X floatatom -1746 719 5 0 0 0 - - -;
#X obj -1560 486 r position;
#X connect 0 0 7 0;
#X connect 1 0 31 0;
#X connect 2 0 26 0;
#X connect 3 0 13 1;
#X connect 3 0 14 1;
#X connect 3 0 17 1;
#X connect 4 0 7 0;
#X connect 5 0 2 0;
#X connect 6 0 14 2;
#X connect 7 0 6 1;
#X connect 9 0 3 0;
#X connect 10 0 7 0;
#X connect 11 0 13 0;
#X connect 13 0 24 1;
#X connect 14 0 16 0;
#X connect 16 0 5 0;
#X connect 17 0 18 0;
#X connect 17 0 6 0;
#X connect 19 0 14 0;
#X connect 19 1 17 0;
#X connect 20 0 13 0;
#X connect 21 0 24 0;
#X connect 21 0 28 0;
#X connect 22 0 32 0;
#X connect 24 0 19 0;
#X connect 26 0 34 0;
#X connect 27 0 26 1;
#X connect 28 0 27 0;
#X connect 29 0 27 0;
#X connect 31 0 32 1;
#X connect 31 0 49 0;
#X connect 32 0 29 0;
#X connect 33 0 3 0;
#X connect 33 0 37 0;
#X connect 35 0 11 0;
#X connect 36 0 4 0;
#X connect 37 0 42 1;
#X connect 38 0 22 0;
#X connect 39 0 43 0;
#X connect 41 0 54 0;
#X connect 41 0 62 0;
#X connect 42 0 41 0;
#X connect 42 0 44 1;
#X connect 42 0 57 0;
#X connect 43 0 38 0;
#X connect 43 0 46 0;
#X connect 43 1 42 0;
#X connect 43 2 41 1;
#X connect 43 2 48 0;
#X connect 44 0 45 0;
#X connect 44 0 13 0;
#X connect 46 0 21 0;
#X connect 47 0 38 1;
#X connect 47 0 50 0;
#X connect 48 0 47 0;
#X connect 49 0 48 0;
#X connect 49 1 47 1;
#X connect 51 0 52 0;
#X connect 52 0 39 0;
#X connect 55 0 56 0;
#X connect 56 0 61 1;
#X connect 58 0 55 0;
#X connect 60 0 58 0;
#X connect 61 0 63 0;
#X connect 62 0 61 0;
#X connect 62 1 60 0;
#X connect 63 0 44 0;
#X connect 64 0 58 0;
#X restore 1223 505 pd sampler;
#X f 26;
#X obj 1222 545 throw~ out;
#X obj 879 269 % 2;
#X obj 873 223 t f f;
#X obj 881 305 sel 0 1;
#X msg 1231 454 150;
#N canvas 5459 -13 2560 1884 sampler 0;
#X obj -2407 97 inlet;
#X obj -2357 97 inlet;
#X obj -2417 632 tabread4~ array1;
#X floatatom -2364 265 5 0 0 0 - - -;
#X msg -2106 186 60;
#X obj -2417 605 line~;
#X obj -2351 447 /;
#N canvas 6286 258 1526 1632 pitch_to_rate 0;
#X obj 27 39 expr ($f1 - 60) / 12;
#X obj 67 114 pow;
#X msg 36 72 2;
#X obj 109 80 t b f;
#X obj 25 14 inlet;
#X obj 29 222 outlet;
#X connect 0 0 3 0;
#X connect 1 0 5 0;
#X connect 2 0 1 0;
#X connect 3 0 2 0;
#X connect 3 1 1 1;
#X connect 4 0 0 0;
#X restore -2046 423 pd pitch_to_rate;
#X text -2163 190 pitch;
#X obj -2415 225 bng 15 250 50 0 empty empty empty 17 7 0 10 -262144
-1 -1;
#X msg -2064 184 72;
#X text -2638 233 start time;
#X obj -2585 383 *;
#X obj -2429 507 pack f f f;
#X text -2349 507 start time \, end time \, period;
#X msg -2421 574 \$1 0 \, \$2 \$3;
#X obj -2357 305 expr 1000 * ($f2 - $f1) / 44100;
#X floatatom -2206 381 5 0 0 0 - - -;
#X obj -2459 434 t f f;
#X msg -2570 328 0.25;
#X obj -2506 196 bng 60 250 50 0 empty empty empty 17 7 0 10 -262144
-1 -1;
#X obj -1941 151 bng 60 250 50 0 empty empty empty 17 7 0 10 -262144
-1 -1;
#X text -2559 222 play;
#X obj -2546 413 f;
#X text -1992 153 stop;
#X obj -2415 702 *~;
#X obj -2297 716 line~;
#X msg -2304 683 1 5;
#X msg -2146 646 0 \$1;
#X text -2003 507 decay time;
#X floatatom -2016 540 5 0 0 0 - - -;
#X obj -2115 593 f;
#X obj -2270 177 r sampleLen;
#X obj -2400 771 outlet~;
#X obj -2634 292 loadbang;
#X obj -2106 150 loadbang;
#X obj -1713 115 expr 1000 * $f1 / 44100;
#X obj -1853 467 del;
#X obj -1826 106 f;
#X text -1786 81 get a random sample of this length;
#X obj -1712 216 -;
#X obj -1701 178 f;
#X obj -1816 145 t b b f;
#X obj -1739 387 /;
#X obj -1756 467 print;
#X obj -1820 251 t b b;
#X obj -1983 596 -;
#X obj -1906 514 f;
#X obj -1933 561 t b f;
#X floatatom -1993 666 5 0 0 0 - - -;
#X obj -2485 92 inlet;
#X floatatom -1853 45 5 0 0 0 - - -;
#X floatatom -1633 450 5 0 0 0 - - -;
#X obj -1582 324 print rand;
#X obj -1655 563 js javascripts/random.js 0 100;
#X obj -1676 605 / 100;
#X floatatom -1550 621 5 0 0 0 - - -;
#X floatatom -1648 525 5 0 0 0 - - -;
#X text -1603 526 position in soundfile;
#X obj -1664 491 bng 15 250 50 0 empty empty empty 17 7 0 10 -262144
-1 -1;
#X obj -1738 656 *;
#X obj -1735 534 t f b;
#X floatatom -1746 719 5 0 0 0 - - -;
#X obj -1560 486 r position;
#X connect 0 0 7 0;
#X connect 1 0 30 0;
#X connect 2 0 25 0;
#X connect 3 0 12 1;
#X connect 3 0 13 1;
#X connect 3 0 16 1;
#X connect 4 0 7 0;
#X connect 5 0 2 0;
#X connect 6 0 13 2;
#X connect 7 0 6 1;
#X connect 9 0 3 0;
#X connect 10 0 7 0;
#X connect 12 0 23 1;
#X connect 13 0 15 0;
#X connect 15 0 5 0;
#X connect 16 0 17 0;
#X connect 16 0 6 0;
#X connect 18 0 13 0;
#X connect 18 1 16 0;
#X connect 19 0 12 0;
#X connect 20 0 23 0;
#X connect 20 0 27 0;
#X connect 21 0 31 0;
#X connect 23 0 18 0;
#X connect 25 0 33 0;
#X connect 26 0 25 1;
#X connect 27 0 26 0;
#X connect 28 0 26 0;
#X connect 30 0 31 1;
#X connect 30 0 48 0;
#X connect 31 0 28 0;
#X connect 32 0 3 0;
#X connect 32 0 36 0;
#X connect 35 0 4 0;
#X connect 36 0 41 1;
#X connect 37 0 21 0;
#X connect 38 0 42 0;
#X connect 40 0 53 0;
#X connect 40 0 61 0;
#X connect 41 0 40 0;
#X connect 41 0 43 1;
#X connect 41 0 56 0;
#X connect 42 0 37 0;
#X connect 42 0 45 0;
#X connect 42 1 41 0;
#X connect 42 2 40 1;
#X connect 42 2 47 0;
#X connect 43 0 44 0;
#X connect 43 0 12 0;
#X connect 45 0 20 0;
#X connect 46 0 37 1;
#X connect 46 0 49 0;
#X connect 47 0 46 0;
#X connect 48 0 47 0;
#X connect 48 1 46 1;
#X connect 50 0 51 0;
#X connect 51 0 38 0;
#X connect 54 0 55 0;
#X connect 55 0 60 1;
#X connect 57 0 54 0;
#X connect 59 0 57 0;
#X connect 60 0 62 0;
#X connect 61 0 60 0;
#X connect 61 1 59 0;
#X connect 62 0 43 0;
#X connect 63 0 57 0;
#X restore 887 652 pd sampler;
#X f 26;
#X obj 886 692 throw~ out;
#N canvas 5459 -13 2560 1884 sampler 0;
#X obj -2407 97 inlet;
#X obj -2357 97 inlet;
#X obj -2417 632 tabread4~ array1;
#X floatatom -2364 265 5 0 0 0 - - -;
#X msg -2106 186 60;
#X obj -2417 605 line~;
#X obj -2351 447 /;
#N canvas 6286 258 1526 1632 pitch_to_rate 0;
#X obj 27 39 expr ($f1 - 60) / 12;
#X obj 67 114 pow;
#X msg 36 72 2;
#X obj 109 80 t b f;
#X obj 25 14 inlet;
#X obj 29 222 outlet;
#X connect 0 0 3 0;
#X connect 1 0 5 0;
#X connect 2 0 1 0;
#X connect 3 0 2 0;
#X connect 3 1 1 1;
#X connect 4 0 0 0;
#X restore -2046 423 pd pitch_to_rate;
#X text -2163 190 pitch;
#X obj -2415 225 bng 15 250 50 0 empty empty empty 17 7 0 10 -262144
-1 -1;
#X msg -2064 184 72;
#X msg -2622 329 0;
#X text -2638 233 start time;
#X obj -2585 383 *;
#X obj -2429 507 pack f f f;
#X text -2349 507 start time \, end time \, period;
#X msg -2421 574 \$1 0 \, \$2 \$3;
#X obj -2357 305 expr 1000 * ($f2 - $f1) / 44100;
#X floatatom -2206 381 5 0 0 0 - - -;
#X obj -2459 434 t f f;
#X msg -2570 328 0.25;
#X obj -2506 196 bng 60 250 50 0 empty empty empty 17 7 0 10 -262144
-1 -1;
#X obj -1941 151 bng 60 250 50 0 empty empty empty 17 7 0 10 -262144
-1 -1;
#X text -2559 222 play;
#X obj -2546 413 f;
#X text -1992 153 stop;
#X obj -2415 702 *~;
#X obj -2297 716 line~;
#X msg -2304 683 1 5;
#X msg -2146 646 0 \$1;
#X text -2003 507 decay time;
#X floatatom -2016 540 5 0 0 0 - - -;
#X obj -2115 593 f;
#X obj -2270 177 r sampleLen;
#X obj -2400 771 outlet~;
#X obj -2634 292 loadbang;
#X obj -2106 150 loadbang;
#X obj -1713 115 expr 1000 * $f1 / 44100;
#X obj -1853 467 del;
#X obj -1826 106 f;
#X text -1786 81 get a random sample of this length;
#X obj -1712 216 -;
#X obj -1701 178 f;
#X obj -1816 145 t b b f;
#X obj -1739 387 /;
#X obj -1756 467 print;
#X obj -1820 251 t b b;
#X obj -1983 596 -;
#X obj -1906 514 f;
#X obj -1933 561 t b f;
#X floatatom -1993 666 5 0 0 0 - - -;
#X obj -2485 92 inlet;
#X floatatom -1853 45 5 0 0 0 - - -;
#X floatatom -1633 450 5 0 0 0 - - -;
#X obj -1582 324 print rand;
#X obj -1655 563 js javascripts/random.js 0 100;
#X obj -1676 605 / 100;
#X floatatom -1550 621 5 0 0 0 - - -;
#X floatatom -1648 525 5 0 0 0 - - -;
#X text -1603 526 position in soundfile;
#X obj -1664 491 bng 15 250 50 0 empty empty empty 17 7 0 10 -262144
-1 -1;
#X obj -1738 656 *;
#X obj -1735 534 t f b;
#X floatatom -1746 719 5 0 0 0 - - -;
#X obj -1560 486 r position;
#X connect 0 0 7 0;
#X connect 1 0 31 0;
#X connect 2 0 26 0;
#X connect 3 0 13 1;
#X connect 3 0 14 1;
#X connect 3 0 17 1;
#X connect 4 0 7 0;
#X connect 5 0 2 0;
#X connect 6 0 14 2;
#X connect 7 0 6 1;
#X connect 9 0 3 0;
#X connect 10 0 7 0;
#X connect 11 0 13 0;
#X connect 13 0 24 1;
#X connect 14 0 16 0;
#X connect 16 0 5 0;
#X connect 17 0 18 0;
#X connect 17 0 6 0;
#X connect 19 0 14 0;
#X connect 19 1 17 0;
#X connect 20 0 13 0;
#X connect 21 0 24 0;
#X connect 21 0 28 0;
#X connect 22 0 32 0;
#X connect 24 0 19 0;
#X connect 26 0 34 0;
#X connect 27 0 26 1;
#X connect 28 0 27 0;
#X connect 29 0 27 0;
#X connect 31 0 32 1;
#X connect 31 0 49 0;
#X connect 32 0 29 0;
#X connect 33 0 3 0;
#X connect 33 0 37 0;
#X connect 35 0 11 0;
#X connect 36 0 4 0;
#X connect 37 0 42 1;
#X connect 38 0 22 0;
#X connect 39 0 43 0;
#X connect 41 0 54 0;
#X connect 41 0 62 0;
#X connect 42 0 41 0;
#X connect 42 0 44 1;
#X connect 42 0 57 0;
#X connect 43 0 38 0;
#X connect 43 0 46 0;
#X connect 43 1 42 0;
#X connect 43 2 41 1;
#X connect 43 2 48 0;
#X connect 44 0 45 0;
#X connect 44 0 13 0;
#X connect 46 0 21 0;
#X connect 47 0 38 1;
#X connect 47 0 50 0;
#X connect 48 0 47 0;
#X connect 49 0 48 0;
#X connect 49 1 47 1;
#X connect 51 0 52 0;
#X connect 52 0 39 0;
#X connect 55 0 56 0;
#X connect 56 0 61 1;
#X connect 58 0 55 0;
#X connect 60 0 58 0;
#X connect 61 0 63 0;
#X connect 62 0 61 0;
#X connect 62 1 60 0;
#X connect 63 0 44 0;
#X connect 64 0 58 0;
#X restore 1216 647 pd sampler;
#X f 26;
#X obj 1215 687 throw~ out;
#X obj 1002 271 - 7;
#X msg 1224 596 300;
#X obj 1252 159 bng 15 250 50 0 empty empty empty 17 7 0 10 -262144
-1 -1;
#X obj 1247 289 print;
#X msg 1368 132 compile;
#X obj 1253 230 js javascripts/random.js 0 100;
#X obj 1335 327 hsl 128 15 0 100 0 0 empty empty empty -2 -8 0 10 -262144
-1 -1 21836 1;
#X msg 1405 449 100;
#X msg 1398 591 290;
#X msg 1037 451 9;
#X msg 1042 599 8;
#X obj 1274 383 * 3;
#X msg 872 452 270;
#X msg 877 599 500;
#X floatatom 637 708 5 0 0 0 - - -;
#X text 622 678 doubled transp;
#X obj 972 595 + 12;
#X obj 1293 593 + 24;
#X obj 641 739 s trans;
#X obj 1004 563 r trans;
#X obj 1331 558 r trans;
#X floatatom 769 718 5 0 0 0 - - -;
#X text 772 685 central rate;
#X obj 1231 113 f;
#X obj 1232 53 r rate;
#X obj 764 745 s rate;
#N canvas 0 50 972 560 melodies 1;
#X msg 35 87 \; melody 0 60 67 65 60 63 70;
#X obj 53 38 loadbang;
#X msg 31 179 \; melody 0 60 67 0 60 63 70;
#X msg 251 89 \; melody 0 60 67 0 0 63 70;
#X msg 260 178 \; melody 0 60 67 0 0 0 0;
#X obj 220 17 inlet;
#X obj 219 48 sel 0 1 2 3;
#X connect 1 0 0 0;
#X connect 5 0 6 0;
#X connect 6 0 0 0;
#X connect 6 1 2 0;
#X connect 6 2 3 0;
#X connect 6 3 4 0;
#X restore 525 747 pd melodies;
#X obj 513 701 hradio 15 1 0 4 empty empty empty 0 -8 0 10 -262144
-1 -1 1;
#X obj 1349 595 * 2;
#X obj 368 708 s position;
#X obj 382 674 hsl 128 15 -20 120 0 0 empty empty empty -2 -8 0 10
-262144 -1 -1 25400 1;
#X obj 148 72 adc~;
#X floatatom 185 214 5 0 0 0 - - -;
#N canvas 1110 241 1102 908 feature-extraction 0;
#X obj 57 246 specBrightness~ 440 1200;
#N canvas 359 124 1520 957 onsets 0;
#X obj 56 53 inlet~;
#X obj 206 323 outlet;
#X obj 3 4 cnv 10 400 10 empty empty empty 20 12 0 14 -233017 -66577
0;
#X obj 3 4 cnv 10 10 400 empty empty empty 20 12 0 14 -233017 -66577
0;
#X obj 178 173 bng 15 250 50 0 empty empty empty 17 7 0 10 -262144
-1 -1;
#X obj 171 96 r bark-settings;
#X text 308 53 timbreID comes with its own onset detection object:
bark~. See its helpfile for more details. In comparison with bonk~
(the usual onset detection object in Pd) \, bark~ performs very similarly
but has several extra conveniences. Most importantly \, there is a
non-real-time version of the object \, enabling easy parsing of pre-recorded
audio.;
#X obj 146 135 bark~ 1024 256 0.5;
#X obj 336 292 loadbang;
#X msg 336 314 \; bark-settings minvel 15 \; bark-settings debounce
350 \; bark-settings thresh 5 12 \; bark-settings filter_range 20 49
\;;
#X obj 45 361 outlet~;
#X text 308 163 Doing the attack detection in a subpatch with the input
signal connected in series before [bfcc~] guarantees the DSP order.
We first analyze the signal with [bark~] here to look for attacks \,
and if we find one \, spit out a bang to get the most recent BFCC analysis
possible back in the parent patch.;
#X text 558 321 These were good onset detection settings for the audio
files used in this help file., f 22;
#X obj 285 319 outlet;
#X connect 0 0 7 0;
#X connect 0 0 10 0;
#X connect 5 0 7 0;
#X connect 7 0 4 0;
#X connect 7 0 1 0;
#X connect 7 1 13 0;
#X connect 8 0 9 0;
#X restore 73 113 pd onsets;
#X obj 75 27 declare -lib timbreID/timbreIDLib;
#X obj 67 77 inlet~;
#X obj 64 339 outlet;
#X obj 119 338 outlet;
#X obj 372 75 tgl 15 0 empty empty empty 17 7 0 10 -262144 -1 -1 1
1;
#X obj 372 95 metro 100;
#X obj 376 116 t b b;
#X obj 270 206 specHarmonicity~ 4096;
#N canvas 505 281 757 408 get-spectrum-and-pitch 0;
#X obj 355 248 mtof;
#X obj 297 199 moses 0;
#N canvas 205 170 525 260 do-plotting 0;
#X obj 79 37 inlet;
#X obj 79 173 list prepend 0;
#X obj 203 76 list length;
#X obj 203 138 change;
#X obj 203 160 pack f \$0;
#X obj 79 59 t l l;
#X obj 79 194 s \$0-magSpec-graph;
#X msg 203 181 \; \$2-magSpec-graph resize \$1 \;;
#X obj 203 98 / 8;
#X text 253 100 only show the first 1/8th of the spectrum;
#X connect 0 0 5 0;
#X connect 1 0 6 0;
#X connect 2 0 8 0;
#X connect 3 0 4 0;
#X connect 4 0 7 0;
#X connect 5 0 1 0;
#X connect 5 1 2 0;
#X connect 8 0 3 0;
#X restore 109 232 pd do-plotting;
#X obj 109 203 magSpec~ 4096;
#X obj 267 324 outlet;
#X obj 65 21 inlet~;
#X obj 65 324 outlet~;
#X obj 195 21 inlet;
#X text 290 53 If you choose to use the "input_fund" feature to specify
the fundamental frequency via [cepstrumPitch~] or [sigmund~] \, do
pitch analysis BEFORE harmonicity measure by putting [sigmund~] in
a series-patched subpatch connected to [specHarmonicity~].;
#X obj 195 43 t b b;
#X obj 267 280 f;
#X obj 297 177 sigmund~ pitch -npts 4096 -hop 512 -maxfreq 3000;
#X floatatom 277 304 10 0 0 1 Hz - -;
#X connect 0 0 10 1;
#X connect 1 1 0 0;
#X connect 3 0 2 0;
#X connect 5 0 3 0;
#X connect 5 0 6 0;
#X connect 5 0 11 0;
#X connect 7 0 9 0;
#X connect 9 0 3 0;
#X connect 9 1 10 0;
#X connect 10 0 4 0;
#X connect 10 0 12 0;
#X connect 11 0 1 0;
#X restore 273 153 pd get-spectrum-and-pitch;
#X obj 279 337 outlet;
#X obj 371 341 outlet;
#X obj 154 151 unpack f f;
#X obj 178 100 bonk~;
#X obj 6 339 outlet;
#X obj 427 26 loadbang;
#X connect 0 0 4 0;
#X connect 1 0 0 0;
#X connect 1 1 0 0;
#X connect 1 1 15 0;
#X connect 3 0 1 0;
#X connect 3 0 14 0;
#X connect 3 0 10 0;
#X connect 6 0 7 0;
#X connect 7 0 8 0;
#X connect 8 0 9 0;
#X connect 8 1 10 1;
#X connect 9 0 11 0;
#X connect 9 1 12 0;
#X connect 10 0 9 0;
#X connect 10 1 9 1;
#X connect 13 1 5 0;
#X connect 14 1 13 0;
#X connect 16 0 6 0;
#X restore 137 146 pd feature-extraction;
#X floatatom 233 214 5 0 0 0 - - -;
#X floatatom 281 215 5 0 0 0 - - -;
#X text 329 242 brightness \, power \, harmonicity \, inharmonicity
;
#X obj 358 83 vsl 15 128 0 1 0 0 empty empty empty 0 -9 0 10 -257985
-1 -1 2718 1;
#X obj 143 349 bng 60 250 50 0 empty empty empty 17 7 0 10 -262144
-1 -1;
#X obj 413 80 vsl 15 128 0 50 0 0 empty empty empty 0 -9 0 10 -258113
-1 -1 3806 1;
#X obj 461 79 vsl 15 128 0 1 0 0 empty empty empty 0 -9 0 10 -4032
-1 -1 16934 1;
#X obj 506 80 vsl 15 128 0 1 0 0 empty empty empty 0 -9 0 10 -4032
-1 -1 7042 1;
#X obj 335 492 hsl 128 15 -20 120 0 0 empty empty empty -2 -8 0 10
-262144 -1 -1 25400 1;
#X obj 231 300 metro 100;
#X obj 228 365 t b f;
#X text 335 510 playhead position;
#X obj 230 262 tgl 15 0 empty empty empty 17 7 0 10 -262144 -1 -1 1
1;
#X msg 388 469 set \$1;
#X obj 352 401 +;
#X obj 392 442 min 120;
#X obj 392 414 max -20;
#X obj 418 303 *;
#X floatatom 398 342 5 0 0 0 - - -;
#X floatatom 134 215 5 0 0 0 - - -;
#X obj 265 332 * -3;
#X msg 232 327 2;
#X obj 649 511 max 0;
#X obj 649 539 min 100;
#X obj 596 586 hsl 128 15 -20 120 0 0 empty empty empty -2 -8 0 10
-262144 -1 -1 21772 1;
#X msg 649 563 set \$1;
#X obj 528 438 t b f;
#X obj 652 474 +;
#X obj 565 405 * -0.4;
#X msg 532 400 4;
#X connect 0 0 1 0;
#X connect 1 0 11 0;
#X connect 2 0 0 0;
#X connect 3 0 2 0;
#X connect 4 0 5 0;
#X connect 4 0 5 1;
#X connect 6 0 7 1;
#X connect 7 0 4 0;
#X connect 10 0 12 0;
#X connect 13 0 7 0;
#X connect 15 0 16 0;
#X connect 15 0 18 0;
#X connect 16 0 15 1;
#X connect 17 0 34 0;
#X connect 18 0 27 0;
#X connect 19 0 23 0;
#X connect 20 0 10 1;
#X connect 20 0 50 0;
#X connect 20 0 51 0;
#X connect 21 0 17 0;
#X connect 23 0 15 0;
#X connect 23 0 57 0;
#X connect 26 0 28 0;
#X connect 27 0 26 0;
#X connect 27 1 17 0;
#X connect 28 0 46 0;
#X connect 28 0 47 0;
#X connect 28 1 29 0;
#X connect 28 1 35 0;
#X connect 29 0 24 0;
#X connect 30 0 31 0;
#X connect 32 0 33 0;
#X connect 34 0 20 0;
#X connect 35 0 32 0;
#X connect 36 0 39 0;
#X connect 38 0 39 0;
#X connect 39 0 37 0;
#X connect 39 0 40 0;
#X connect 40 0 45 0;
#X connect 41 0 24 2;
#X connect 42 0 32 2;
#X connect 43 0 10 2;
#X connect 44 0 30 2;
#X connect 45 0 23 1;
#X connect 45 0 24 1;
#X connect 46 0 10 0;
#X connect 47 0 30 0;
#X connect 48 0 52 0;
#X connect 50 0 30 1;
#X connect 51 0 32 1;
#X connect 53 0 50 1;
#X connect 54 0 62 0;
#X connect 55 0 59 0;
#X connect 57 0 39 0;
#X connect 58 0 57 1;
#X connect 61 0 60 0;
#X connect 62 0 51 1;
#X connect 64 0 63 0;
#X connect 65 0 67 0;
#X connect 66 0 73 0;
#X connect 67 0 72 0;
#X connect 67 1 87 0;
#X connect 67 2 66 0;
#X connect 67 3 68 0;
#X connect 67 4 69 0;
#X connect 68 0 74 0;
#X connect 69 0 75 0;
#X connect 71 0 85 0;
#X connect 73 0 85 1;
#X connect 73 0 96 0;
#X connect 76 0 82 0;
#X connect 76 0 64 0;
#X connect 77 0 89 0;
#X connect 77 0 97 0;
#X connect 78 0 76 0;
#X connect 78 1 82 1;
#X connect 80 0 77 0;
#X connect 81 0 76 0;
#X connect 82 0 84 0;
#X connect 83 0 81 0;
#X connect 84 0 83 0;
#X connect 85 0 86 0;
#X connect 85 0 88 0;
#X connect 87 0 71 0;
#X connect 88 0 78 0;
#X connect 89 0 78 0;
#X connect 90 0 91 0;
#X connect 91 0 93 0;
#X connect 92 0 95 0;
#X connect 92 0 55 0;
#X connect 93 0 92 0;
#X connect 94 0 92 0;
#X connect 94 1 95 1;
#X connect 95 0 90 0;
#X connect 96 0 94 0;
#X connect 97 0 94 0;
