#N canvas 359 53 1970 1315 12;
#X declare -path ../abstractions;
#X declare -path ../;
#X obj 83 128 declare -path ../abstractions;
#X obj 87 164 declare -path ../;
#X obj 1020 291 adc~;
#X floatatom 1028 419 8 0 0 0 - - - 0;
#X obj 1028 363 env~ 16384 8192;
#X obj 1029 505 vu 15 120 empty empty -1 -8 0 10 #404040 #000000 1
0;
#X obj 1028 472 - 100;
#X text 495 237 inlet for spectral brightness settings;
#X obj 1592 99 bng 60 250 50 0 empty empty ANALYZE\\\ DATA 17 -15 0
15 #fcfcfc #000000 #000000;
#X obj 173 543 vsl 30 128 -3 3 0 0 empty empty time\\\ since\\\ last\\\ note
0 -9 0 15 #fcfcfc #000000 #000000 0 1;
#X obj 379 534 vsl 30 128 -3 3 0 0 empty empty brightness 0 -9 0 15
#fcfcfc #000000 #000000 0 1;
#X obj 503 534 vsl 30 128 -3 3 0 0 empty empty power 0 -9 0 15 #fcfcfc
#000000 #000000 0 1;
#X obj 587 545 vsl 30 128 -3 3 0 0 empty empty harmonicity 0 -9 0 15
#fcfcfc #000000 #000000 0 1;
#X obj 721 545 vsl 30 128 -3 3 0 0 empty empty inharmonicity 0 -9 0
15 #fcfcfc #000000 #000000 0 1;
#X obj 361 263 feature-extraction-better, f 67;
#X obj 862 557 vsl 30 128 -3 3 0 0 empty empty flatness 0 -9 0 15 #fcfcfc
#000000 #000000 0 1;
#X obj 967 546 vsl 30 128 -3 3 0 0 empty empty pitch 0 -9 0 15 #fcfcfc
#000000 #000000 0 1;
#N canvas 176 796 1165 610 feature 0;
#X obj 328 192 js ../javascripts/std.js;
#X obj 184 386 standardize;
#X obj 243 164 spigot;
#X obj 279 123 r new-data;
#X msg 467 242 set \$1;
#X msg 323 234 set \$1;
#X msg 317 285 390.059;
#X msg 468 279 374.25;
#X obj 545 137 t b b;
#X obj 78 69 inlet;
#X obj 231 225 loadbang;
#X obj 183 437 outlet;
#X obj 606 83 r build-all;
#X obj 371 64 r msg-all;
#X connect 0 0 5 0;
#X connect 0 1 4 0;
#X connect 1 0 11 0;
#X connect 2 0 0 0;
#X connect 3 0 2 1;
#X connect 4 0 7 0;
#X connect 5 0 6 0;
#X connect 6 0 1 1;
#X connect 7 0 1 2;
#X connect 8 0 6 0;
#X connect 8 1 0 0;
#X connect 8 1 7 0;
#X connect 9 0 2 0;
#X connect 9 0 1 0;
#X connect 10 0 6 0;
#X connect 10 0 7 0;
#X connect 12 0 8 0;
#X connect 13 0 0 0;
#X restore 303 397 pd feature;
#N canvas 689 624 1165 610 feature 0;
#X obj 328 192 js ../javascripts/std.js;
#X obj 184 386 standardize;
#X obj 243 164 spigot;
#X obj 279 123 r new-data;
#X msg 467 242 set \$1;
#X msg 323 234 set \$1;
#X msg 317 285 1.16601;
#X msg 468 279 -1.18436;
#X obj 545 137 t b b;
#X obj 78 69 inlet;
#X obj 231 225 loadbang;
#X obj 183 437 outlet;
#X obj 606 83 r build-all;
#X obj 371 64 r msg-all;
#X connect 0 0 5 0;
#X connect 0 1 4 0;
#X connect 1 0 11 0;
#X connect 2 0 0 0;
#X connect 3 0 2 1;
#X connect 4 0 7 0;
#X connect 5 0 6 0;
#X connect 6 0 1 1;
#X connect 7 0 1 2;
#X connect 8 0 6 0;
#X connect 8 1 0 0;
#X connect 8 1 7 0;
#X connect 9 0 2 0;
#X connect 9 0 1 0;
#X connect 10 0 6 0;
#X connect 10 0 7 0;
#X connect 12 0 8 0;
#X connect 13 0 0 0;
#X restore 398 398 pd feature;
#N canvas 689 624 1165 610 feature 0;
#X obj 328 192 js ../javascripts/std.js;
#X obj 184 386 standardize;
#X obj 243 164 spigot;
#X obj 279 123 r new-data;
#X msg 467 242 set \$1;
#X msg 323 234 set \$1;
#X msg 317 285 1.57875;
#X msg 468 279 5.22448;
#X obj 545 137 t b b;
#X obj 78 69 inlet;
#X obj 231 225 loadbang;
#X obj 183 437 outlet;
#X obj 606 83 r build-all;
#X obj 371 64 r msg-all;
#X connect 0 0 5 0;
#X connect 0 1 4 0;
#X connect 1 0 11 0;
#X connect 2 0 0 0;
#X connect 3 0 2 1;
#X connect 4 0 7 0;
#X connect 5 0 6 0;
#X connect 6 0 1 1;
#X connect 7 0 1 2;
#X connect 8 0 6 0;
#X connect 8 1 0 0;
#X connect 8 1 7 0;
#X connect 9 0 2 0;
#X connect 9 0 1 0;
#X connect 10 0 6 0;
#X connect 10 0 7 0;
#X connect 12 0 8 0;
#X connect 13 0 0 0;
#X restore 494 398 pd feature;
#N canvas 689 624 1165 610 feature 0;
#X obj 328 192 js ../javascripts/std.js;
#X obj 184 386 standardize;
#X obj 243 164 spigot;
#X obj 279 123 r new-data;
#X msg 467 242 set \$1;
#X msg 323 234 set \$1;
#X msg 317 285 0.175853;
#X msg 468 279 0.709697;
#X obj 545 137 t b b;
#X obj 78 69 inlet;
#X obj 231 225 loadbang;
#X obj 183 437 outlet;
#X obj 606 83 r build-all;
#X obj 371 64 r msg-all;
#X connect 0 0 5 0;
#X connect 0 1 4 0;
#X connect 1 0 11 0;
#X connect 2 0 0 0;
#X connect 3 0 2 1;
#X connect 4 0 7 0;
#X connect 5 0 6 0;
#X connect 6 0 1 1;
#X connect 7 0 1 2;
#X connect 8 0 6 0;
#X connect 8 1 0 0;
#X connect 8 1 7 0;
#X connect 9 0 2 0;
#X connect 9 0 1 0;
#X connect 10 0 6 0;
#X connect 10 0 7 0;
#X connect 12 0 8 0;
#X connect 13 0 0 0;
#X restore 585 397 pd feature;
#N canvas 689 624 1165 610 feature 0;
#X obj 328 192 js ../javascripts/std.js;
#X obj 184 386 standardize;
#X obj 243 164 spigot;
#X obj 279 123 r new-data;
#X msg 467 242 set \$1;
#X msg 323 234 set \$1;
#X msg 317 285 0.438647;
#X msg 468 279 0.551899;
#X obj 545 137 t b b;
#X obj 78 69 inlet;
#X obj 231 225 loadbang;
#X obj 183 437 outlet;
#X obj 606 83 r build-all;
#X obj 371 64 r msg-all;
#X connect 0 0 5 0;
#X connect 0 1 4 0;
#X connect 1 0 11 0;
#X connect 2 0 0 0;
#X connect 3 0 2 1;
#X connect 4 0 7 0;
#X connect 5 0 6 0;
#X connect 6 0 1 1;
#X connect 7 0 1 2;
#X connect 8 0 6 0;
#X connect 8 1 0 0;
#X connect 8 1 7 0;
#X connect 9 0 2 0;
#X connect 9 0 1 0;
#X connect 10 0 6 0;
#X connect 10 0 7 0;
#X connect 12 0 8 0;
#X connect 13 0 0 0;
#X restore 686 397 pd feature;
#N canvas 689 624 1165 610 feature 0;
#X obj 328 192 js ../javascripts/std.js;
#X obj 184 386 standardize;
#X obj 243 164 spigot;
#X obj 279 123 r new-data;
#X msg 467 242 set \$1;
#X msg 323 234 set \$1;
#X msg 317 285 0.0119306;
#X msg 468 279 0.0124802;
#X obj 545 137 t b b;
#X obj 78 69 inlet;
#X obj 231 225 loadbang;
#X obj 183 437 outlet;
#X obj 606 83 r build-all;
#X obj 371 64 r msg-all;
#X connect 0 0 5 0;
#X connect 0 1 4 0;
#X connect 1 0 11 0;
#X connect 2 0 0 0;
#X connect 3 0 2 1;
#X connect 4 0 7 0;
#X connect 5 0 6 0;
#X connect 6 0 1 1;
#X connect 7 0 1 2;
#X connect 8 0 6 0;
#X connect 8 1 0 0;
#X connect 8 1 7 0;
#X connect 9 0 2 0;
#X connect 9 0 1 0;
#X connect 10 0 6 0;
#X connect 10 0 7 0;
#X connect 12 0 8 0;
#X connect 13 0 0 0;
#X restore 789 400 pd feature;
#N canvas 689 624 1165 610 feature 0;
#X obj 328 192 js ../javascripts/std.js;
#X obj 184 386 standardize;
#X obj 243 164 spigot;
#X obj 279 123 r new-data;
#X msg 467 242 set \$1;
#X msg 323 234 set \$1;
#X msg 317 285 12.1695;
#X msg 468 279 56.7676;
#X obj 545 137 t b b;
#X obj 78 69 inlet;
#X obj 231 225 loadbang;
#X obj 183 437 outlet;
#X obj 606 83 r build-all;
#X obj 371 64 r msg-all;
#X connect 0 0 5 0;
#X connect 0 1 4 0;
#X connect 1 0 11 0;
#X connect 2 0 0 0;
#X connect 3 0 2 1;
#X connect 4 0 7 0;
#X connect 5 0 6 0;
#X connect 6 0 1 1;
#X connect 7 0 1 2;
#X connect 8 0 6 0;
#X connect 8 1 0 0;
#X connect 8 1 7 0;
#X connect 9 0 2 0;
#X connect 9 0 1 0;
#X connect 10 0 6 0;
#X connect 10 0 7 0;
#X connect 12 0 8 0;
#X connect 13 0 0 0;
#X restore 887 401 pd feature;
#X obj 1027 328 *~;
#X obj 1615 309 s build-all;
#X obj 415 150 inlet~;
#X obj 316 778 outlet;
#X obj 405 779 outlet;
#X obj 504 781 outlet;
#X obj 605 779 outlet;
#X obj 696 782 outlet;
#X obj 784 783 outlet;
#X obj 886 789 outlet;
#X obj 1322 113 bng 60 250 50 0 empty empty START\\\ RECORDING 17 -15
0 15 #fcfcfc #000000 #000000;
#X obj 1143 112 bng 60 250 50 0 empty empty STOP\\\ RECORDING 17 -15
0 15 #fcfcfc #000000 #000000;
#X obj 867 75 tgl 60 0 empty empty TEST\\\ RESULTS 17 -15 0 15 #fcfcfc
#000000 #000000 0 1;
#N canvas 299 350 565 808 input 0;
#X msg 326 149 reset;
#X obj 227 286 tgl 60 0 empty empty empty 17 7 0 10 #fcfcfc #000000
#000000 0 1;
#X obj 237 383 s new-data;
#X msg 388 257 1;
#X obj 324 192 s msg-all;
#X msg 168 232 0;
#X obj 336 55 inlet;
#X obj 146 80 inlet;
#X obj 89 340 tgl 15 0 empty empty empty 17 7 0 10 #fcfcfc #000000
#000000 0 1;
#X obj 70 418 outlet;
#X obj 72 188 inlet;
#X connect 0 0 3 0;
#X connect 0 0 4 0;
#X connect 1 0 2 0;
#X connect 1 0 8 0;
#X connect 3 0 1 0;
#X connect 5 0 1 0;
#X connect 6 0 0 0;
#X connect 7 0 5 0;
#X connect 8 0 9 0;
#X connect 10 0 8 0;
#X restore 1255 286 pd input;
#X obj 712 58 loadbang;
#X msg 731 94 0;
#X connect 2 0 24 0;
#X connect 3 0 6 0;
#X connect 4 0 3 0;
#X connect 6 0 5 0;
#X connect 8 0 25 0;
#X connect 9 0 27 0;
#X connect 10 0 28 0;
#X connect 11 0 29 0;
#X connect 12 0 30 0;
#X connect 13 0 31 0;
#X connect 14 0 17 0;
#X connect 14 1 18 0;
#X connect 14 2 19 0;
#X connect 14 3 20 0;
#X connect 14 4 21 0;
#X connect 14 5 22 0;
#X connect 14 6 23 0;
#X connect 15 0 32 0;
#X connect 16 0 33 0;
#X connect 17 0 9 0;
#X connect 18 0 10 0;
#X connect 19 0 11 0;
#X connect 20 0 12 0;
#X connect 21 0 13 0;
#X connect 22 0 15 0;
#X connect 23 0 16 0;
#X connect 24 0 4 0;
#X connect 24 0 14 0;
#X connect 26 0 14 0;
#X connect 34 0 37 2;
#X connect 35 0 37 1;
#X connect 36 0 37 0;
#X connect 37 0 24 1;
#X connect 38 0 39 0;
#X connect 39 0 36 0;
