#N canvas 857 23 1703 1315 12;
#X declare -path ../abstractions;
#X declare -path ../;
#X msg 183 89 reset;
#X floatatom 254 578 5 0 0 0 - - - 0;
#X floatatom 83 580 5 0 0 0 - - - 0;
#X obj 289 72 declare -path ../abstractions;
#X obj 935 278 s bang-all;
#X floatatom 512 581 5 0 0 0 - - - 0;
#X floatatom 341 583 5 0 0 0 - - - 0;
#X floatatom 769 575 5 0 0 0 - - - 0;
#X floatatom 598 577 5 0 0 0 - - - 0;
#X floatatom 1013 569 5 0 0 0 - - - 0;
#X floatatom 842 571 5 0 0 0 - - - 0;
#X floatatom 1266 563 5 0 0 0 - - - 0;
#X floatatom 1095 565 5 0 0 0 - - - 0;
#X obj 64 480 r bang-all;
#X obj 343 504 r bang-all;
#X obj 595 502 r bang-all;
#X obj 842 497 r bang-all;
#X obj 1095 492 r bang-all;
#X floatatom 323 329 5 0 0 0 - - - 0;
#X floatatom 379 330 5 0 0 0 - - - 0;
#X floatatom 430 330 5 0 0 0 - - - 0;
#X floatatom 485 331 5 0 0 0 - - - 0;
#X floatatom 538 332 5 0 0 0 - - - 0;
#X obj 754 120 readsf~;
#X msg 368 149 boundary 9000;
#X obj 835 75 declare -path ../;
#X obj 85 540 js ../javascripts/std.js;
#X obj 343 543 js ../javascripts/std.js;
#X obj 600 537 js ../javascripts/std.js;
#X obj 844 531 js ../javascripts/std.js;
#X obj 1097 525 js ../javascripts/std.js;
#X text 60 920 time since last note \, brightness \, power \, harmonicity
\, inharmonicity \, spectral flatness, f 109;
#X obj 101 136 s start;
#X obj 104 106 bng 15 250 50 0 empty empty empty 17 7 0 10 #fcfcfc
#000000 #000000;
#X obj 181 132 s bang-all;
#X obj 1094 8 adc~;
#X floatatom 1095 108 8 0 0 0 - - - 0;
#X obj 1095 52 env~ 16384 8192;
#X obj 1096 194 vu 15 120 empty empty -1 -8 0 10 #404040 #000000 1
0;
#X obj 1095 161 - 100;
#X text 495 237 inlet for spectral brightness settings;
#X obj 1008 214 bng 15 250 50 0 empty empty empty 17 7 0 10 #fcfcfc
#000000 #000000;
#X obj 79 640 standardize;
#X obj 418 649 standardize;
#X obj 666 641 standardize;
#X obj 820 633 standardize;
#X obj 1068 627 standardize;
#X obj 1023 484 spigot;
#X obj 84 226 tgl 60 0 empty empty empty 17 7 0 10 #fcfcfc #000000
#000000 0 1;
#X obj 767 473 spigot;
#X obj 509 476 spigot;
#X obj 291 475 spigot;
#X obj 157 488 spigot;
#X obj 94 323 s new-data;
#X obj 204 446 r new-data;
#X obj 336 444 r new-data;
#X obj 584 444 r new-data;
#X obj 807 443 r new-data;
#X obj 1059 443 r new-data;
#X obj 101 746 vsl 15 128 -3 3 0 0 empty empty time\ since\ last\ note
0 -9 0 10 #fcfcfc #000000 #000000 0 1;
#X obj 432 740 vsl 15 128 -3 3 0 0 empty empty brightness 0 -9 0 10
#fcfcfc #000000 #000000 0 1;
#X obj 664 731 vsl 15 128 -3 3 0 0 empty empty power 0 -9 0 10 #fcfcfc
#000000 #000000 0 1;
#X obj 833 738 vsl 15 128 -3 3 0 0 empty empty harmonicity 0 -9 0 10
#fcfcfc #000000 #000000 0 1;
#X obj 1080 733 vsl 15 128 -3 3 0 0 empty empty inharmonicity 0 -9
0 10 #fcfcfc #000000 #000000 0 1;
#X msg 25 172 set 0;
#X obj 0 121 loadbang;
#X msg 245 196 set 1;
#X floatatom 210 707 16 0 0 0 - - - 0;
#X obj 244 776 print;
#X obj 361 263 feature-extraction-better;
#X floatatom 619 312 5 0 0 0 - - - 0;
#X floatatom 1351 567 5 0 0 0 - - - 0;
#X floatatom 1604 561 5 0 0 0 - - - 0;
#X floatatom 1433 563 5 0 0 0 - - - 0;
#X obj 1433 490 r bang-all;
#X obj 1435 523 js ../javascripts/std.js;
#X obj 1406 625 standardize;
#X obj 1361 482 spigot;
#X obj 1397 441 r new-data;
#X obj 1418 731 vsl 15 128 -3 3 0 0 empty empty flatness 0 -9 0 10
#fcfcfc #000000 #000000 0 1;
#X floatatom 33 509 5 0 0 0 - - - 0;
#X msg 215 45 compile;
#X connect 0 0 33 0;
#X connect 0 0 34 0;
#X connect 0 0 66 0;
#X connect 1 0 42 2;
#X connect 2 0 42 1;
#X connect 5 0 43 2;
#X connect 6 0 43 1;
#X connect 7 0 44 2;
#X connect 8 0 44 1;
#X connect 9 0 45 2;
#X connect 10 0 45 1;
#X connect 11 0 46 2;
#X connect 12 0 46 1;
#X connect 13 0 26 0;
#X connect 14 0 27 0;
#X connect 15 0 28 0;
#X connect 16 0 29 0;
#X connect 17 0 30 0;
#X connect 18 0 52 0;
#X connect 18 0 42 0;
#X connect 19 0 51 0;
#X connect 19 0 43 0;
#X connect 20 0 50 0;
#X connect 20 0 44 0;
#X connect 21 0 49 0;
#X connect 21 0 45 0;
#X connect 22 0 47 0;
#X connect 22 0 46 0;
#X connect 23 0 69 0;
#X connect 23 1 4 0;
#X connect 26 0 2 0;
#X connect 26 1 1 0;
#X connect 27 0 6 0;
#X connect 27 1 5 0;
#X connect 28 0 8 0;
#X connect 28 1 7 0;
#X connect 29 0 10 0;
#X connect 29 1 9 0;
#X connect 30 0 12 0;
#X connect 30 1 11 0;
#X connect 33 0 32 0;
#X connect 35 0 37 0;
#X connect 35 0 69 0;
#X connect 36 0 39 0;
#X connect 37 0 36 0;
#X connect 39 0 38 0;
#X connect 41 0 4 0;
#X connect 42 0 59 0;
#X connect 42 0 67 0;
#X connect 42 0 68 0;
#X connect 43 0 60 0;
#X connect 44 0 61 0;
#X connect 45 0 62 0;
#X connect 46 0 63 0;
#X connect 47 0 30 0;
#X connect 48 0 53 0;
#X connect 49 0 29 0;
#X connect 50 0 28 0;
#X connect 51 0 27 0;
#X connect 52 0 26 0;
#X connect 52 0 80 0;
#X connect 54 0 52 1;
#X connect 55 0 51 1;
#X connect 56 0 50 1;
#X connect 57 0 49 1;
#X connect 58 0 47 1;
#X connect 64 0 48 0;
#X connect 65 0 64 0;
#X connect 66 0 48 0;
#X connect 69 0 18 0;
#X connect 69 1 19 0;
#X connect 69 2 20 0;
#X connect 69 3 21 0;
#X connect 69 4 22 0;
#X connect 69 5 70 0;
#X connect 70 0 77 0;
#X connect 70 0 76 0;
#X connect 72 0 76 2;
#X connect 73 0 76 1;
#X connect 74 0 75 0;
#X connect 75 0 73 0;
#X connect 75 1 72 0;
#X connect 76 0 79 0;
#X connect 77 0 75 0;
#X connect 78 0 77 1;
#X connect 81 0 34 0;
