#N canvas 665 138 1487 1315 12;
#X declare -path ../abstractions;
#X msg 183 89 reset;
#X floatatom 254 578 5 0 0 0 - - -;
#X floatatom 83 580 5 0 0 0 - - -;
#X obj 90 107 bng 15 250 50 0 empty empty empty 17 7 0 10 -262144 -1
-1;
#X obj 85 540 js ../javascripts/std.js;
#X obj 289 72 declare -path ../abstractions;
#X obj 361 263 feature-extraction;
#X obj 181 132 s reset-all;
#X obj 86 146 s bang-all;
#X floatatom 512 581 5 0 0 0 - - -;
#X floatatom 341 583 5 0 0 0 - - -;
#X obj 343 543 js ../javascripts/std.js;
#X floatatom 769 575 5 0 0 0 - - -;
#X floatatom 598 577 5 0 0 0 - - -;
#X obj 600 537 js ../javascripts/std.js;
#X floatatom 1013 569 5 0 0 0 - - -;
#X floatatom 842 571 5 0 0 0 - - -;
#X obj 844 531 js ../javascripts/std.js;
#X floatatom 1266 563 5 0 0 0 - - -;
#X floatatom 1095 565 5 0 0 0 - - -;
#X obj 1097 525 js ../javascripts/std.js;
#X obj 64 480 r bang-all;
#X obj 343 504 r bang-all;
#X obj 595 502 r bang-all;
#X obj 842 497 r bang-all;
#X obj 1095 492 r bang-all;
#X floatatom 323 327 5 0 0 0 - - -;
#X floatatom 384 328 5 0 0 0 - - -;
#X floatatom 437 327 5 0 0 0 - - -;
#X floatatom 490 329 5 0 0 0 - - -;
#X floatatom 541 330 5 0 0 0 - - -;
#X obj 697 176 readsf~;
#X text 280 699 env \, brightness \, power \, harmonicity \, inharmonicity
\, spectral flatness;
#X connect 0 0 7 0;
#X connect 3 0 8 0;
#X connect 4 0 2 0;
#X connect 4 1 1 0;
#X connect 6 0 26 0;
#X connect 6 1 27 0;
#X connect 6 2 28 0;
#X connect 6 3 29 0;
#X connect 6 4 30 0;
#X connect 11 0 10 0;
#X connect 11 1 9 0;
#X connect 14 0 13 0;
#X connect 14 1 12 0;
#X connect 17 0 16 0;
#X connect 17 1 15 0;
#X connect 20 0 19 0;
#X connect 20 1 18 0;
#X connect 21 0 4 0;
#X connect 22 0 11 0;
#X connect 23 0 14 0;
#X connect 24 0 17 0;
#X connect 25 0 20 0;
#X connect 26 0 4 0;
#X connect 27 0 11 0;
#X connect 28 0 14 0;
#X connect 29 0 17 0;
#X connect 30 0 20 0;
#X connect 31 0 6 0;
